SplineFontDB: 3.0
FontName: CosmicSansNeueMono
FullName: Cosmic Sans Neue Mono
FamilyName: CosmicSansNeueMono
Weight: Regular
Copyright: Created by Jany Belluz with FontForge 2.0 (http://fontforge.sf.net)
UComments: "2013-9-13: Created." 
Version: 1.3
ItalicAngle: 0
UnderlinePosition: -192
UnderlineWidth: 96
Ascent: 1650
Descent: 398
LayerCount: 2
Layer: 0 0 "Back"  1
Layer: 1 0 "Fore"  0
XUID: [1021 607 50037791 3178130]
FSType: 8
OS2Version: 3
OS2_WeightWidthSlopeOnly: 0
OS2_UseTypoMetrics: 1
CreationTime: 1379052706
ModificationTime: 1385310798
PfmFamily: 49
TTFWeight: 400
TTFWidth: 5
LineGap: 360
VLineGap: 0
Panose: 2 11 5 9 2 2 4 3 2 4
OS2TypoAscent: 1700
OS2TypoAOffset: 0
OS2TypoDescent: -404
OS2TypoDOffset: 0
OS2TypoLinegap: 350
OS2WinAscent: 1658
OS2WinAOffset: 0
OS2WinDescent: 418
OS2WinDOffset: 0
HheadAscent: 1700
HheadAOffset: 0
HheadDescent: -404
HheadDOffset: 0
OS2FamilyClass: 2057
OS2Vendor: 'PfEd'
MarkAttachClasses: 1
DEI: 91125

StartChar: a
Encoding: 97 97 0
Width: 1100
VWidth: 6
Flags: W
HStem: -10 21G<856 895.95> -6 152<295.367 561.736> 504 153<344.522 679.622> 877 151<336.149 639.625>
VStem: 98 156<186.95 423.616> 716 157<285.558 463.324 597 791.012>
LayerCount: 2
Fore
SplineSet
873 318 m 2x7c
 873 283 873 190 886 173 c 0
 899 155 936 132 965 109 c 1
 882 -10 l 1xbc
 830 30 770 55 752 156 c 1
 674 81 585 -6 403 -6 c 0
 232 -6 98 135 98 301 c 0
 98 377 128 466 187 527 c 0
 282 624 392 657 510 657 c 0
 595 657 661 630 715 597 c 1
 715 792 648 877 496 877 c 0
 358 877 303 828 223 685 c 1
 93 767 l 1
 189 949 316 1025 494 1028 c 1
 719 1028 869 878 869 657 c 1
 873 318 l 2x7c
254 311 m 0
 254 206 310 146 403 146 c 0x7c
 583 146 690 304 716 345 c 1
 716 440 l 1
 659 475 579 504 509 504 c 0
 373 504 254 429 254 311 c 0
EndSplineSet
Validated: 1
EndChar

StartChar: b
Encoding: 98 98 1
Width: 1100
VWidth: -2
Flags: W
HStem: -7 154<382.022 681.177> 858 155<365.305 645.934> 1392 20G<116 279.5>
VStem: 113 165<5.34919 81.4914 1156.27 1403.8> 132 157<241.719 785.775 949 1399.8> 769 157<249.683 713.724>
LayerCount: 2
Fore
SplineSet
926 459 m 0xec
 926 191 819 -7 544 -7 c 0
 432 -7 352 28 289 84 c 1xec
 288 42 283 20 278 -12 c 1
 113 7 l 1xf4
 123 73 132 160 132 243 c 0
 132 251 132 259 132 267 c 0
 132 516 131 877 131 1157 c 0
 131 1251 123 1335 116 1403 c 1
 275 1412 l 1
 284 1339 289 1243 289 1152 c 2
 289 949 l 1
 337 985 375 1013 475 1013 c 0
 798 1013 926 795 926 459 c 0xec
769 478 m 0
 769 761 652 858 489 858 c 0
 398 858 341 795 289 744 c 1
 289 307 l 1
 360 193 407 147 544 147 c 0
 714 147 769 274 769 478 c 0
EndSplineSet
Validated: 1
EndChar

StartChar: c
Encoding: 99 99 2
Width: 1100
VWidth: 4
Flags: W
HStem: -7 157<379.683 760.344> 865 153<373.88 719.499>
VStem: 91 159<292.678 736.59>
LayerCount: 2
Fore
SplineSet
250 527 m 0
 250 157 457 150 567 150 c 2
 580 150 l 2
 736 150 811 215 863 302 c 1
 989 211 l 1
 956 169 863 -7 584 -7 c 0
 480 -7 357 1 261 73 c 1
 131 174 91 328 91 527 c 0
 91 894 269 1018 584 1018 c 0
 679 1018 753 994 813 948 c 0
 874 901 905 841 927 789 c 1
 773 729 l 1
 762 770 733 865 573 865 c 0
 352 865 250 766 250 527 c 0
EndSplineSet
Validated: 1
EndChar

StartChar: d
Encoding: 100 100 3
Width: 1100
VWidth: -2
Flags: W
HStem: -7 154<348.142 647.56> 858 155<389.251 663.98> 1391 20G<725 889.5>
VStem: 104 158<241.806 717.436> 741 157<241.719 785.775 949 1399.8>
LayerCount: 2
Fore
SplineSet
898 267 m 1
 898 241 l 2
 898 158 906 72 916 7 c 1
 752 -12 l 1
 747 20 742 42 741 84 c 1
 678 28 597 -7 485 -7 c 0
 210 -7 104 191 104 459 c 0
 104 795 231 1013 554 1013 c 0
 654 1013 692 980 740 949 c 1
 740 1156 l 2
 740 1250 732 1335 725 1403 c 1
 885 1411 l 1
 894 1338 899 1243 899 1152 c 2
 898 267 l 1
262 478 m 0
 262 274 315 147 485 147 c 0
 622 147 670 193 741 307 c 1
 741 744 l 1
 689 795 631 858 540 858 c 0
 377 858 262 761 262 478 c 0
EndSplineSet
Validated: 1
EndChar

StartChar: e
Encoding: 101 101 4
Width: 1100
VWidth: 32
Flags: W
HStem: -10 153<366.975 698.993> 460 150<460.379 784> 869 152<381.998 671.11>
VStem: 98 158<258.732 429.895 580 738.031> 784 159<611 749.303>
LayerCount: 2
Fore
SplineSet
529 1021 m 0
 906 1021 943 641 943 503 c 0
 943 483 943 468 942 460 c 1
 657 456 421 439 256 427 c 1
 256 274 339 143 525 143 c 0
 682 143 770 230 805 286 c 1
 926 183 l 1
 913 161 801 -10 521 -10 c 0
 235 -10 98 203 98 516 c 0
 98 802 246 1021 529 1021 c 0
256 580 m 1
 364 591 606 606 749 610 c 2
 784 611 l 1
 778 767 666 869 530 869 c 0
 360 869 257 734 256 580 c 1
EndSplineSet
Validated: 1
EndChar

StartChar: f
Encoding: 102 102 5
Width: 1100
VWidth: -2
Flags: W
HStem: 859 153<132 275 432 834.016> 1266 152<468.036 844.583>
VStem: 275 157<0 859 1013 1231.57>
LayerCount: 2
Fore
SplineSet
588 1266 m 0
 441 1266 432 1168 432 1060 c 2
 432 1013 l 1
 500 1013 630 1012 703 1012 c 1
 807 1009 834 1001 864 992 c 1
 835 846 l 1
 814 853 793 859 737 859 c 2
 432 859 l 1
 433 705 435 4 435 0 c 1
 278 0 l 1
 278 25 277 712 275 859 c 1
 132 859 l 1
 132 1012 l 1
 276 1012 l 1
 276 1028 275 1045 275 1064 c 0
 275 1207 303 1418 580 1418 c 0
 799 1418 947 1392 1031 1225 c 1
 905 1148 l 1
 855 1246 793 1266 588 1266 c 0
EndSplineSet
Validated: 1
EndChar

StartChar: g
Encoding: 103 103 6
Width: 1100
VWidth: 14
Flags: W
HStem: -346 156<279.07 787.902> 69 153<285.055 808.211> 351 153<351.679 678.877> 889 152<354.355 694.546 874.713 984>
VStem: 100 157<-165.163 42.3412 234.782 397.316> 115 158<578.656 807.783> 745 156<572.531 838.407> 831 157<-151.81 42.8716>
LayerCount: 2
Fore
SplineSet
874 857 m 1xf4
 892 816 901 783 901 725 c 0xf6
 901 509 800 351 499 351 c 2
 496 351 l 2
 421 351 352 370 290 399 c 1
 271 377 259 364 259 320 c 0
 259 230 293 220 439 220 c 0
 482 220 577 222 641 222 c 0
 804 222 988 174 988 -27 c 0
 988 -308 826 -346 460 -346 c 0
 256 -346 100 -282 100 -67 c 0xf9
 100 34 134 88 187 135 c 1
 140 170 102 229 102 315 c 0
 102 416 139 455 176 496 c 1
 139 543 115 601 115 669 c 0
 115 672 115 675 115 678 c 0
 115 913 263 1041 517 1041 c 0
 617 1041 711 1028 787 981 c 1
 836 1027 868 1042 984 1042 c 1
 984 879 l 1
 972 881 961 882 951 882 c 0
 917 882 889 872 874 857 c 1xf4
745 720 m 0
 745 840 668 889 517 889 c 0
 349 889 273 795 273 682 c 0
 273 583 374 504 503 504 c 0
 709 504 745 607 745 720 c 0
464 -190 m 0
 493 -190 520 -190 545 -190 c 0
 744 -190 831 -181 831 -28 c 0
 831 55 753 69 574 69 c 0
 520 69 414 67 341 66 c 1
 292 47 257 4 257 -62 c 0xf9
 257 -181 325 -190 464 -190 c 0
EndSplineSet
Validated: 1
EndChar

StartChar: p
Encoding: 112 112 7
Width: 1100
VWidth: -2
Flags: W
HStem: -7 155<371.305 651.934> 858 155<388.237 687.54> 998 20G<120 286.5>
VStem: 139 156<-393.801 56 220.225 763.281> 775 157<291.52 763.3>
LayerCount: 2
Fore
SplineSet
139 739 m 2xd8
 139 747 139 755 139 763 c 0
 139 846 130 932 120 998 c 1
 284 1018 l 1xb8
 289 986 294 964 295 922 c 1
 358 978 438 1013 550 1013 c 0
 825 1013 932 814 932 546 c 0
 932 210 804 -7 481 -7 c 0
 381 -7 343 25 295 56 c 1
 295 -151 l 2
 295 -245 304 -329 311 -397 c 1
 152 -406 l 1
 143 -333 138 -237 138 -146 c 2
 139 739 l 2xd8
775 527 m 0
 775 731 721 858 551 858 c 0xd8
 414 858 366 812 295 698 c 1
 295 262 l 1
 347 211 404 148 495 148 c 0
 658 148 775 244 775 527 c 0
EndSplineSet
Validated: 1
EndChar

StartChar: h
Encoding: 104 104 8
Width: 1100
VWidth: -2
Flags: W
HStem: -4 21G<98 258.5 852 907.043> 858 153<351.877 684.129> 1382 20G<110 268.043>
VStem: 111 157<4 785.233 940 1401> 738 157<130.048 802.125>
LayerCount: 2
Fore
SplineSet
738 576 m 2
 738 803 702 858 501 858 c 0
 400 858 299 793 268 731 c 1
 268 198 l 2
 268 119 261 42 256 -4 c 1
 98 4 l 1
 106 76 111 127 111 204 c 0
 111 708 110 1401 110 1401 c 1
 268 1402 l 1
 269 940 l 1
 334 981 406 1011 508 1011 c 0
 629 1011 739 1011 818 915 c 1
 890 830 895 752 895 642 c 2
 895 576 l 2
 895 412 894 335 894 223 c 0
 894 168 920 139 980 100 c 1
 892 -17 l 1
 812 28 738 81 738 208 c 2
 738 576 l 2
EndSplineSet
Validated: 1
EndChar

StartChar: i
Encoding: 105 105 9
Width: 1100
VWidth: 0
Flags: W
HStem: -18 142<607.434 970.467> 857 156<184.467 438> 1178 225<374 609>
VStem: 374 235<1178 1400> 438 160<133.613 857>
LayerCount: 2
Fore
SplineSet
374 1403 m 1xf0
 609 1400 l 1
 609 1175 l 1
 374 1178 l 1
 374 1403 l 1xf0
EndSplineSet
Refer: 177 305 N 1 0 0 1 40 0 2
Validated: 1
EndChar

StartChar: j
Encoding: 106 106 10
Width: 1100
VWidth: 0
Flags: W
HStem: -387 156<386.311 651.621> 864 155<434.191 686> 1179 225<620 854>
VStem: 620 234<1179 1401> 687 156<-196.669 864>
LayerCount: 2
Fore
SplineSet
620 1404 m 1xf0
 854 1401 l 1
 854 1176 l 1
 620 1179 l 1
 620 1404 l 1xf0
EndSplineSet
Refer: 321 567 N 1 0 0 1 40 0 2
Validated: 1
EndChar

StartChar: k
Encoding: 107 107 11
Width: 1100
VWidth: -2
Flags: W
HStem: 872 144<520.523 738.984> 1407 20G<216.455 290.5>
VStem: 156 157<0 469 611.15 735.644 880 1381.07> 762 157<618.956 848.248>
LayerCount: 2
Fore
SplineSet
313 880 m 1
 385 929 535 1016 641 1016 c 0
 777 1016 900 933 914 814 c 0
 917 791 919 761 919 732 c 0
 919 699 916 665 911 639 c 0
 905 605 853 503 750 454 c 1
 848 381 846 261 899 173 c 0
 923 134 949 113 982 89 c 1
 898 -19 l 1
 775 41 740 159 713 238 c 0
 663 383 438 455 314 469 c 1
 314 469 312 279 312 129 c 0
 312 79 313 33 313 0 c 1
 156 0 l 1
 156 1228 l 2
 156 1289 146 1342 133 1383 c 1
 286 1427 l 1
 295 1404 313 1359 313 1293 c 2
 313 880 l 1
606 566 m 0
 707 566 762 657 762 745 c 0
 762 763 760 780 755 795 c 0
 745 828 713 872 650 872 c 0
 626 872 598 866 565 850 c 0
 466 803 387 758 313 708 c 1
 313 618 l 1
 397 605 462 590 511 579 c 0
 548 571 579 566 606 566 c 0
EndSplineSet
Validated: 1
EndChar

StartChar: l
Encoding: 108 108 12
Width: 1100
VWidth: -2
Flags: W
HStem: -16 142<548.434 911.467> 1273 155<123.466 376>
VStem: 379 160<135.613 1273>
LayerCount: 2
Fore
SplineSet
416 1428 m 2
 536 1428 l 1
 536 1155 539 212 539 212 c 1
 544 130 584 126 676 126 c 0
 769 126 893 147 962 199 c 1
 1030 85 l 1
 944 14 801 -16 677 -16 c 0
 592 -16 516 -2 472 22 c 0
 387 69 379 149 379 208 c 2
 376 1273 l 1
 327 1273 214 1266 119 1244 c 1
 91 1387 l 1
 203 1413 312 1428 416 1428 c 2
EndSplineSet
Validated: 1
EndChar

StartChar: m
Encoding: 109 109 13
Width: 1100
VWidth: 4
Flags: W
HStem: 853 167<346.785 454.055 627.325 757.486>
VStem: 109 157<0 758.452> 455 141<0 823.106> 767 156<123.69 856.389>
LayerCount: 2
Fore
SplineSet
954 -21 m 1
 883 -7 767 48 767 189 c 2
 767 191 l 1
 768 721 l 2
 768 825 737 861 710 861 c 0
 698 861 638 846 595 760 c 1
 596 0 l 1
 455 0 l 1
 455 814 l 1
 448 844 425 853 407 853 c 0
 404 853 402 852 399 852 c 0
 380 849 317 797 266 666 c 1
 266 0 l 1
 109 0 l 1
 106 809 l 2
 106 902 93 952 76 1001 c 1
 235 1041 l 1
 250 1009 264 972 266 926 c 1
 296 977 340 1020 410 1020 c 0
 484 1020 525 990 555 928 c 1
 580 969 636 1016 727 1016 c 2
 735 1016 l 2
 778 1016 825 1014 868 954 c 0
 911 894 923 834 923 739 c 2
 923 201 l 2
 923 150 974 113 1015 97 c 1
 954 -21 l 1
EndSplineSet
Validated: 1
EndChar

StartChar: o
Encoding: 111 111 14
Width: 1100
VWidth: 6
Flags: W
HStem: 1 155<363.159 650.662> 878 154<372.497 659.881>
VStem: 92 158<272.944 736.885> 763 159<279.587 758.636>
LayerCount: 2
Fore
SplineSet
502 1 m 1
 230 2 92 184 92 464 c 0
 92 756 194 1032 486 1032 c 0
 683 1032 793 963 863 831 c 0
 904 752 922 639 922 543 c 0
 922 258 826 1 504 1 c 2
 502 1 l 1
674 215 m 1
 739 276 763 382 763 530 c 0
 763 536 763 542 763 548 c 0
 761 732 697 878 520 878 c 0
 312 878 250 713 250 469 c 0
 250 274 337 156 504 156 c 1
 580 157 624 173 674 215 c 1
EndSplineSet
Validated: 1
EndChar

StartChar: n
Encoding: 110 110 15
Width: 1100
VWidth: 6
Flags: W
HStem: 872 150<429.07 690.196>
VStem: 133 158<0 778.144> 717 159<129.808 841.083>
LayerCount: 2
Fore
SplineSet
291 927 m 1
 417 993 477 1022 587 1022 c 0
 708 1022 876 945 876 796 c 2
 876 211 l 2
 876 145 926 123 982 93 c 1
 898 -19 l 1
 809 24 717 75 717 204 c 2
 717 765 l 2
 717 839 632 872 565 872 c 0
 502 872 437 830 292 760 c 1
 291 0 l 1
 133 -1 l 1
 133 705 l 2
 133 883 125 909 101 1003 c 1
 261 1040 l 1
 271 1016 284 976 291 927 c 1
EndSplineSet
Validated: 1
EndChar

StartChar: q
Encoding: 113 113 16
Width: 1100
VWidth: -2
Flags: W
HStem: -7 155<419.119 699.98> 858 155<383.869 683.56> 998 20G<785.5 952>
VStem: 140 156<291.52 755.414> 777 156<-393.801 56 220.225 763.281>
LayerCount: 2
Fore
SplineSet
933 739 m 2xb8
 934 -146 l 2
 934 -237 929 -333 920 -406 c 1
 761 -397 l 1
 768 -329 776 -245 776 -151 c 2
 776 56 l 1
 728 25 690 -7 590 -7 c 0
 267 -7 140 210 140 546 c 0
 140 814 246 1013 521 1013 c 0xd8
 633 1013 714 978 777 922 c 1
 778 964 783 986 788 1018 c 1
 952 998 l 1
 942 932 933 846 933 763 c 0
 933 755 933 747 933 739 c 2xb8
296 527 m 0
 296 244 413 148 576 148 c 0
 667 148 725 211 777 262 c 1
 777 698 l 1
 706 812 658 858 521 858 c 0
 351 858 296 731 296 527 c 0
EndSplineSet
Validated: 1
EndChar

StartChar: r
Encoding: 114 114 17
Width: 1100
VWidth: 4
Flags: W
HStem: 876 160<546.393 771.826>
VStem: 214 156<1 689.995> 782 157<734 869.776>
LayerCount: 2
Fore
SplineSet
374 886 m 1
 467 1000 571 1036 726 1036 c 0
 893 1036 939 922 939 740 c 0
 939 738 939 736 939 734 c 1
 782 734 l 1
 778 815 790 876 698 876 c 0
 597 876 470 829 370 606 c 1
 370 0 l 1
 214 1 l 1
 214 775 l 2
 214 832 174 861 112 916 c 1
 216 1057 l 1
 277 1008 337 970 374 886 c 1
EndSplineSet
Validated: 1
EndChar

StartChar: s
Encoding: 115 115 18
Width: 1100
VWidth: 6
Flags: W
HStem: -20 143<335.391 665.341> 881 148<333.448 669.835>
VStem: 112 157<192.72 329> 146 160<706.04 850.139> 735 155<188.544 389.011>
LayerCount: 2
Fore
SplineSet
263 571 m 0xe8
 198 606 146 672 146 783 c 0
 147 956 309 1029 484 1029 c 0
 606 1029 782 989 864 888 c 1
 751 777 l 1
 698 839 584 881 498 881 c 0
 392 881 306 847 306 787 c 0xd8
 306 739 323 716 363 698 c 1
 628 586 890 565 890 281 c 0
 890 119 776 28 669 0 c 1
 613 -13 553 -20 496 -20 c 0
 240 -20 112 115 112 330 c 1
 269 329 l 1
 269 195 338 123 493 123 c 0
 616 123 735 176 735 286 c 0
 735 359 704 385 649 426 c 1
 572 481 368 516 263 571 c 0xe8
EndSplineSet
Validated: 1
EndChar

StartChar: t
Encoding: 116 116 19
Width: 1100
VWidth: 0
Flags: W
HStem: -6 155<403.71 778.905> 872 145<152 180>
VStem: 182 159<209.621 865 1017 1255>
LayerCount: 2
Fore
SplineSet
341 437 m 1
 341 397 l 2
 341 264 377 163 488 152 c 0
 506 150 583 149 596 149 c 0
 661 149 725 159 750 173 c 0
 807 203 825 258 832 277 c 1
 958 221 l 1
 948 193 925 102 813 37 c 0
 755 3 683 -6 598 -6 c 0
 414 -6 292 13 221 161 c 0
 186 233 182 308 182 394 c 2
 182 437 l 1
 186 541 188 672 194 865 c 1
 180 865 l 2
 152 865 124 861 98 854 c 1
 78 1000 l 1
 102 1009 147 1012 180 1012 c 2
 195 1012 l 1
 195 1082 196 1186 196 1256 c 1
 354 1255 l 1
 354 1189 353 1085 352 1017 c 1
 474 1017 l 1
 619 1018 773 1019 773 1019 c 1
 791 1019 l 1
 791 872 l 1
 474 872 l 2
 428 872 401 869 355 869 c 1
 346 665 345 537 341 437 c 1
EndSplineSet
Validated: 1
EndChar

StartChar: u
Encoding: 117 117 20
Width: 1100
VWidth: 6
Flags: W
HStem: -10 21G<897.5 940.017> -10 21G<897.5 940.017> 2 154<340.683 605.04> 1001 20G<152.481 282>
VStem: 134 156<180.892 701.424> 759 158<276.783 1001>
LayerCount: 2
Fore
SplineSet
926 -10 m 1x9c
 869 31 815 72 793 158 c 1
 709 72 612 5 462 2 c 1
 453 2 l 2
 391 2 306 3 246 44 c 0
 201 75 134 132 134 214 c 0
 131 482 138 911 111 994 c 1
 271 1021 l 1
 293 929 288 616 290 250 c 1
 296 216 318 190 340 174 c 0
 354 164 405 156 446 156 c 1x3c
 513 159 554 167 605 198 c 0
 652 226 721 256 759 344 c 1
 760 1001 l 1
 918 1001 l 1
 917 239 l 1
 919 187 968 139 1008 107 c 1
 926 -10 l 1x9c
EndSplineSet
Validated: 1
EndChar

StartChar: v
Encoding: 118 118 21
Width: 1100
VWidth: 6
Flags: W
HStem: -3 21G<387 440>
VStem: 776 155<587.532 1011>
LayerCount: 2
Fore
SplineSet
173 1048 m 1
 243 973 265 924 291 849 c 0
 336 723 510 281 521 177 c 1
 645 320 769 610 775 817 c 0
 776 845 776 881 776 914 c 0
 776 955 776 993 774 1011 c 1
 926 1015 l 1
 929 999 931 879 931 821 c 0
 929 576 779 251 634 71 c 0
 577 0 493 -3 387 -3 c 1
 387 137 186 685 124 839 c 0
 116 860 70 927 44 952 c 1
 173 1048 l 1
EndSplineSet
Validated: 1
EndChar

StartChar: w
Encoding: 119 119 22
Width: 1100
Flags: W
HStem: 0 176<360.012 413.887 671.84 741.542> 998 20G<807 971.5>
VStem: 461 141<411.109 823> 812 164<326.951 1018>
LayerCount: 2
Fore
SplineSet
37 984 m 1
 172 1061 l 1
 207 1002 237 913 263 794 c 0
 289 675 323 469 366 175 c 1
 429 175 461 339 461 666 c 2
 461 731 l 1
 461 745 l 2
 461 774 460 800 458 823 c 1
 602 823 l 1
 606 738 631 522 676 176 c 1
 693 176 708 182 721 194 c 0
 734 206 745 223 754 247 c 0
 763 271 771 295 778 320 c 0
 785 345 791 378 795 418 c 0
 799 458 802 491 805 520 c 0
 808 549 809 587 810 632 c 0
 811 677 812 712 812 735 c 0
 812 758 812 790 812 831 c 0
 812 909 810 971 807 1018 c 1
 969 1018 l 1
 974 971 976 907 976 827 c 0
 976 603 960 417 928 270 c 0
 919 226 907 189 892 158 c 0
 877 127 858 99 833 74 c 0
 808 49 777 30 738 18 c 0
 699 6 653 0 600 0 c 2
 566 0 l 1
 552 140 543 239 539 297 c 1
 525 218 513 164 502 136 c 0
 465 48 399 4 302 3 c 1
 297 3 l 1
 270 4 247 8 230 15 c 1
 222 82 202 221 168 430 c 0
 134 639 109 775 92 839 c 0
 77 898 58 947 37 984 c 1
EndSplineSet
Validated: 1
EndChar

StartChar: x
Encoding: 120 120 23
Width: 1100
VWidth: 4
Flags: W
HStem: 3 153<849.536 970> 1009 20G<770 925>
VStem: 770 158<912.879 1028>
LayerCount: 2
Fore
SplineSet
880 863 m 1
 830 778 712 595 632 488 c 1
 710 385 844 178 864 165 c 0
 868 162 884 156 918 156 c 0
 936 156 954 159 970 162 c 1
 970 9 l 1
 950 6 928 3 908 3 c 0
 868 3 828 15 788 43 c 1
 716 90 612 261 528 379 c 1
 378 184 221 0 206 -18 c 1
 85 84 l 1
 93 95 274 323 430 511 c 1
 346 629 232 786 100 960 c 1
 230 1061 l 1
 354 891 456 740 538 624 c 1
 610 711 666 807 736 930 c 0
 756 965 766 1011 770 1028 c 1
 928 1029 l 1
 922 980 912 914 880 863 c 1
EndSplineSet
Validated: 1
EndChar

StartChar: y
Encoding: 121 121 24
Width: 1100
VWidth: 14
Flags: W
HStem: -376 153<226.201 373.113> 889 152<40 115.747>
VStem: 26 156<-179.577 0> 758 158<748.803 1043>
LayerCount: 2
Fore
SplineSet
292 -223 m 0
 398 -223 452 -38 490 68 c 1
 396 396 213 776 116 880 c 0
 111 885 80 889 55 889 c 0
 50 889 45 888 40 888 c 1
 40 1041 l 1
 73 1041 112 1040 140 1036 c 0
 307 1011 469 612 582 287 c 1
 656 504 750 816 758 1043 c 1
 916 1043 l 1
 916 983 911 926 902 875 c 0
 837 522 708 169 576 -142 c 1
 523 -277 445 -376 296 -376 c 0
 121 -376 31 -173 26 0 c 1
 182 0 l 1
 186 -95 212 -223 292 -223 c 0
EndSplineSet
Validated: 1
EndChar

StartChar: z
Encoding: 122 122 25
Width: 1100
VWidth: 6
Flags: W
HStem: -9 21G<858.5 886.517> -9 21G<858.5 886.517> 13 156<266 878.911> 854 157<144 692>
LayerCount: 2
Fore
SplineSet
117 866 m 1xb0
 144 1017 l 1
 190 1012 301 1011 425 1011 c 0
 611 1011 827 1014 897 1016 c 1
 921 901 l 1
 910 890 777 736 572 523 c 1
 449 398 341 302 266 169 c 1
 752 168 l 2
 808 168 860 156 921 136 c 1
 881 -9 l 1
 836 4 819 13 754 13 c 2
 91 13 l 1
 91 33 l 2
 91 106 92 158 113 202 c 0
 189 361 319 469 456 618 c 0
 552 723 630 799 692 857 c 1
 624 856 523 854 422 854 c 0
 297 854 174 857 117 866 c 1xb0
EndSplineSet
Validated: 1
EndChar

StartChar: A
Encoding: 65 65 26
Width: 1100
VWidth: 0
Flags: W
HStem: -11 21G<874.098 984.242> -8 18G<57.2308 194.867 874.098 984.242> 355 178<364.946 712> 1395 20G<478.314 609.447>
LayerCount: 2
Fore
SplineSet
485 1415 m 1x70
 603 1415 l 1
 1052 22 l 1
 880 -11 l 1xb0
 772 355 l 1
 624 352 419 353 302 324 c 1
 188 -8 l 1
 18 18 l 1
 485 1415 l 1x70
712 534 m 1
 544 1070 l 1
 362 512 l 1
 425 526 478 529 565 533 c 1
 712 534 l 1
EndSplineSet
Validated: 1
EndChar

StartChar: B
Encoding: 66 66 27
Width: 1100
VWidth: 0
Flags: W
HStem: 3 164<265 714.594> 705 170<271 549.453> 1254 162<271.221 557.025>
VStem: 103 166<167 705 875 1246.12> 622 165<935.771 1191.68> 823 167<281.078 594.295>
LayerCount: 2
Fore
SplineSet
744 630 m 0
 667 696 604 707 504 707 c 0
 453 707 392 705 315 705 c 2
 269 705 l 1
 267 447 266 250 265 167 c 1
 378 167 420 160 499 160 c 0
 541 160 577 162 614 167 c 0
 725 181 823 289 823 446 c 0
 823 532 799 583 744 630 c 0
622 1081 m 2
 622 1204 520 1254 376 1254 c 2
 358 1254 l 2
 317 1254 301 1251 269 1248 c 1
 272 1208 273 1160 273 1109 c 0
 273 1036 271 956 271 875 c 1
 424 878 476 871 571 931 c 0
 599 948 622 1009 622 1073 c 2
 622 1081 l 2
103 897 m 0
 103 1086 99 1263 90 1401 c 1
 175 1408 226 1416 345 1416 c 0
 351 1416 358 1416 364 1416 c 0
 580 1416 787 1327 787 1092 c 0
 787 987 760 897 696 836 c 1
 859 779 990 635 990 428 c 0
 990 183 833 25 658 3 c 0
 617 -2 574 -5 533 -5 c 0
 444 -5 349 3 236 3 c 2
 93 3 l 1
 93 214 103 444 103 897 c 0
EndSplineSet
Validated: 1
EndChar

StartChar: C
Encoding: 67 67 28
Width: 1100
VWidth: 0
Flags: W
HStem: -3 168<406.747 735.712> 1256 168<440.84 723.776>
VStem: 60 167<385.758 982.633>
LayerCount: 2
Fore
SplineSet
598 1256 m 0
 477 1256 384 1185 334 1112 c 1
 287 1041 227 914 227 681 c 0
 227 502 259 343 362 244 c 0
 427 181 478 165 564 165 c 2
 578 165 l 1
 732 170 823 251 877 373 c 1
 1023 290 l 1
 945 121 805 -3 605 -3 c 2
 602 -3 l 2
 485 -3 347 24 248 124 c 1
 122 257 60 436 60 679 c 0
 60 956 144 1126 199 1209 c 0
 275 1325 418 1424 602 1424 c 0
 749 1424 883 1332 975 1159 c 1
 833 1070 l 1
 769 1201 688 1256 598 1256 c 0
EndSplineSet
Validated: 1
EndChar

StartChar: D
Encoding: 68 68 29
Width: 1100
VWidth: 0
Flags: W
HStem: -11 165<242 683.178> 1256 166<249.885 557.506>
VStem: 81 166<157 1252.71> 852 167<342.739 893.533>
LayerCount: 2
Fore
SplineSet
74 136 m 1
 74 195 81 619 81 962 c 2
 81 1043 l 2
 81 1180 76 1313 67 1407 c 1
 152 1416 199 1422 303 1422 c 0
 588 1422 752 1334 881 1139 c 1
 969 1004 1019 812 1019 619 c 0
 1019 545 1010 472 996 401 c 0
 946 144 777 16 588 -3 c 0
 530 -8 477 -11 419 -11 c 0
 331 -11 191 -3 71 -3 c 1
 71 33 71 31 74 136 c 1
325 1256 m 2
 294 1256 l 2
 287 1256 281 1256 275 1256 c 0
 266 1256 258 1256 247 1254 c 1
 248 1227 248 1193 248 1160 c 0
 248 1092 247 1018 247 944 c 0
 247 617 243 262 242 157 c 1
 334 154 382 154 445 154 c 0
 622 154 755 182 823 377 c 0
 840 426 852 522 852 581 c 0
 852 754 813 936 745 1040 c 0
 652 1180 557 1256 325 1256 c 2
EndSplineSet
Validated: 1
EndChar

StartChar: E
Encoding: 69 69 30
Width: 1100
VWidth: 0
Flags: W
HStem: -3 164<271 944.953> 726 164<274 734> 1247 167<274 934>
VStem: 108 166<161 726 890 1247>
LayerCount: 2
Fore
SplineSet
108 1409 m 1
 167 1413 240 1414 322 1414 c 0
 355 1414 389 1414 425 1414 c 2
 541 1414 l 2
 697 1414 840 1410 918 1410 c 2
 934 1410 l 1
 934 1247 l 1
 274 1247 l 1
 274 890 l 1
 734 890 l 1
 734 726 l 1
 274 726 l 1
 274 693 l 2
 274 472 271 245 271 161 c 1
 822 162 l 2
 881 162 945 191 945 191 c 1
 991 29 l 1
 941 15 904 -3 824 -3 c 2
 108 -3 l 1
 108 1409 l 1
EndSplineSet
Validated: 1
EndChar

StartChar: F
Encoding: 70 70 31
Width: 1100
VWidth: 0
Flags: W
HStem: 728 164<287 746.161> 1248 167<287 948.737>
VStem: 123 164<3 725 888 1246>
LayerCount: 2
Fore
SplineSet
292 -1 m 1
 123 3 l 1
 123 1415 l 1
 842 1415 l 1
 923 1412 973 1396 1009 1377 c 1
 950 1218 l 1
 923 1233 900 1247 797 1248 c 1
 723 1248 l 2
 614 1248 479 1247 287 1246 c 1
 287 888 l 1
 413 888 483 892 611 892 c 0
 703 892 765 876 766 876 c 2
 785 871 l 1
 748 713 l 1
 709 723 655 728 608 728 c 0
 497 728 400 728 287 725 c 1
 287 593 292 100 292 -1 c 1
EndSplineSet
Validated: 1
EndChar

StartChar: G
Encoding: 71 71 32
Width: 1100
VWidth: 0
Flags: W
HStem: -9 169<389.757 745.806> 638 164<461.39 868> 1254 166<384.093 735.188>
VStem: 22 170<386.374 1008.04> 868 174<306.886 640>
LayerCount: 2
Fore
SplineSet
905 799 m 0
 953 799 998 803 1042 807 c 1
 1042 659 l 2
 1042 185 914 53 727 3 c 1
 680 -8 612 -9 568 -9 c 0
 186 -9 22 306 22 685 c 0
 22 943 77 1155 215 1293 c 1
 320 1389 440 1420 561 1420 c 2
 582 1420 l 1
 807 1415 947 1296 1026 1118 c 1
 876 1043 l 1
 821 1167 733 1254 570 1254 c 0
 482 1254 418 1247 336 1174 c 0
 219 1070 192 860 192 673 c 0
 192 391 274 160 578 160 c 0
 608 160 639 162 666 170 c 1
 795 201 868 288 868 640 c 1
 841 638 816 638 792 638 c 0
 759 638 728 639 698 639 c 0
 623 639 551 633 457 597 c 1
 415 755 l 1
 516 794 625 802 731 802 c 0
 790 802 848 799 905 799 c 0
EndSplineSet
Validated: 1
EndChar

StartChar: H
Encoding: 72 72 33
Width: 1100
VWidth: 0
Flags: W
HStem: 681 166<236.831 793> 1393 15G<64 231.966 792 959>
VStem: 64 167<0 659.026 816 1410> 793 166<0 681 847 1408>
LayerCount: 2
Fore
SplineSet
232 1413 m 1
 231 816 l 1
 328 839 427 847 553 847 c 2
 793 847 l 1
 793 1146 792 1231 792 1408 c 1
 959 1408 l 1
 959 0 l 1
 793 0 l 1
 793 681 l 1
 748 681 702 681 657 681 c 0
 504 681 355 678 231 651 c 1
 231 277 233 197 233 0 c 1
 64 0 l 1
 64 1410 l 1
 232 1413 l 1
EndSplineSet
Validated: 1
EndChar

StartChar: K
Encoding: 75 75 34
Width: 1100
VWidth: 0
Flags: W
HStem: -5 21G<123 289> 1406 20G<123 289 895 926.172>
VStem: 123 166<-5 550.647 766 1426>
LayerCount: 2
Fore
SplineSet
509 790 m 1
 635 662 999 211 1053 64 c 1
 912 -19 l 1
 864 100 545 517 408 654 c 1
 408 654 321 547 289 470 c 1
 289 -5 l 1
 123 -5 l 1
 123 1426 l 1
 289 1426 l 1
 289 766 l 1
 373 887 447 974 551 1086 c 1
 752 1299 884 1405 906 1428 c 1
 1023 1312 l 1
 832 1168 572 870 509 790 c 1
EndSplineSet
Validated: 1
EndChar

StartChar: L
Encoding: 76 76 35
Width: 1100
VWidth: 0
Flags: W
HStem: -3 168<318 989.863> 1395 20G<149 318>
VStem: 149 169<165 1415>
LayerCount: 2
Fore
SplineSet
149 -3 m 1
 149 1415 l 1
 318 1415 l 1
 318 165 l 1
 865 165 l 1
 927 168 946 173 992 189 c 1
 1035 29 l 1
 986 12 946 -3 867 -3 c 2
 149 -3 l 1
EndSplineSet
Validated: 1
EndChar

StartChar: M
Encoding: 77 77 36
Width: 1100
VWidth: 31
Flags: W
HStem: -5 21G<23.9579 190 726.94 892> 1411 20G<21 162 726.5 890.028>
VStem: 24 166<-5 981> 727 165<-5 1003>
LayerCount: 2
Fore
SplineSet
21 1421 m 1
 127 1431 l 1
 197 1325 276 1155 348 1022 c 0
 400 924 427 868 447 827 c 1
 534 996 684 1289 769 1431 c 1
 890 1431 l 1
 892 -5 l 1
 727 -5 l 1
 724 1003 l 1
 646 849 524 627 512 588 c 1
 384 591 l 1
 376 608 315 728 223 912 c 1
 201 960 206 950 190 981 c 1
 190 -5 l 1
 24 -5 l 1
 21 1421 l 1
EndSplineSet
Validated: 1
EndChar

StartChar: N
Encoding: 78 78 37
Width: 1100
VWidth: 0
Flags: W
HStem: -3 17G<80 247 705.5 958> 1395 19G<80 247 796.5 963>
VStem: 80 166<-3 1091> 788 166<-5 100.796 389 1414>
LayerCount: 2
Fore
SplineSet
791 -7 m 1
 620 382 458 706 246 1091 c 1
 246 869 l 2
 246 550 247 163 247 -3 c 1
 80 -3 l 1
 80 1415 l 1
 247 1410 l 1
 379 1209 669 659 792 389 c 1
 790 531 788 679 788 825 c 0
 788 1028 792 1228 801 1414 c 1
 963 1414 l 1
 957 1291 954 1128 954 950 c 0
 954 704 959 428 959 177 c 0
 959 115 958 53 958 -5 c 1
 791 -7 l 1
EndSplineSet
Validated: 1
EndChar

StartChar: O
Encoding: 79 79 38
Width: 1100
VWidth: 0
Flags: W
HStem: -17 167<369.535 681.41> 1275 167<402.109 686.308>
VStem: 44 167<352.638 994.501> 856 166<389.013 1008.4>
LayerCount: 2
Fore
SplineSet
299 264 m 1
 350 193 423 150 536 150 c 0
 658 150 734 223 781 313 c 1
 823 383 855 563 856 680 c 1
 856 701 l 2
 856 826 837 993 781 1105 c 0
 720 1229 646 1275 554 1275 c 0
 454 1275 396 1245 335 1162 c 0
 263 1065 211 911 211 625 c 0
 211 512 240 344 299 264 c 1
549 1442 m 1
 679 1442 1017 1362 1022 689 c 1
 1022 677 l 2
 1022 498 975 331 925 230 c 0
 846 73 709 -17 536 -17 c 0
 408 -17 274 29 189 138 c 0
 95 258 44 424 44 620 c 0
 44 996 124 1158 198 1262 c 0
 267 1360 385 1439 549 1442 c 1
EndSplineSet
Validated: 1
EndChar

StartChar: P
Encoding: 80 80 39
Width: 1100
VWidth: 0
Flags: W
HStem: -11 21G<110 276> -11 21G<110 276> 501 166<277 693.04> 1255 165<278 716.704>
VStem: 110 168<-10 505 668 1249> 857 170<805.437 1138.95>
LayerCount: 2
Fore
SplineSet
276 -11 m 1xbc
 110 -10 l 1
 110 1410 l 1
 234 1410 274 1420 414 1420 c 0
 650 1420 829 1405 950 1255 c 0
 1007 1184 1027 1086 1027 988 c 0
 1027 889 1019 780 956 685 c 0
 853 532 689 501 438 501 c 0
 388 501 334 503 277 505 c 1
 277 218 276 159 276 -11 c 1xbc
857 981 m 0
 857 1208 695 1248 437 1255 c 1
 373 1255 325 1250 278 1249 c 1
 278 1112 l 2
 278 913 277 668 277 668 c 1
 315 667 350 667 385 667 c 0
 685 667 857 732 857 981 c 0
EndSplineSet
Validated: 1
EndChar

StartChar: Q
Encoding: 81 81 40
Width: 1100
VWidth: 0
Flags: W
HStem: -143 165<804.964 1023> -3 160<404.256 626.005> 306 162<422.763 602.587> 1256 167<373.276 658.591>
VStem: 54 167<371.778 1055.07> 823 167<383.688 1057.54>
LayerCount: 2
Fore
SplineSet
627 181 m 1x7c
 614 271 590 306 513 306 c 0
 452 306 402 260 402 199 c 0
 402 198 402 197 402 196 c 0
 429 167 476 157 516 157 c 0
 549 157 589 165 627 181 c 1x7c
505 468 m 0
 630 468 716 414 751 312 c 1
 810 389 823 545 823 724 c 0
 823 734 823 743 823 753 c 0
 823 867 820 993 751 1115 c 0
 703 1199 618 1256 512 1256 c 0
 322 1256 221 1071 221 753 c 0
 221 642 222 472 286 314 c 1
 321 437 455 468 505 468 c 0
934 -143 m 0xbc
 813 -143 682 -122 655 16 c 1
 612 4 569 -3 527 -3 c 0x7c
 405 -3 292 44 209 132 c 0
 104 245 54 445 54 686 c 0
 54 912 84 1121 184 1254 c 0
 282 1385 385 1423 514 1423 c 0
 689 1423 812 1352 895 1198 c 0
 985 1031 990 861 990 740 c 0
 990 575 968 385 892 252 c 0
 850 180 828 146 793 106 c 1
 805 26 839 23 923 22 c 1
 934 22 l 2
 973 22 998 26 1023 33 c 1
 1023 -133 l 1
 1000 -138 981 -143 934 -143 c 0xbc
EndSplineSet
Validated: 1
EndChar

StartChar: R
Encoding: 82 82 41
Width: 1100
VWidth: 0
Flags: W
HStem: 618 166<261 493.98> 1254 167<258.446 654.376>
VStem: 96 165<0 618 775.349 1252> 832 163<824.071 1120.21>
LayerCount: 2
Fore
SplineSet
832 976 m 0
 832 1187 637 1254 324 1254 c 0
 297 1254 288 1253 258 1252 c 1
 261 784 l 1
 365 764 447 739 533 739 c 0
 550 739 568 740 585 742 c 0
 732 762 832 799 832 976 c 0
686 589 m 1
 768 456 885 260 944 189 c 1
 963 172 995 134 1039 122 c 1
 978 -24 l 1
 917 -14 860 27 824 73 c 1
 722 190 557 480 498 582 c 1
 412 591 341 604 261 618 c 1
 261 0 l 1
 96 0 l 1
 96 1213 l 2
 96 1286 94 1338 90 1404 c 1
 134 1408 255 1421 319 1421 c 0
 582 1421 779 1406 907 1242 c 0
 957 1178 995 1083 995 991 c 0
 995 751 871 621 686 589 c 1
EndSplineSet
Validated: 1
EndChar

StartChar: S
Encoding: 83 83 42
Width: 1100
VWidth: 0
Flags: W
HStem: -10 165<345.752 724.469> 1251 168<316.832 703.64>
VStem: 46 166<277.016 450> 77 167<968.253 1182.26> 790 167<1104.34 1165.79> 829 168<253.008 561.312>
LayerCount: 2
Fore
SplineSet
260 773 m 1xe4
 164 820 77 919 77 1078 c 0
 77 1313 272 1419 494 1419 c 0
 497 1419 501 1419 504 1419 c 0
 738 1416 917 1333 957 1107 c 1
 790 1076 l 1
 750 1214 662 1251 500 1251 c 0
 393 1251 328 1228 280 1179 c 1
 255 1152 244 1120 244 1083 c 0xd8
 244 994 292 951 351 923 c 1
 474 862 638 863 777 798 c 1
 890 741 997 613 997 423 c 0
 997 130 800 -10 548 -10 c 2
 528 -10 l 1
 157 0 46 207 46 450 c 1
 212 450 l 1
 212 277 299 155 534 155 c 0
 749 155 829 258 829 414 c 0
 829 531 768 605 685 642 c 0
 563 696 400 708 260 773 c 1xe4
EndSplineSet
Validated: 1
EndChar

StartChar: T
Encoding: 84 84 43
Width: 1100
VWidth: 0
Flags: W
HStem: -10 21G<424 592> -10 21G<424 592> 1247 169<42 424 592 955.953>
VStem: 424 168<-10 1247>
LayerCount: 2
Fore
SplineSet
424 -10 m 1xb0
 424 1247 l 1
 216 1247 122 1246 42 1246 c 1
 42 1415 l 1
 170 1415 647 1416 844 1416 c 0
 921 1416 972 1403 991 1400 c 1
 956 1234 l 1
 956 1234 891 1247 839 1247 c 2
 592 1247 l 1
 592 -10 l 1
 424 -10 l 1xb0
EndSplineSet
Validated: 1
EndChar

StartChar: U
Encoding: 85 85 44
Width: 1100
VWidth: 0
Flags: W
HStem: -11 165<356.688 672.021> 1411 8G<71 240 812 982>
VStem: 65 167<311.039 1419> 803 169<307.281 1417.39>
LayerCount: 2
Fore
SplineSet
817 1431 m 1
 982 1417 l 1
 973 1352 972 1305 972 1246 c 0
 972 1088 974 949 974 828 c 2
 974 765 l 2
 974 512 971 271 853 130 c 0
 767 26 653 -6 518 -11 c 1
 195 -11 91 170 72 487 c 0
 67 569 65 702 65 849 c 0
 65 1036 68 1247 74 1419 c 1
 240 1419 l 1
 236 1239 232 996 232 794 c 0
 232 660 234 544 239 479 c 0
 258 250 344 154 504 154 c 1
 615 159 670 184 727 245 c 1
 797 326 808 550 808 765 c 0
 808 899 803 1059 803 1244 c 0
 803 1321 807 1363 817 1431 c 1
EndSplineSet
Validated: 1
EndChar

StartChar: V
Encoding: 86 86 45
Width: 1100
VWidth: 0
Flags: W
HStem: -5 21G<422.5 604>
VStem: 435 169<-4 181.631>
LayerCount: 2
Fore
SplineSet
435 -5 m 1
 410 204 108 1159 9 1402 c 1
 169 1460 l 1
 275 1185 417 755 520 354 c 1
 598 696 774 1174 880 1444 c 1
 1038 1386 l 1
 935 1134 623 214 604 -4 c 1
 435 -5 l 1
EndSplineSet
Validated: 1
EndChar

StartChar: W
Encoding: 87 87 46
Width: 1100
VWidth: 0
Flags: W
HStem: -3 21G<212.5 375.5 666.827 831.5> 1417 20G<83 201 824 944.108>
VStem: 235 138<-3 171.878> 441 175<809.296 1043> 671 143<-3 192.462> 856 163<1181.77 1399.25>
LayerCount: 2
Fore
SplineSet
373 -3 m 1
 235 -3 l 1
 190 182 62 1128 14 1402 c 1
 175 1437 l 1
 227 1151 283 718 331 370 c 1
 379 609 435 966 441 1043 c 1
 488 1043 580 1043 616 1056 c 1
 654 848 700 563 740 360 c 1
 776 672 792 1179 856 1433 c 1
 1019 1396 l 1
 964 1122 849 191 814 -3 c 1
 671 -3 l 1
 671 -3 565 467 531 668 c 1
 482 423 378 10 373 -3 c 1
EndSplineSet
Validated: 1
EndChar

StartChar: X
Encoding: 88 88 47
Width: 1100
VWidth: 0
Flags: W
LayerCount: 2
Fore
SplineSet
835 1461 m 1
 975 1368 l 1
 597 716 l 1
 777 425 879 233 1028 84 c 1
 919 -39 l 1
 759 121 663 290 503 554 c 1
 169 -34 l 1
 30 59 l 1
 400 713 l 1
 274 935 172 1179 25 1349 c 1
 156 1451 l 1
 292 1292 392 1058 500 871 c 1
 835 1461 l 1
EndSplineSet
Validated: 1
EndChar

StartChar: Y
Encoding: 89 89 48
Width: 1100
VWidth: 0
Flags: W
HStem: -7 21G<420 588>
VStem: 420 168<-7 697.852>
LayerCount: 2
Fore
SplineSet
420 -7 m 1
 420 147 l 2
 420 245 427 525 427 655 c 1
 344 776 90 1254 36 1370 c 1
 183 1448 l 1
 225 1364 427 976 518 827 c 1
 621 979 830 1367 870 1462 c 1
 1016 1376 l 1
 967 1274 890 1118 780 935 c 1
 689 792 615 671 595 643 c 1
 595 592 593 540 593 481 c 1
 590 337 588 182 588 136 c 2
 588 -7 l 1
 420 -7 l 1
EndSplineSet
Validated: 1
EndChar

StartChar: Z
Encoding: 90 90 49
Width: 1100
VWidth: 0
Flags: W
HStem: -3 167<277 970.841> 1254 166<94 794>
LayerCount: 2
Fore
SplineSet
130 -5 m 1
 30 90 l 1
 794 1254 l 1
 569 1254 214 1248 94 1248 c 1
 93 1415 l 1
 219 1415 663 1420 860 1420 c 0
 939 1420 987 1405 1007 1402 c 1
 1004 1366 992 1277 988 1252 c 1
 277 165 l 1
 788 164 l 2
 877 164 906 168 974 191 c 1
 1016 29 l 1
 969 12 929 -3 850 -3 c 2
 595 -3 l 2
 372 -3 188 -5 138 -5 c 2
 130 -5 l 1
EndSplineSet
Validated: 1
EndChar

StartChar: I
Encoding: 73 73 50
Width: 1100
VWidth: 0
Flags: W
HStem: 5 161<142 444 612 892> 1247 168<146 444 612 897>
VStem: 444 168<166 1255>
LayerCount: 2
Fore
SplineSet
140 1415 m 1
 304 1419 409 1419 510 1419 c 0
 620 1419 726 1418 897 1416 c 1
 897 1250 l 1
 768 1250 713 1256 612 1256 c 1
 612 166 l 1
 660 166 687 166 741 166 c 0
 788 166 837 165 892 162 c 1
 892 -1 l 1
 803 4 738 5 672 5 c 0
 623 5 571 4 509 4 c 0
 431 4 305 -3 142 -3 c 1
 142 159 l 1
 231 163 305 165 365 165 c 2
 444 165 l 1
 444 1255 l 1
 375 1254 257 1254 146 1247 c 1
 140 1415 l 1
EndSplineSet
Validated: 1
EndChar

StartChar: J
Encoding: 74 74 51
Width: 1100
VWidth: 0
Flags: W
HStem: -9 163<310.692 555.285> 1249 166<314.302 639.11 808 1003>
VStem: 43 168<270.368 463> 666 166<303.145 1213.67>
LayerCount: 2
Fore
SplineSet
436 -9 m 0
 147 -9 45 229 43 464 c 1
 211 463 l 1
 217 299 273 154 434 154 c 0
 629 154 666 356 666 718 c 0
 666 822 649 1098 636 1247 c 1
 585 1247 502 1249 463 1249 c 1
 354 1246 341 1237 313 1230 c 1
 273 1391 l 1
 305 1399 337 1412 461 1415 c 1
 613 1415 841 1414 1005 1414 c 1
 1003 1247 l 1
 953 1247 860 1248 808 1248 c 1
 825 1054 832 834 832 700 c 0
 832 314 782 -9 436 -9 c 0
EndSplineSet
Validated: 1
EndChar

StartChar: zero
Encoding: 48 48 52
Width: 1100
VWidth: 0
Flags: W
HStem: -17 164<410.648 600.792> 1236 164<422.813 592.953>
VStem: 101 166<491.698 988.017> 742 166<367.137 871.293>
LayerCount: 2
Fore
SplineSet
201 1164 m 1
 263 1300 367 1400 504 1400 c 0
 635 1400 739 1312 804 1186 c 1
 870 1064 908 898 908 706 c 0
 908 514 872 341 809 210 c 1
 744 81 645 -17 508 -17 c 0
 382 -17 271 60 205 181 c 0
 139 302 101 466 101 659 c 0
 101 855 136 1030 201 1164 c 1
735 875 m 1
 316 339 l 1
 344 237 430 147 508 147 c 0
 571 147 631 204 672 296 c 0
 714 391 742 557 742 727 c 0
 742 779 739 831 735 875 c 1
280 487 m 1
 696 1020 l 1
 663 1127 583 1236 505 1236 c 0
 450 1236 383 1166 342 1076 c 0
 301 988 267 797 267 640 c 0
 267 586 276 513 280 487 c 1
EndSplineSet
Validated: 1
EndChar

StartChar: period
Encoding: 46 46 53
Width: 1100
VWidth: 26
Flags: W
HStem: 0 269<417 668>
VStem: 417 251<0 269>
LayerCount: 2
Fore
SplineSet
417 269 m 1
 668 269 l 1
 668 0 l 1
 417 0 l 1
 417 269 l 1
EndSplineSet
Validated: 1
EndChar

StartChar: comma
Encoding: 44 44 54
Width: 1100
VWidth: 26
Flags: W
HStem: -393 667
VStem: 421 258<5 274> 509 170<-164.236 5>
LayerCount: 2
Fore
SplineSet
421 274 m 1xc0
 672 274 l 1
 679 11 l 1
 679 8 l 2xc0
 679 -189 595 -317 428 -393 c 1
 367 -254 l 1
 459 -203 509 -133 509 5 c 1xa0
 421 5 l 1
 421 274 l 1xc0
EndSplineSet
Validated: 1
EndChar

StartChar: ae
Encoding: 230 230 65
Width: 1100
VWidth: 6
Flags: W
HStem: 4 158<226.037 401.669 628.828 846.862> 465 150<614 845> 508 153<239.84 459.103> 869 154<206.656 411.379 648.541 807.909>
VStem: 43 154<188.584 466.602> 461 153<226.97 465 629 818.014> 845 151<623 834.062>
LayerCount: 2
Fore
SplineSet
525 97 m 1xde
 495 63 435 4 332 4 c 0
 269 4 204 19 150 57 c 0
 69 114 43 211 43 309 c 0
 43 476 107 661 311 661 c 0xbe
 388 661 423 645 461 629 c 1
 461 726 439 870 320 870 c 2
 311 870 l 2
 259 870 229 867 163 767 c 1
 153 753 l 1
 36 827 l 1
 47 845 l 1
 132 979 197 1023 320 1023 c 0
 376 1023 422 1015 483 968 c 1
 502 952 521 928 533 909 c 1
 574 970 622 1023 744 1023 c 0
 988 1023 996 674 996 475 c 1
 614 465 l 1
 614 220 l 1
 639 191 690 161 753 161 c 0
 812 161 863 217 901 270 c 1
 1008 170 l 1
 915 44 811 5 734 5 c 0
 653 5 581 38 525 97 c 1xde
614 615 m 1xde
 703 621 761 623 845 623 c 1
 845 729 823 869 753 869 c 0
 625 869 614 777 614 615 c 1xde
197 324 m 0
 197 216 238 162 321 162 c 0
 411 162 450 299 461 327 c 1
 461 474 l 1
 418 499 376 508 322 508 c 0xbe
 244 508 197 425 197 324 c 0
EndSplineSet
Validated: 1
EndChar

StartChar: exclam
Encoding: 33 33 68
Width: 1100
VWidth: 0
Flags: W
HStem: 0 270<408 658> 1356 20G<435 633>
VStem: 408 250<0 270> 435 198<557.952 1376> 451 166<463 1280.84>
LayerCount: 2
Fore
SplineSet
408 270 m 1xe0
 658 270 l 1
 658 0 l 1
 408 0 l 1
 408 270 l 1xe0
633 1376 m 1xd0
 617 463 l 1
 451 461 l 1xc8
 435 1376 l 1
 633 1376 l 1xd0
EndSplineSet
Validated: 1
EndChar

StartChar: quotesingle
Encoding: 39 39 70
Width: 1100
VWidth: -25
Flags: W
HStem: 816 651
VStem: 572 253<1278.81 1435.87>
LayerCount: 2
Fore
SplineSet
572 1467 m 1
 825 1434 l 1
 789 1135 607 925 478 816 c 1
 342 956 l 1
 409 1013 548 1239 572 1467 c 1
EndSplineSet
Validated: 1
EndChar

StartChar: Aring
Encoding: 197 197 76
Width: 1100
VWidth: -8
Flags: W
HStem: 355 178<364.946 712> 1571 124<465.557 626.087>
VStem: 331 129<1439.93 1560.63> 632 132<1439.93 1561.04>
LayerCount: 2
Fore
SplineSet
712 534 m 1
 544 1070 l 1
 362 512 l 1
 425 526 478 529 565 533 c 1
 712 534 l 1
460 1502 m 0
 460 1467 496 1430 547 1430 c 0
 598 1430 632 1467 632 1502 c 0
 632 1537 599 1571 547 1571 c 0
 495 1571 460 1537 460 1502 c 0
331 1500 m 0
 331 1611 433 1695 548 1695 c 0
 663 1695 764 1611 764 1500 c 0
 764 1417 709 1350 633 1321 c 1
 1048 12 l 1
 876 -21 l 1
 772 355 l 1
 624 352 419 353 302 324 c 1
 195 -26 l 1
 25 0 l 1
 456 1324 l 1
 384 1355 331 1421 331 1500 c 0
EndSplineSet
Validated: 1
EndChar

StartChar: ccedilla
Encoding: 231 231 81
Width: 1100
VWidth: 12
Flags: W
HStem: -358 125<455.445 660.66> -119 269<503.228 641.168> 865 153<373.88 719.499>
VStem: 91 159<292.678 736.59> 664 136<-226.217 -127.936>
LayerCount: 2
Fore
SplineSet
250 527 m 0
 250 157 457 150 567 150 c 2
 580 150 l 2
 736 150 811 215 863 302 c 1
 989 211 l 1
 959 172 877 19 645 -4 c 1
 645 -19 l 1
 742 -24 800 -86 800 -190 c 0
 800 -291 700 -358 616 -358 c 0
 550 -358 478 -333 422 -297 c 1
 460 -191 l 1
 493 -209 533 -233 584 -233 c 0
 620 -233 661 -213 664 -175 c 1
 664 -173 l 2
 664 -144 626 -119 578 -119 c 0
 530 -119 528 -126 500 -136 c 1
 500 -4 l 1
 418 2 332 20 261 73 c 1
 131 174 91 328 91 527 c 0
 91 894 269 1018 584 1018 c 0
 679 1018 753 994 813 948 c 0
 874 901 905 841 927 789 c 1
 773 729 l 1
 762 770 733 865 573 865 c 0
 352 865 250 766 250 527 c 0
EndSplineSet
Validated: 1
EndChar

StartChar: AE
Encoding: 198 198 82
Width: 1100
VWidth: 0
Flags: W
HStem: -5 169<651.238 989> 29 135<655.453 989> 535 153<347.568 451> 742 166<604 905> 1273 169<562 1008>
LayerCount: 2
Fore
SplineSet
451 688 m 1x38
 451 703 l 1
 439 831 427 967 419 1087 c 1
 346 681 l 1
 380 684 378 686 434 688 c 1
 451 688 l 1x38
1029 29 m 1x78
 982 12 942 -5 863 -5 c 2
 504 -5 l 1
 504 131 l 1
 494 263 475 397 463 532 c 1
 440 534 420 535 401 535 c 0
 373 535 348 532 315 524 c 1
 161 -17 l 1
 24 39 l 1
 159 503 252 971 352 1439 c 1
 439 1439 l 1
 514 1442 622 1442 735 1442 c 2
 1008 1442 l 1
 1008 1275 l 1
 990 1275 l 2
 903 1275 883 1273 754 1273 c 2
 562 1273 l 1
 562 1224 l 2
 562 1201 580 989 588 903 c 1
 642 904 705 908 794 908 c 2
 905 908 l 1
 905 742 l 1
 794 742 l 2
 708 742 651 738 604 737 c 1
 606 727 606 716 606 706 c 1
 633 468 649 249 654 164 c 1
 989 164 l 1xb8
 1029 29 l 1x78
EndSplineSet
Validated: 1
EndChar

StartChar: Ccedilla
Encoding: 199 199 83
Width: 1100
VWidth: 6
Flags: W
HStem: -403 125<485.445 690.66> 0 164<404.286 530 676 741.221> 1256 168<440.84 723.776>
VStem: 60 167<385.758 982.633> 530 145<-70.4613 5.70376> 694 136<-271.217 -172.936>
LayerCount: 2
Fore
SplineSet
598 1256 m 0
 477 1256 384 1185 334 1112 c 1
 287 1041 227 914 227 681 c 0
 227 502 259 343 362 244 c 0
 427 181 478 164 564 164 c 2
 578 164 l 1
 732 169 823 251 877 373 c 1
 1023 290 l 1
 955 142 838 28 676 2 c 1
 675 -18 675 -62 675 -64 c 1
 772 -69 830 -131 830 -235 c 0
 830 -336 730 -403 646 -403 c 0
 580 -403 508 -378 452 -342 c 1
 490 -236 l 1
 523 -254 563 -278 614 -278 c 0
 650 -278 691 -258 694 -220 c 1
 694 -218 l 2
 694 -189 656 -164 608 -164 c 0
 560 -164 558 -171 530 -181 c 1
 530 0 l 1
 431 10 327 44 248 124 c 1
 122 257 60 436 60 679 c 0
 60 956 144 1126 199 1209 c 0
 275 1325 418 1424 602 1424 c 0
 749 1424 883 1332 975 1159 c 1
 833 1070 l 1
 769 1201 688 1256 598 1256 c 0
EndSplineSet
Validated: 1
EndChar

StartChar: quotedbl
Encoding: 34 34 92
Width: 1100
VWidth: -25
Flags: W
HStem: 800 662
VStem: 276 211<969.534 1452.38> 710 211<967.534 1450.38>
LayerCount: 2
Fore
SplineSet
710 1350 m 0
 710 1385 706 1417 702 1450 c 1
 911 1462 l 1
 917 1421 921 1386 921 1343 c 0
 921 1075 884 932 797 800 c 1
 644 888 l 1
 684 951 710 1139 710 1350 c 0
276 1352 m 0
 276 1387 272 1419 268 1452 c 1
 477 1464 l 1
 483 1423 487 1388 487 1345 c 0
 487 1077 450 934 363 802 c 1
 210 890 l 1
 250 953 276 1141 276 1352 c 0
EndSplineSet
Validated: 1
EndChar

StartChar: numbersign
Encoding: 35 35 93
Width: 1100
VWidth: 6
Flags: W
HStem: 356 147<99.1238 225.523> 385 158<411 575 742 921> 790 159<112.652 275 455 619 790 925> 1312 20G<414 442.5 675.5 848>
VStem: 310 163<957.794 1331> 529 164<-21 367.841>
LayerCount: 2
Fore
SplineSet
361 -19 m 1x7c
 192 -18 l 1
 199 95 209 208 228 375 c 1
 175 374 132 365 104 356 c 1
 54 503 l 1xbc
 110 523 173 529 239 534 c 1
 254 614 266 711 275 790 c 1
 261 790 l 1
 196 786 146 781 111 768 c 1
 58 915 l 1
 123 940 206 944 290 949 c 1
 299 1025 310 1145 310 1146 c 0
 318 1217 318 1278 321 1331 c 1
 350 1331 395 1332 433 1332 c 0
 452 1332 469 1332 483 1331 c 1
 480 1279 481 1212 473 1133 c 1
 472 1113 461 1014 455 955 c 1
 637 955 l 1
 656 1118 666 1207 685 1326 c 1
 848 1324 l 1
 823 1203 809 1114 790 956 c 1
 925 956 l 1
 925 795 l 1
 897 796 864 799 772 799 c 1
 764 720 752 629 742 544 c 1
 921 544 l 1
 921 383 l 1
 894 384 838 386 724 386 c 1
 702 189 702 99 693 -22 c 1
 529 -21 l 1
 540 91 555 209 575 385 c 1
 546 385 l 2
 492 385 442 383 392 380 c 1
 377 230 361 -19 361 -19 c 1x7c
437 795 m 1
 431 715 420 623 411 541 c 1
 452 543 483 543 517 543 c 2
 591 543 l 1x7c
 602 627 610 720 619 798 c 1
 548 798 505 796 437 795 c 1
EndSplineSet
Validated: 1
EndChar

StartChar: dollar
Encoding: 36 36 94
Width: 1100
VWidth: 0
Flags: W
HStem: 57 160<334.154 400 550 693.625> 671 147<343.434 450> 1114 159<638 722.6> 1130 156<326.953 486> 1391 20G<506.4 648>
VStem: 95 172<289.279 439> 122 158<875.871 1082.68> 770 144<1013.81 1068.36> 776 164<289.909 523.603>
LayerCount: 2
Fore
SplineSet
460 818 m 1xda
 486 1130 l 1
 382 1123 280 1098 280 990 c 0
 280 879 340 864 392 839 c 0
 410 831 442 825 460 818 c 1xda
586 628 m 1
 550 207 l 1
 672 220 776 290 776 403 c 0xc880
 776 505 692 582 618 615 c 0
 608 619 596 624 586 628 c 1
508 1411 m 1
 648 1400 l 1
 638 1273 l 1
 772 1242 888 1162 914 1017 c 1
 770 985 l 1xeb
 763 1069 670 1110 626 1114 c 1
 600 790 l 1
 642 780 702 762 744 743 c 1
 845 693 940 581 940 415 c 0
 940 166 756 49 540 43 c 1
 536 -13 530 -69 526 -125 c 1
 386 -114 l 1
 400 57 l 1
 186 109 95 261 95 439 c 1
 267 439 l 1xec80
 267 327 314 246 412 217 c 1
 450 671 l 1
 404 685 333 698 285 720 c 1
 200 761 122 848 122 987 c 0
 122 1186 308 1281 498 1286 c 1xda
 508 1411 l 1
EndSplineSet
Validated: 1
EndChar

StartChar: oe
Encoding: 339 339 95
Width: 1100
VWidth: 6
Flags: W
HStem: 0 154<256.141 421.389 624.569 815.768> 486 156<608 835> 863 154<275.121 434.291 625.104 781.757>
VStem: 44 152<230.029 754.4> 455 153<186.445 474 631 843.974>
LayerCount: 2
Fore
SplineSet
350 154 m 0
 402 154 453 227 453 286 c 2
 455 754 l 2
 455 776 441 863 348 863 c 0
 254 863 199 687 196 474 c 0
 196 468 196 462 196 456 c 0
 196 385 209 269 261 191 c 0
 279 164 317 154 350 154 c 0
608 652 m 2
 608 631 l 1
 696 636 759 635 835 642 c 1
 829 746 789 862 711 862 c 0
 671 862 632 851 619 805 c 1
 608 770 608 709 608 652 c 2
990 187 m 1
 990 187 931 0 728 0 c 0
 636 0 560 40 507 95 c 1
 483 63 430 0 356 0 c 0
 300 0 231 5 151 91 c 0
 48 202 44 380 44 459 c 0
 44 505 45 585 55 635 c 1
 76 758 138 1017 347 1017 c 0
 426 1017 465 990 506 954 c 0
 517 945 524 937 529 931 c 1
 552 968 596 1018 711 1018 c 0
 912 1018 987 796 995 570 c 1
 995 486 l 1
 927 486 l 1
 827 483 690 478 608 474 c 1
 606 215 l 1
 645 176 693 154 732 154 c 0
 807 154 835 221 851 256 c 1
 990 187 l 1
EndSplineSet
Validated: 1
EndChar

StartChar: bracketleft
Encoding: 91 91 96
Width: 1100
VWidth: 66
Flags: W
HStem: -259 162<492 868> 1316 154<492 824.303>
VStem: 332 160<-101 1316>
LayerCount: 2
Fore
SplineSet
824 1483 m 1
 856 1329 l 1
 755 1320 659 1320 492 1316 c 1
 492 -101 l 1
 588 -98 693 -97 712 -97 c 2
 725 -97 l 2
 788 -97 854 -103 868 -106 c 1
 868 -268 l 1
 843 -265 803 -259 732 -259 c 0
 673 -259 427 -264 334 -264 c 1
 334 -86 336 -3 336 177 c 0
 336 267 335 388 334 567 c 0
 334 742 332 918 332 1049 c 2
 332 1470 l 1
 425 1470 669 1477 720 1477 c 1
 792 1480 801 1481 824 1483 c 1
EndSplineSet
Validated: 1
EndChar

StartChar: bracketright
Encoding: 93 93 97
Width: 1100
VWidth: 66
Flags: W
HStem: -259 162<135 511> 1329 154<176.021 511>
VStem: 511 160<-101 1316>
LayerCount: 2
Fore
SplineSet
179 1483 m 1
 202 1481 211 1480 283 1477 c 1
 334 1477 578 1470 671 1470 c 1
 671 1049 l 2
 671 918 669 742 669 567 c 0
 668 388 667 267 667 177 c 0
 667 -3 669 -86 669 -264 c 1
 576 -264 330 -259 271 -259 c 0
 200 -259 160 -265 135 -268 c 1
 135 -106 l 1
 149 -103 215 -97 278 -97 c 2
 291 -97 l 2
 310 -97 415 -98 511 -101 c 1
 511 1316 l 1
 344 1320 248 1320 147 1329 c 1
 179 1483 l 1
EndSplineSet
Validated: 1
EndChar

StartChar: parenleft
Encoding: 40 40 98
Width: 1100
VWidth: 66
Flags: W
HStem: -262 166<734.166 912> 1326 158<709.982 913>
VStem: 268 160<306.626 948.43>
LayerCount: 2
Fore
SplineSet
913 1326 m 1
 910 1326 907 1326 904 1326 c 0
 565 1326 428 992 428 612 c 0
 428 232 616 -95 912 -96 c 1
 912 -262 l 1
 552 -259 268 55 268 612 c 0
 268 1144 482 1471 913 1484 c 1
 913 1326 l 1
EndSplineSet
Validated: 1
EndChar

StartChar: parenright
Encoding: 41 41 99
Width: 1100
VWidth: 66
Flags: W
HStem: -262 166<167 344.834> 1326 158<166 369.018>
VStem: 651 160<306.626 948.43>
LayerCount: 2
Fore
SplineSet
166 1326 m 1
 166 1484 l 1
 597 1471 811 1144 811 612 c 0
 811 55 527 -259 167 -262 c 1
 167 -96 l 1
 463 -95 651 232 651 612 c 0
 651 992 514 1326 175 1326 c 0
 172 1326 169 1326 166 1326 c 1
EndSplineSet
Validated: 1
EndChar

StartChar: hyphen
Encoding: 45 45 100
Width: 1100
VWidth: 6
Flags: W
HStem: 448 152<128 959>
LayerCount: 2
Fore
SplineSet
122 591 m 1
 258 598 414 600 516 600 c 0
 557 600 596 600 635 600 c 0
 717 600 834 599 941 598 c 1
 959 598 l 1
 959 445 l 1
 941 445 l 1
 806 448 639 448 514 448 c 0
 447 448 280 446 128 438 c 1
 128 522 l 1
 122 591 l 1
EndSplineSet
Validated: 1
EndChar

StartChar: plus
Encoding: 43 43 101
Width: 1100
VWidth: 6
Flags: W
HStem: 443 155<81 456 616 990>
VStem: 459 154<2 445 601 984>
LayerCount: 2
Fore
SplineSet
81 589 m 1
 138 600 206 601 299 601 c 0
 345 601 398 601 459 601 c 1
 459 985 l 1
 613 984 l 1
 613 593 l 1
 616 600 l 1
 743 598 846 598 909 598 c 0
 936 598 963 598 990 598 c 1
 990 443 l 1
 975 443 l 2
 969 443 826 443 616 446 c 1
 617 0 l 1
 456 2 l 1
 456 445 l 1
 257 445 149 444 81 434 c 1
 81 589 l 1
EndSplineSet
Validated: 1
EndChar

StartChar: less
Encoding: 60 60 102
Width: 1100
VWidth: 4
Flags: W
LayerCount: 2
Fore
SplineSet
894 75 m 1
 769 -30 l 1
 745 6 701 42 653 80 c 1
 558 159 177 435 151 453 c 1
 151 573 l 1
 308 702 625 957 758 1035 c 0
 788 1052 809 1066 844 1077 c 1
 891 920 l 1
 730 835 495 640 336 517 c 1
 479 416 802 207 894 75 c 1
EndSplineSet
Validated: 1
EndChar

StartChar: greater
Encoding: 62 62 103
Width: 1100
VWidth: 6
Flags: W
LayerCount: 2
Fore
SplineSet
804 577 m 1
 804 460 l 1
 708 391 288 21 110 -44 c 1
 42 95 l 1
 217 189 478 399 619 512 c 1
 493 602 249 780 135 886 c 0
 108 911 86 930 67 960 c 1
 185 1062 l 1
 291 936 717 644 804 577 c 1
EndSplineSet
Validated: 1
EndChar

StartChar: slash
Encoding: 47 47 104
Width: 1100
VWidth: 60
Flags: W
HStem: 1418 20G<705 810.034>
LayerCount: 2
Fore
SplineSet
120 -80 m 1
 126 -67 154 -10 172 32 c 0
 268 257 651 1152 759 1438 c 1
 907 1380 l 1
 769 1028 388 141 268 -141 c 1
 120 -80 l 1
EndSplineSet
Validated: 1
EndChar

StartChar: one
Encoding: 49 49 105
Width: 1100
VWidth: 0
Flags: W
HStem: -10 21G<546.965 722> -10 21G<546.965 722> 1395 20G<537.5 615.469>
VStem: 547 175<-10 1129>
LayerCount: 2
Fore
SplineSet
542 1415 m 1xb0
 722 1366 l 1
 722 -10 l 1
 547 -10 l 1
 545 1129 l 1
 472 1038 323 928 184 850 c 1
 96 997 l 1
 424 1162 533 1399 542 1415 c 1xb0
EndSplineSet
Validated: 1
EndChar

StartChar: two
Encoding: 50 50 106
Width: 1100
VWidth: 0
Flags: W
HStem: 2 164<295 922> 1230 167<366.036 650.631>
VStem: 119 169<166 266.007 917.578 1147.71> 731 170<857.047 1146.17>
LayerCount: 2
Fore
SplineSet
302 917 m 1
 142 878 l 1
 132 909 122 959 120 998 c 0
 120 1008 119 1016 119 1025 c 0
 119 1263 296 1397 508 1397 c 0
 764 1397 901 1271 901 993 c 0
 901 857 817 736 731 645 c 1
 640 554 513 462 404 355 c 0
 328 280 297 205 295 166 c 1
 922 168 l 1
 922 2 l 1
 109 2 l 1
 109 34 107 69 107 104 c 0
 107 132 109 160 114 190 c 0
 133 294 182 385 298 493 c 0
 411 598 519 669 602 750 c 1
 684 828 731 926 731 991 c 0
 731 1115 671 1230 516 1230 c 0
 377 1230 288 1155 288 984 c 0
 288 962 298 929 302 917 c 1
EndSplineSet
Validated: 1
EndChar

StartChar: three
Encoding: 51 51 107
Width: 1100
VWidth: 0
Flags: W
HStem: -24 166<323.658 643.427> 713 169<344 570.808> 1244 168<348.055 608.344>
VStem: 63 169<232.762 358> 668 169<967.038 1187.72> 750 171<245.911 574.817>
LayerCount: 2
Fore
SplineSet
63 358 m 1xf4
 232 360 l 1
 233 236 322 142 479 142 c 0
 648 142 750 242 750 400 c 0xf4
 750 518 715 600 611 658 c 0
 514 713 430 713 344 713 c 1
 344 882 l 1
 361 882 l 2
 402 882 455 884 532 910 c 1
 622 942 668 992 668 1100 c 0
 668 1183 577 1244 469 1244 c 0
 333 1244 271 1120 252 1081 c 1
 100 1165 l 1
 105 1181 198 1412 458 1412 c 2
 470 1412 l 2
 662 1412 837 1309 837 1105 c 0xf8
 837 968 782 854 685 810 c 1
 857 727 921 584 921 402 c 0
 921 311 891 193 819 108 c 0
 748 26 649 -24 479 -24 c 0
 221 -24 63 140 63 358 c 1xf4
EndSplineSet
Validated: 1
EndChar

StartChar: four
Encoding: 52 52 108
Width: 1100
VWidth: 0
Flags: W
HStem: -2 21G<627 794> 442 168<287 627 794 931> 1377 20G<608 794>
VStem: 627 167<-2 442 610 1059 1301.41 1397>
LayerCount: 2
Fore
SplineSet
63 581 m 1
 99 630 596 1223 620 1397 c 1
 794 1397 l 1
 794 610 l 1
 931 610 l 1
 931 445 l 1
 794 445 l 1
 794 -2 l 1
 627 -2 l 1
 627 442 l 1
 128 442 l 1
 63 581 l 1
627 610 m 1
 627 1059 l 1
 549 921 385 714 287 610 c 1
 627 610 l 1
EndSplineSet
Validated: 1
EndChar

StartChar: five
Encoding: 53 53 109
Width: 1100
VWidth: 0
Flags: W
HStem: -2 167<353.719 642.996> 782 169<342.107 655.551> 1211 167<319 809>
VStem: 765 169<289.547 671.877>
LayerCount: 2
Fore
SplineSet
499 782 m 0
 359 782 272 685 254 667 c 1
 119 724 l 1
 168 1378 l 1
 809 1376 l 1
 809 1211 l 1
 319 1211 l 1
 295 893 l 1
 345 923 413 951 496 951 c 0
 557 951 629 940 702 905 c 1
 821 842 934 697 934 482 c 0
 934 161 742 0 485 -2 c 1
 483 -2 l 2
 296 -2 168 122 93 247 c 1
 236 341 l 1
 292 249 366 165 486 165 c 0
 665 165 765 277 765 479 c 0
 765 637 710 715 627 754 c 0
 582 775 538 782 499 782 c 0
EndSplineSet
Validated: 1
EndChar

StartChar: six
Encoding: 54 54 110
Width: 1100
VWidth: 0
Flags: W
HStem: -3 164<360.147 667.847> 632 166<379.347 677.784> 1257 157<609.25 704.835>
VStem: 770 170<256.424 542.563>
LayerCount: 2
Fore
SplineSet
255 431 m 1
 274 254 360 161 501 161 c 0
 655 161 770 248 770 394 c 0
 770 540 679 632 530 632 c 0
 388 632 272 522 255 431 c 1
743 1257 m 1
 519 1216 390 1065 319 897 c 1
 292 831 281 764 271 700 c 1
 329 749 380 798 540 798 c 0
 778 798 940 641 940 394 c 0
 940 123 754 -3 501 -3 c 0
 222 -3 81 222 81 515 c 0
 81 642 101 805 163 963 c 0
 244 1168 392 1353 701 1414 c 1
 743 1257 l 1
EndSplineSet
Validated: 1
EndChar

StartChar: seven
Encoding: 55 55 111
Width: 1100
VWidth: 0
Flags: W
HStem: 1216 160<224.967 787>
VStem: 315 177<0 356.731>
LayerCount: 2
Fore
SplineSet
142 1382 m 1
 232 1382 347 1376 429 1376 c 0
 591 1376 768 1384 921 1384 c 2
 964 1384 l 1
 1014 1296 l 1
 695 795 492 486 492 0 c 1
 315 0 l 1
 315 435 478 793 787 1220 c 1
 694 1217 572 1216 475 1216 c 0
 408 1216 312 1216 245 1219 c 1
 225 1179 214 1141 200 1095 c 1
 56 1160 l 1
 76 1223 114 1302 142 1382 c 1
EndSplineSet
Validated: 1
EndChar

StartChar: eight
Encoding: 56 56 112
Width: 1100
VWidth: 0
Flags: W
HStem: -10 167<350.756 674.496> 1216 168<358.416 667.164>
VStem: 68 170<268.327 546.06> 133 168<976.419 1161.86> 713 169<974.041 1169.56> 771 169<251.567 550.261>
LayerCount: 2
Fore
SplineSet
316 791 m 1xe4
 222 833 133 944 133 1054 c 0
 133 1255 313 1384 514 1384 c 0
 738 1384 882 1228 882 1061 c 0xd8
 882 929 787 836 699 789 c 1
 843 710 940 599 940 399 c 0
 940 163 784 -10 530 -10 c 0
 253 -10 68 150 68 404 c 0
 68 599 193 724 316 791 c 1xe4
301 1058 m 0
 301 987 404 922 514 878 c 1
 615 918 713 982 713 1064 c 0
 713 1134 676 1216 513 1216 c 0
 385 1216 301 1160 301 1058 c 0
238 417 m 0xe4
 238 247 365 157 512 157 c 0
 678 157 771 245 771 415 c 0
 771 546 682 626 509 703 c 1
 368 639 238 557 238 417 c 0xe4
EndSplineSet
Validated: 1
EndChar

StartChar: nine
Encoding: 57 57 113
Width: 1100
VWidth: 0
Flags: W
HStem: -2 167<310.868 642.573> 652 166<344.437 657.375> 1233 160<345.341 645.5>
VStem: 50 164<277.983 340.196> 83 170<898.32 1145.29> 782 167<331.88 760>
LayerCount: 2
Fore
SplineSet
83 1022 m 0xec
 83 1277 255 1393 493 1393 c 0
 649 1393 746 1343 801 1286 c 0
 930 1151 949 961 949 689 c 0
 949 342 872 -2 501 -2 c 0
 239 -2 120 121 50 336 c 1
 214 384 l 1xf4
 262 229 305 165 501 165 c 0
 737 165 782 401 782 645 c 0
 782 684 780 723 779 760 c 1
 712 692 635 652 497 652 c 0
 268 652 83 781 83 1022 c 0xec
519 1233 m 0
 380 1233 253 1171 253 1019 c 0xec
 253 880 384 818 512 818 c 0
 649 818 739 919 760 993 c 1
 746 1111 644 1233 519 1233 c 0
EndSplineSet
Validated: 1
EndChar

StartChar: equal
Encoding: 61 61 114
Width: 1100
VWidth: 6
Flags: W
HStem: 189 160<70 915> 652 162<71.7699 906.013> 667 158<68 409.491 423.172 915>
LayerCount: 2
Fore
SplineSet
68 825 m 1xa0
 211 816 322 814 416 814 c 0
 608 814 717 823 915 823 c 1
 915 664 l 1
 722 664 611 652 414 652 c 0xc0
 318 652 210 658 65 667 c 1
 65 720 65 774 68 825 c 1xa0
70 349 m 1
 210 357 322 357 436 357 c 0
 615 357 749 349 917 349 c 1
 915 188 l 1
 741 188 597 193 414 193 c 0
 364 193 314 194 262 194 c 0
 202 194 139 193 70 189 c 1
 70 349 l 1
EndSplineSet
Validated: 1
EndChar

StartChar: backslash
Encoding: 92 92 115
Width: 1100
VWidth: 60
Flags: W
HStem: 1418 20G<196.966 302>
LayerCount: 2
Fore
SplineSet
886 -80 m 1
 738 -141 l 1
 618 141 238 1028 100 1380 c 1
 248 1438 l 1
 356 1152 738 257 836 32 c 1
 852 -10 880 -67 886 -80 c 1
EndSplineSet
Validated: 1
EndChar

StartChar: asciicircum
Encoding: 94 94 116
Width: 1100
VWidth: -10
Flags: W
HStem: 467 634
LayerCount: 2
Fore
SplineSet
500 1101 m 1
 958 590 l 1
 838 467 l 1
 502 829 l 1
 147 467 l 1
 32 576 l 1
 500 1101 l 1
EndSplineSet
Validated: 1
EndChar

StartChar: underscore
Encoding: 95 95 117
Width: 1100
VWidth: 41
Flags: W
HStem: -236 152<66 1012>
LayerCount: 2
Fore
SplineSet
66 -84 m 1
 1012 -84 l 1
 1012 -236 l 1
 62 -236 l 1
 66 -84 l 1
EndSplineSet
Validated: 1
EndChar

StartChar: grave
Encoding: 96 96 118
Width: 1100
VWidth: -25
Flags: W
HStem: 784 666
VStem: 279 203<1286.83 1403.53>
LayerCount: 2
Fore
SplineSet
504 1352 m 0
 566 1150 692 966 750 918 c 1
 614 784 l 1
 492 885 383 1027 304 1283 c 0
 292 1324 285 1359 279 1400 c 1
 482 1450 l 1
 488 1417 494 1386 504 1352 c 0
EndSplineSet
Validated: 1
EndChar

StartChar: question
Encoding: 63 63 119
Width: 1100
VWidth: 0
Flags: W
HStem: 0 270<353 603> 1182 155<365.349 650.299>
VStem: 135 157<878.836 1109.3> 353 250<0 270> 387 175<431 598.664> 708 160<876.981 1122.17>
LayerCount: 2
Fore
SplineSet
353 270 m 1xf4
 603 270 l 1
 603 0 l 1
 353 0 l 1
 353 270 l 1xf4
525 1337 m 0
 756 1337 868 1205 868 993 c 0
 868 834 749 736 671 670 c 0
 619 626 562 559 562 477 c 2
 562 431 l 1
 387 431 l 1
 387 475 l 2xec
 387 595 439 673 523 747 c 0
 623 836 708 883 708 989 c 0
 708 1101 649 1182 517 1182 c 0
 393 1182 294 1121 292 989 c 0
 292 942 321 896 347 864 c 1
 213 774 l 1
 172 834 135 899 135 984 c 0
 135 1227 318 1337 525 1337 c 0
EndSplineSet
Validated: 1
EndChar

StartChar: asciitilde
Encoding: 126 126 120
Width: 1100
VWidth: -12
Flags: W
HStem: 422 153<628.995 810.693> 596 154<255.74 453.755>
VStem: 869 143<637.125 693.115>
LayerCount: 2
Fore
SplineSet
355 750 m 0
 511 750 638 575 728 575 c 0
 815 575 855 683 869 748 c 1
 1012 687 l 1
 989 599 927 422 724 422 c 0
 558 422 457 596 345 596 c 0
 289 596 228 538 180 451 c 1
 51 542 l 1
 121 677 199 750 355 750 c 0
EndSplineSet
Validated: 1
EndChar

StartChar: Oslash
Encoding: 216 216 127
Width: 1100
VWidth: 0
Flags: W
HStem: -9 170<398.951 680.754> 1277 170<413.756 660.828>
VStem: 44 167<364.523 964.234> 856 166<400.464 1051.64>
LayerCount: 2
Fore
SplineSet
195 138 m 1
 193 140 191 144 189 146 c 0
 95 268 44 432 44 633 c 0
 44 975 136 1158 210 1264 c 0
 279 1364 397 1444 561 1447 c 0
 602 1447 661 1442 724 1414 c 1
 737 1446 748 1474 757 1500 c 1
 912 1437 l 1
 897 1398 881 1354 862 1307 c 1
 949 1201 1020 1018 1022 703 c 1
 1022 691 l 2
 1022 509 975 343 925 239 c 1
 846 79 708 -9 535 -9 c 0
 466 -9 395 5 331 34 c 1
 319 8 310 -17 301 -39 c 1
 146 27 l 1
 152 40 177 93 195 138 c 1
272 322 m 1
 378 574 545 967 662 1256 c 1
 633 1271 601 1277 566 1277 c 0
 466 1277 407 1247 346 1162 c 0
 274 1063 211 882 211 638 c 0
 211 542 231 410 272 322 c 1
785 1118 m 1
 663 818 508 455 397 190 c 1
 435 171 479 161 535 161 c 0
 657 161 734 231 781 324 c 1
 823 395 856 575 856 694 c 1
 856 694 852 983 793 1104 c 0
 791 1108 787 1114 785 1118 c 1
EndSplineSet
Validated: 1
EndChar

StartChar: multiply
Encoding: 215 215 128
Width: 1100
VWidth: 6
Flags: W
LayerCount: 2
Fore
SplineSet
401 522 m 1
 281 642 191 748 83 848 c 1
 182 971 l 1
 291 870 403 753 516 636 c 1
 694 806 835 945 852 963 c 1
 956 840 l 1
 937 821 800 682 629 515 c 1
 808 324 856 261 956 161 c 1
 836 63 l 1
 756 167 678 239 514 407 c 1
 362 258 252 132 206 82 c 1
 89 180 l 1
 149 252 258 380 401 522 c 1
EndSplineSet
Validated: 1
EndChar

StartChar: oslash
Encoding: 248 248 140
Width: 1100
VWidth: 6
Flags: W
HStem: -9 21G<119.654 159.2> -9 21G<119.654 159.2> 1 155<357.508 650.662> 878 154<372.497 658.732>
VStem: 92 158<358.327 736.885> 763 159<279.587 664.228>
LayerCount: 2
Fore
SplineSet
674 215 m 1x3c
 739 276 763 382 763 530 c 0
 763 536 763 542 763 548 c 0
 763 590 760 630 752 667 c 1
 340 212 l 1
 381 176 436 156 504 156 c 0
 580 157 624 173 674 215 c 1x3c
875 804 m 1
 908 727 922 629 922 543 c 0
 922 258 826 1 504 1 c 2
 502 1 l 1x3c
 388 2 298 33 232 91 c 1
 141 -9 l 1x9c
 30 95 l 1
 139 218 l 1
 108 287 92 370 92 464 c 0
 92 756 194 1032 486 1032 c 0
 618 1032 712 1001 780 940 c 1
 893 1067 l 1
 1013 956 l 1
 875 804 l 1
261 356 m 1
 675 821 l 1
 638 857 587 878 520 878 c 0
 312 878 250 713 250 469 c 0
 250 428 253 390 261 356 c 1
EndSplineSet
Validated: 1
EndChar

StartChar: plusminus
Encoding: 177 177 145
Width: 1100
VWidth: -6
Flags: W
HStem: 186 150<109 444 604 965> 669 150<102 446 606 965>
VStem: 446 160<344 658 811 1171>
LayerCount: 2
Fore
SplineSet
102 822 m 1
 275 812 345 811 446 811 c 1
 448 1172 l 1
 608 1171 l 1
 606 810 l 1
 761 813 759 819 948 819 c 2
 965 819 l 1
 965 669 l 1
 948 669 l 2
 762 669 764 663 606 658 c 1
 606 647 l 2
 606 541 604 433 604 343 c 1
 768 340 782 338 948 335 c 1
 965 334 l 1
 965 184 l 1
 948 185 l 1
 739 188 667 192 446 192 c 0
 314 192 287 191 127 186 c 1
 109 186 l 1
 109 336 l 1
 126 336 l 1
 287 340 323 344 444 344 c 1
 444 437 446 543 446 649 c 2
 446 659 l 1
 339 659 280 662 102 672 c 1
 102 822 l 1
EndSplineSet
Validated: 1
EndChar

StartChar: divide
Encoding: 247 247 146
Width: 1100
VWidth: 6
Flags: W
HStem: -12 270<375 625> 437 157<121 907> 757 269<373 624>
VStem: 375 250<-12 258 757 1026>
LayerCount: 2
Fore
SplineSet
373 1026 m 1
 624 1026 l 1
 624 757 l 1
 373 757 l 1
 373 1026 l 1
375 258 m 1
 625 258 l 1
 625 -12 l 1
 375 -12 l 1
 375 258 l 1
121 437 m 1
 116 594 l 1
 275 599 400 600 478 600 c 0
 616 600 681 597 891 594 c 1
 908 594 l 1
 907 437 l 1
 889 437 l 1
 676 440 612 444 475 444 c 0
 399 444 273 441 121 437 c 1
EndSplineSet
Validated: 1
EndChar

StartChar: OE
Encoding: 338 338 149
Width: 1100
VWidth: 0
Flags: W
HStem: -9 166<287.906 486.342 648 988.81> 743 167<652 941> 1275 170<332.92 488 652 1011>
VStem: 13 161<286.516 1068.22> 488 164<167 743 910 1275>
LayerCount: 2
Fore
SplineSet
853 167 m 1
 915 169 944 178 991 195 c 1
 1031 36 l 1
 920 4 818 -1 701 -1 c 0
 652 -1 600 0 542 0 c 1
 524 -8 424 -9 408 -9 c 0
 87 4 13 317 13 651 c 0
 13 1126 115 1450 467 1450 c 0
 494 1450 524 1447 551 1442 c 1
 613 1445 679 1445 745 1445 c 0
 834 1445 925 1444 1011 1444 c 1
 1011 1275 l 1
 914 1275 854 1276 779 1276 c 0
 742 1276 701 1276 652 1275 c 1
 652 910 l 1
 941 910 l 1
 941 743 l 1
 652 743 l 1
 652 523 648 253 648 167 c 1
 853 167 l 1
487 159 m 1
 488 1275 l 1
 214 1275 174 1037 174 630 c 0
 174 384 178 162 440 157 c 0
 457 157 473 158 487 159 c 1
EndSplineSet
Validated: 1
EndChar

StartChar: yen
Encoding: 165 165 150
Width: 1100
VWidth: 0
Flags: W
HStem: -7 21G<420 588> 374 163<97 423 594 942> 694 163<99.6965 307 733 943>
VStem: 420 168<-7 372 537 693.298>
LayerCount: 2
Fore
SplineSet
420 -7 m 1
 420 147 l 2
 420 193 421 280 423 373 c 1
 379 373 335 374 289 374 c 0
 229 374 166 373 97 369 c 1
 97 529 l 1
 222 536 324 537 426 537 c 1
 427 582 427 623 427 655 c 1
 420 665 411 679 402 694 c 1
 316 695 218 701 93 709 c 1
 93 762 93 816 96 867 c 1
 175 862 245 859 307 857 c 1
 202 1045 72 1291 36 1370 c 1
 183 1448 l 1
 223 1369 403 1021 500 856 c 1
 512 856 525 856 537 856 c 1
 645 1023 832 1373 870 1462 c 1
 1016 1376 l 1
 967 1274 890 1118 780 935 c 0
 764 910 748 885 733 861 c 1
 796 863 862 865 943 865 c 1
 943 706 l 1
 820 706 730 701 630 697 c 1
 614 671 601 652 595 643 c 1
 595 608 595 573 594 536 c 1
 714 534 819 529 944 529 c 1
 942 368 l 1
 818 368 709 371 591 372 c 1
 589 266 588 170 588 136 c 2
 588 -7 l 1
 420 -7 l 1
EndSplineSet
Validated: 1
EndChar

StartChar: Eth
Encoding: 208 208 152
Width: 1100
VWidth: 0
Flags: W
HStem: -11 165<242 683.178> 773 148<20 80 247 620> 1256 166<249.885 557.506>
VStem: 81 166<157 773 921 1252.71> 852 167<342.739 893.533>
LayerCount: 2
Fore
SplineSet
80 773 m 1
 20 773 l 1
 20 921 l 1
 81 921 l 1
 81 935 81 948 81 962 c 2
 81 1043 l 2
 81 1180 76 1313 67 1407 c 1
 152 1416 199 1422 303 1422 c 0
 588 1422 752 1334 881 1139 c 1
 969 1004 1019 812 1019 619 c 0
 1019 545 1010 472 996 401 c 0
 946 144 777 16 588 -3 c 0
 530 -8 477 -11 419 -11 c 0
 331 -11 191 -3 71 -3 c 1
 71 33 71 31 74 136 c 1
 74 184 78 479 80 773 c 1
325 1256 m 2
 294 1256 l 2
 287 1256 281 1256 275 1256 c 0
 266 1256 258 1256 247 1254 c 1
 248 1227 248 1193 248 1160 c 0
 248 1092 247 1018 247 944 c 0
 247 936 247 929 247 921 c 1
 620 921 l 1
 621 773 l 1
 246 773 l 1
 245 501 243 244 242 157 c 1
 334 154 382 154 445 154 c 0
 622 154 755 182 823 377 c 0
 840 426 852 522 852 581 c 0
 852 754 813 936 745 1040 c 0
 652 1180 557 1256 325 1256 c 2
EndSplineSet
Validated: 1
EndChar

StartChar: currency
Encoding: 164 164 153
Width: 1100
VWidth: 6
Flags: W
HStem: 98 157<440.92 646.633>
VStem: 235 165<301.574 671.832> 707 163<322.138 685.398>
LayerCount: 2
Fore
SplineSet
235 461 m 2
 235 468 l 2
 235 556 255 636 280 697 c 1
 139 849 l 1
 258 955 l 1
 375 828 l 1
 423 878 476 898 546 901 c 1
 563 901 l 2
 646 901 698 880 749 833 c 1
 861 946 l 1
 974 847 l 1
 838 697 l 1
 861 640 870 582 870 520 c 1
 868 417 854 352 819 284 c 1
 964 129 l 1
 846 23 l 1
 721 159 l 1
 671 120 610 98 544 98 c 0
 460 99 407 127 359 167 c 1
 234 43 l 1
 127 142 l 1
 260 299 l 1
 239 354 235 403 235 461 c 2
707 522 m 0
 707 650 652 735 567 743 c 1
 552 741 l 1
 447 730 400 626 400 462 c 0
 400 325 441 255 549 255 c 0
 657 255 707 368 707 522 c 0
EndSplineSet
Validated: 1
EndChar

StartChar: sterling
Encoding: 163 163 154
Width: 1100
VWidth: 0
Flags: W
HStem: -13 152<232.292 325.715 602.024 857.099> 687 152<192 321 510 881> 1198 153<485.389 685.633>
VStem: 80 151<141.174 267.198> 297 158<841.301 1170.57> 389 157<335.307 679.073> 718 147<1113.81 1164.47> 859 156<142.143 229>
LayerCount: 2
Fore
SplineSet
881 691 m 1xfa
 807 682 724 682 626 682 c 2
 510 682 l 1
 528 589 545 495 546 385 c 0
 546 333 539 278 527 230 c 1
 621 169 674 137 763 137 c 0
 856 137 859 154 859 214 c 0
 859 219 859 224 859 229 c 1
 1015 231 l 1
 1015 190 l 1
 1011 54 930 -15 789 -16 c 0
 671 -16 571 25 462 95 c 1
 414 29 329 -13 242 -13 c 0
 142 -13 80 80 80 192 c 0
 80 293 111 370 183 412 c 0
 200 421 219 424 234 424 c 0
 237 424 240 424 243 424 c 0
 302 424 354 369 387 334 c 1
 389 354 389 375 389 397 c 0xf5
 388 503 370 589 351 685 c 1
 299 687 254 687 209 687 c 2
 192 687 l 1
 192 839 l 1
 321 839 l 1
 308 910 297 977 297 1043 c 0
 297 1248 409 1351 598 1351 c 0
 745 1351 834 1245 865 1118 c 1
 718 1075 l 1
 702 1137 679 1196 598 1198 c 0
 596 1198 594 1198 592 1198 c 0
 475 1198 455 1116 455 1051 c 0
 455 997 470 900 481 834 c 1
 628 837 l 2
 647 837 667 837 685 837 c 0
 759 837 825 838 881 844 c 1
 881 691 l 1xfa
328 186 m 1
 295 216 277 254 254 269 c 1
 244 262 231 231 231 201 c 0
 231 199 231 197 231 195 c 0
 233 153 246 139 262 139 c 0
 284 139 312 166 328 186 c 1
EndSplineSet
Validated: 1
EndChar

StartChar: cent
Encoding: 162 162 155
Width: 1100
VWidth: 6
Flags: W
HStem: -9 293<445.51 600.879> 720 313<443 602.347>
VStem: 162 162<353.688 651.195> 442 162<-9 142.125 858.461 1033>
LayerCount: 2
Fore
SplineSet
526 284 m 0
 527 284 527 284 528 284 c 0
 620 284 695 318 721 354 c 1
 732 370 l 1
 869 287 l 1
 857 271 l 1
 805 194 710 147 602 135 c 1
 602 -9 l 1
 442 -9 l 1
 442 139 l 1
 396 148 346 164 301 194 c 0
 197 264 162 356 162 490 c 2
 162 501 l 2
 162 624 200 705 241 753 c 0
 297 817 369 851 442 865 c 1
 442 1033 l 1
 604 1033 l 1
 604 867 l 1
 721 850 788 786 821 695 c 1
 663 638 l 1
 659 661 l 1
 648 714 612 720 533 720 c 0
 472 720 408 702 371 657 c 0
 352 635 324 596 324 514 c 0
 324 384 384 283 509 283 c 0
 515 283 520 284 526 284 c 0
EndSplineSet
Validated: 1
EndChar

StartChar: percent
Encoding: 37 37 156
Width: 1100
VWidth: 0
Flags: W
HStem: -3 135<694.373 847.008> 358 153<730.087 866.782> 730 155<224.471 370.848> 1094 153<244.101 402.437> 1354 20G<702.5 814.97>
VStem: 75 135<899.761 1058.49> 409 147<922.223 1082.51> 537 150<139.341 319.221> 885 136<169.63 343.02>
LayerCount: 2
Fore
SplineSet
188 24 m 1xfc80
 316 301 636 1022 769 1374 c 1
 923 1307 l 1
 785 955 461 234 341 -48 c 1
 188 24 l 1xfc80
304 730 m 0
 176 730 75 844 75 980 c 0
 75 1121 189 1244 322 1247 c 0
 324 1247 326 1247 328 1247 c 0
 458 1247 556 1148 556 1019 c 0
 556 1017 556 1015 556 1013 c 0xfe80
 553 873 450 730 304 730 c 0
304 885 m 0
 347 885 409 958 409 1008 c 0
 409 1068 382 1091 321 1094 c 0
 320 1094 319 1094 318 1094 c 0
 275 1094 210 1025 210 981 c 0
 210 928 250 885 304 885 c 0
537 226 m 2xfd80
 537 241 l 1
 546 370 646 505 787 511 c 1
 795 511 l 1
 918 506 1021 399 1021 266 c 2
 1021 254 l 2
 1021 136 915 -3 770 -3 c 0
 639 -3 537 93 537 226 c 2xfd80
687 225 m 2
 687 215 l 1
 691 156 710 135 767 132 c 1
 771 132 l 2
 821 132 885 199 885 247 c 2
 885 254 l 2
 885 310 847 356 796 358 c 1
 794 358 l 2
 748 358 687 277 687 225 c 2
EndSplineSet
Validated: 1
EndChar

StartChar: guillemotleft
Encoding: 171 171 157
Width: 1100
VWidth: 6
Flags: W
VStem: 407 152<103.907 161.156> 421 156<871.117 942.4>
LayerCount: 2
Fore
SplineSet
91 574 m 1x80
 235 704 398 836 421 976 c 1
 577 939 l 1x40
 537 750 401 627 276 518 c 1
 404 400 514 281 559 109 c 1
 407 55 l 1
 369 204 249 318 91 459 c 1
 91 574 l 1x80
441 576 m 1
 586 676 707 845 747 978 c 1
 900 921 l 1
 853 779 762 633 632 516 c 1
 754 410 833 287 878 134 c 1
 884 116 l 1
 729 63 l 1
 681 226 597 343 441 450 c 1
 441 576 l 1
EndSplineSet
Validated: 1
EndChar

StartChar: section
Encoding: 167 167 159
Width: 1100
VWidth: 4
Flags: W
HStem: -322 155<418.184 662.221> 1213 155<395.43 634.296>
VStem: 140 158<567.294 710.649> 183 156<923.488 1159.18> 218 155<-129.895 -31> 676 151<1081 1178.04> 715 161<-114.133 113.863> 755 163<327.508 479.299>
LayerCount: 2
Fore
SplineSet
183 1040 m 0xd0
 183 1258 361 1368 514 1368 c 0
 686 1368 823 1271 827 1081 c 1
 676 1080 l 1xd4
 673 1142 660 1155 628 1183 c 1
 602 1203 566 1213 514 1213 c 1
 425 1211 339 1152 339 1055 c 0
 339 933 385 915 512 827 c 0
 604 763 726 698 826 594 c 1
 877 544 918 477 918 405 c 0xd1
 918 300 883 246 819 198 c 1
 854 148 874 83 876 6 c 0
 876 3 876 0 876 -3 c 0
 876 -223 691 -322 536 -322 c 0
 361 -322 223 -225 218 -31 c 1
 373 -30 l 1xca
 382 -90 390 -111 422 -135 c 0
 447 -154 485 -167 535 -167 c 1
 627 -164 715 -112 715 -9 c 0
 715 9 713 30 707 55 c 0
 695 101 634 159 540 220 c 1
 444 281 324 348 223 450 c 1
 174 503 140 568 140 641 c 0xe2
 140 745 183 794 246 841 c 1
 210 893 183 971 183 1040 c 0xd0
699 319 m 1
 747 339 755 358 755 392 c 2
 755 409 l 1
 752 430 743 452 718 475 c 0
 617 567 480 640 364 722 c 1
 303 697 298 679 298 637 c 0xe1
 298 617 314 591 339 569 c 0
 440 476 583 399 699 319 c 1
EndSplineSet
Validated: 1
EndChar

StartChar: braceleft
Encoding: 123 123 160
Width: 1100
VWidth: 66
Flags: W
HStem: -262 166<706.5 909> 1326 158<700.374 909>
VStem: 479 173<-45.0254 197.683 1025.46 1280.54> 550 169<146.654 428.774 784.381 1074.66>
LayerCount: 2
Fore
SplineSet
909 1484 m 1xe0
 914 1326 l 1
 787 1320 721 1314 675 1260 c 0
 656 1238 649 1221 649 1199 c 0
 649 1190 650 1181 652 1171 c 0xe0
 664 1089 720 995 720 893 c 0
 720 878 718 864 716 849 c 0
 694 719 622 631 528 609 c 1
 625 580 703 479 717 359 c 0
 718 347 719 335 719 324 c 0xd0
 719 222 668 146 655 62 c 0
 653 52 652 43 652 34 c 0
 652 12 659 -5 678 -27 c 0
 724 -81 788 -90 915 -96 c 1
 909 -262 l 1
 776 -256 627 -244 534 -136 c 0
 493 -88 479 -39 479 11 c 0xe0
 479 82 508 153 531 219 c 0
 544 256 550 288 550 316 c 0xd0
 550 455 407 496 304 528 c 1
 304 690 l 1
 425 724 553 765 553 899 c 0
 553 929 546 963 532 1003 c 0
 508 1068 479 1140 479 1211 c 0
 479 1261 494 1311 534 1358 c 0
 627 1466 776 1478 909 1484 c 1xe0
EndSplineSet
Validated: 1
EndChar

StartChar: bar
Encoding: 124 124 161
Width: 1100
VWidth: 66
Flags: W
VStem: 411 162<-194.108 1492>
LayerCount: 2
Fore
SplineSet
410 152 m 0
 410 517 401 1111 401 1399 c 2
 401 1492 l 1
 561 1492 l 1
 561 1347 l 2
 561 1070 573 558 573 224 c 2
 573 74 l 2
 573 -41 572 -97 567 -198 c 1
 406 -197 l 1
 410 -135 411 -92 411 -37 c 0
 411 10 410 66 410 152 c 0
EndSplineSet
Validated: 1
EndChar

StartChar: braceright
Encoding: 125 125 162
Width: 1100
VWidth: 66
Flags: W
HStem: -262 166<170 372.5> 1326 158<169 377.626>
VStem: 360 168<148.269 428.633 784.259 1074.51> 426 174<-45.1572 195.685 1027 1280.09>
LayerCount: 2
Fore
SplineSet
169 1484 m 1xe0
 302 1478 451 1466 544 1358 c 0
 585 1310 599 1260 599 1210 c 0
 599 1139 570 1068 547 1003 c 0
 532 963 526 928 526 898 c 0
 526 765 654 724 775 690 c 1
 775 528 l 1
 672 496 528 455 528 315 c 0xe0
 528 288 534 256 547 219 c 0
 571 153 600 82 600 11 c 0
 600 -39 585 -89 545 -136 c 0
 452 -244 303 -256 170 -262 c 1
 164 -96 l 1
 290 -90 355 -81 401 -27 c 0
 420 -5 426 13 426 35 c 0xd0
 426 43 425 52 424 62 c 0
 411 146 360 222 360 324 c 0
 360 335 361 347 362 359 c 0
 376 479 454 580 551 609 c 1
 457 631 385 719 363 849 c 0
 361 864 359 878 359 893 c 0
 359 995 415 1089 427 1171 c 0
 428 1181 429 1190 429 1198 c 0
 429 1220 423 1238 404 1260 c 0
 358 1314 291 1320 165 1326 c 1
 169 1484 l 1xe0
EndSplineSet
Validated: 1
EndChar

StartChar: at
Encoding: 64 64 163
Width: 1100
VWidth: 6
Flags: W
HStem: -362 150<415.063 692.196> 6 158<445.926 578.401 770.694 869.48> 510 153<459.285 595.385> 872 153<442.707 579.523> 1238 148<404.064 656.41>
VStem: 37 160<129.741 915.742> 270 154<182.576 481.286> 596 144<188.091 508.365 651 863.384> 835 147<173.32 987.456>
LayerCount: 2
Fore
SplineSet
424 324 m 0
 424 216 458 164 520 164 c 0
 590 164 585 248 596 276 c 1
 596 489 l 1
 577 508 549 510 520 510 c 0
 464 510 424 425 424 324 c 0
668 105 m 1
 651 69 619 6 530 6 c 0
 468 6 431 19 377 57 c 0
 296 114 270 211 270 309 c 0
 270 476 323 663 510 663 c 0
 550 663 581 662 605 651 c 1
 605 748 603 872 518 872 c 2
 510 872 l 2
 464 872 440 844 404 750 c 1
 274 816 l 1
 323 957 391 1025 518 1025 c 0
 726 1025 740 790 740 621 c 2
 740 267 l 1
 768 206 792 171 809 171 c 0
 825 171 835 206 835 288 c 2
 835 288 835 582 835 705 c 0
 835 936 759 1238 519 1238 c 0
 371 1238 197 1027 197 550 c 0
 197 97 308 -212 563 -212 c 0
 606 -212 641 -199 673 -178 c 1
 745 -313 l 1
 699 -342 640 -362 563 -362 c 0
 176 -362 37 0 37 550 c 0
 37 1095 261 1386 520 1386 c 0
 907 1386 982 943 982 721 c 0
 982 564 982 427 982 270 c 0
 982 76 909 3 829 3 c 0
 811 3 793 7 775 14 c 0
 728 32 678 84 668 105 c 1
EndSplineSet
Validated: 1
EndChar

StartChar: brokenbar
Encoding: 166 166 164
Width: 1100
VWidth: 66
Flags: W
VStem: 414 163<-194 -80.127 371.516 528 775 1492>
LayerCount: 2
Fore
SplineSet
408 775 m 1
 404 1042 401 1239 401 1399 c 2
 401 1492 l 1
 561 1492 l 1
 561 1366 l 2
 561 1217 566 1025 570 775 c 1
 408 775 l 1
573 528 m 1
 575 417 577 243 577 155 c 0
 577 -46 577 -65 570 -195 c 1
 409 -194 l 1
 413 -120 414 -90 414 -29 c 2
 414 118 l 2
 414 216 412 404 410 528 c 1
 573 528 l 1
EndSplineSet
Validated: 1
EndChar

StartChar: copyright
Encoding: 169 169 165
Width: 1100
VWidth: 6
Flags: W
HStem: -336 155<407.115 630.91> -17 152<467.62 593.105> 859 174<470.844 580.197> 1202 153<411.498 610.866>
VStem: 54 136<166.256 850.907> 257 148<215.464 776.084> 625 127<164.445 238.402> 843 143<163.794 831.031>
LayerCount: 2
Fore
SplineSet
516 1355 m 0
 820 1355 986 962 986 506 c 0
 986 51 806 -336 516 -336 c 0
 217 -336 54 58 54 513 c 0
 54 969 228 1355 516 1355 c 0
516 1202 m 0
 350 1202 190 905 190 512 c 0
 190 120 336 -181 516 -181 c 0
 701 -181 843 118 843 510 c 2
 843 527 l 2
 843 912 653 1202 516 1202 c 0
501 1033 m 0
 502 1033 503 1033 504 1033 c 0
 511 1033 517 1035 529 1035 c 0
 605 1032 694 962 744 810 c 1
 603 753 l 1
 585 810 577 859 531 859 c 0
 455 859 405 689 405 510 c 0
 405 387 437 135 520 135 c 0
 582 135 605 182 625 273 c 1
 752 234 l 1
 712 93 653 -17 529 -17 c 0
 295 -17 257 328 257 487 c 0
 257 688 300 812 329 874 c 0
 365 952 428 1019 501 1033 c 0
EndSplineSet
Validated: 1
EndChar

StartChar: registered
Encoding: 174 174 166
Width: 1100
VWidth: 6
Flags: W
HStem: -336 155<407.115 630.91> 891 153<476 569.506> 1202 153<411.498 610.866>
VStem: 54 136<166.256 850.907> 327 149<12 381 528.507 891> 603 135<536.373 855.717> 843 143<163.794 831.031>
LayerCount: 2
Fore
SplineSet
516 1355 m 0
 820 1355 986 962 986 506 c 0
 986 51 806 -336 516 -336 c 0
 217 -336 54 58 54 513 c 0
 54 969 228 1355 516 1355 c 0
516 1202 m 0
 350 1202 190 905 190 512 c 0
 190 120 336 -181 516 -181 c 0
 701 -181 843 118 843 510 c 2
 843 527 l 2
 843 912 653 1202 516 1202 c 0
638 0 m 1
 596 82 534 316 508 378 c 1
 488 381 491 377 476 381 c 1
 476 254 477 203 477 148 c 0
 477 111 477 73 475 10 c 1
 327 12 l 1
 327 321 325 1007 325 1007 c 1
 367 1042 421 1039 473 1043 c 0
 481 1044 489 1044 497 1044 c 0
 668 1044 732 866 738 684 c 1
 738 570 718 433 652 392 c 1
 693 298 750 112 778 92 c 1
 638 0 l 1
601 722 m 0
 594 851 548 891 485 891 c 0
 482 891 479 891 476 891 c 1
 476 538 l 1
 498 531 517 528 532 528 c 0
 590 528 603 576 603 657 c 0
 603 677 602 698 601 722 c 0
EndSplineSet
Validated: 1
EndChar

StartChar: germandbls
Encoding: 223 223 167
Width: 1100
VWidth: 0
Flags: W
HStem: -2 167<502.941 771.441> 729 167<309 563.658> 1282 166<308.995 569.842>
VStem: 85 161<98.5092 1212.43> 306 164<203.594 350> 632 161<955.99 1218.43> 830 162<225.884 603.25>
LayerCount: 2
Fore
SplineSet
85 1093 m 0
 85 1263 201 1448 410 1448 c 0
 623 1448 793 1344 793 1102 c 0
 793 991 763 907 704 849 c 1
 890 796 992 652 992 415 c 0
 992 186 887 -2 656 -2 c 0
 460 -2 306 103 306 324 c 0
 306 333 307 341 307 350 c 1
 470 350 l 1
 472 209 500 165 656 165 c 0
 798 165 830 285 830 431 c 0
 830 715 611 729 309 729 c 1
 309 896 l 1
 482 896 632 896 632 1095 c 0
 632 1218 554 1282 410 1282 c 1
 309 1281 246 1180 246 1082 c 0
 246 912 251 694 251 490 c 0
 251 355 247 227 239 121 c 0
 232 33 179 -9 120 -40 c 1
 39 98 l 1
 60 109 78 111 81 140 c 0
 91 249 94 367 94 488 c 0
 94 692 85 903 85 1093 c 0
EndSplineSet
Validated: 1
EndChar

StartChar: ampersand
Encoding: 38 38 168
Width: 1100
VWidth: 0
Flags: W
HStem: -22 155<317.294 594.075> 1194 153<356.737 547.919>
VStem: 67 159<228.763 529.103> 152 158<921.771 1150.11> 573 157<972.767 1168.98> 780 149<401.282 647>
LayerCount: 2
Fore
SplineSet
1005 64 m 1xdc
 883 -32 l 1
 868 -12 822 47 770 116 c 1
 679 18 569 -22 439 -22 c 0
 231 -22 67 129 67 367 c 0xec
 67 546 159 681 273 771 c 1
 225 829 152 921 152 1037 c 0
 152 1206 285 1347 446 1347 c 0
 591 1347 730 1257 730 1085 c 0
 730 923 611 827 494 741 c 1
 581 628 667 517 755 398 c 1
 777 468 780 539 780 648 c 1
 929 647 l 1
 929 480 908 336 857 255 c 1
 897 204 982 95 1005 64 c 1xdc
573 1069 m 0
 573 1157 520 1194 445 1194 c 0
 377 1194 310 1121 310 1044 c 0xdc
 310 972 358 912 403 859 c 1
 477 911 513 950 536 981 c 0
 562 1016 573 1041 573 1069 c 0
675 245 m 1
 568 387 471 521 371 648 c 1
 293 579 226 491 226 376 c 0xec
 226 227 329 133 444 133 c 0
 544 133 623 185 675 245 c 1
EndSplineSet
Validated: 1
EndChar

StartChar: uni00B5
Encoding: 181 181 169
Width: 1100
VWidth: 6
Flags: W
HStem: -10 21G<897.5 940.017> -10 21G<897.5 940.017> 2 154<340.683 605.04> 1001 20G<152.481 282>
VStem: 129 157<-400 22 181.338 701.424> 759 158<276.783 1001>
LayerCount: 2
Fore
SplineSet
926 -10 m 1x9c
 869 31 815 72 793 158 c 1
 709 72 612 5 462 2 c 1
 453 2 l 2
 405 2 343 2 289 22 c 1
 286 -400 l 1
 129 -400 l 1
 134 214 l 1
 131 482 138 911 111 994 c 1
 271 1021 l 1
 293 929 288 616 290 250 c 1
 296 216 318 190 340 174 c 0
 354 164 405 156 446 156 c 1x3c
 513 159 554 167 605 198 c 0
 652 226 721 256 759 344 c 1
 760 1001 l 1
 918 1001 l 1
 917 239 l 1
 919 187 968 139 1008 107 c 1
 926 -10 l 1x9c
EndSplineSet
Validated: 1
EndChar

StartChar: paragraph
Encoding: 182 182 170
Width: 1100
VWidth: 0
Flags: W
HStem: -10 21G<777 929> -10 21G<777 929> 1169 159<641 775>
VStem: 56 585<679.203 1130.78> 489 155<22.0462 476.365> 775 154<-9 1169>
LayerCount: 2
Fore
SplineSet
775 1041 m 2xb4
 775 1169 l 1
 734 1170 694 1173 641 1174 c 1xb4
 642 844 641 512 644 184 c 1
 644 45 602 -30 602 -30 c 1
 448 22 l 1
 448 22 489 85 489 229 c 1xac
 487 473 l 1
 319 485 202 526 123 641 c 0
 63 730 56 831 56 924 c 0
 56 1016 75 1108 129 1174 c 0
 244 1315 415 1328 640 1328 c 0
 773 1328 811 1320 929 1320 c 1
 929 -9 l 1
 777 -10 l 1
 777 325 775 597 775 1041 c 2xb4
EndSplineSet
Validated: 1
EndChar

StartChar: dieresis
Encoding: 168 168 173
Width: 1100
VWidth: -28
Flags: W
HStem: 1087 225<159 394 565 800>
VStem: 159 235<1090 1312> 565 235<1087 1309>
LayerCount: 2
Fore
SplineSet
565 1312 m 1
 800 1309 l 1
 800 1084 l 1
 565 1087 l 1
 565 1312 l 1
159 1315 m 1
 394 1312 l 1
 394 1087 l 1
 159 1090 l 1
 159 1315 l 1
EndSplineSet
Validated: 1
EndChar

StartChar: acute
Encoding: 180 180 174
Width: 1100
VWidth: -43
Flags: W
HStem: 1201 416
VStem: 241 543
LayerCount: 2
Fore
SplineSet
241 1349 m 1
 384 1397 559 1509 674 1617 c 1
 784 1470 l 1
 673 1358 451 1248 308 1201 c 1
 241 1349 l 1
EndSplineSet
Validated: 1
EndChar

StartChar: degree
Encoding: 176 176 175
Width: 1100
VWidth: -26
Flags: W
HStem: 922 125<396.828 553.277> 1188 124<393.557 554.087>
VStem: 259 129<1057.22 1177.63> 560 132<1056.77 1178.04>
LayerCount: 2
Fore
SplineSet
259 1117 m 0
 259 1228 361 1312 476 1312 c 0
 591 1312 692 1228 692 1117 c 0
 692 1006 591 922 476 922 c 0
 361 922 259 1006 259 1117 c 0
388 1119 m 0
 388 1084 424 1047 475 1047 c 0
 526 1047 560 1084 560 1119 c 0
 560 1154 527 1188 475 1188 c 0
 423 1188 388 1154 388 1119 c 0
EndSplineSet
Validated: 1
EndChar

StartChar: macron
Encoding: 175 175 176
Width: 1100
VWidth: -34
Flags: W
HStem: 1182 154<248 702>
VStem: 248 454<1185 1335>
LayerCount: 2
Fore
SplineSet
248 1340 m 1
 284 1336 327 1335 373 1335 c 0
 419 1335 470 1336 521 1336 c 0
 581 1336 642 1336 702 1336 c 1
 702 1184 l 1
 685 1184 l 1
 627 1182 557 1182 483 1182 c 0
 456 1182 429 1182 402 1182 c 0
 349 1182 297 1182 248 1185 c 1
 248 1340 l 1
EndSplineSet
Validated: 1
EndChar

StartChar: dotlessi
Encoding: 305 305 177
Width: 1100
VWidth: 0
Flags: W
HStem: -18 142<567.434 930.467> 857 156<144.467 398>
VStem: 398 160<133.613 857>
LayerCount: 2
Fore
SplineSet
437 1013 m 2
 557 1013 l 1
 557 740 558 210 558 210 c 1
 563 128 603 124 695 124 c 0
 788 124 912 145 981 197 c 1
 1049 83 l 1
 963 12 820 -18 696 -18 c 0
 611 -18 535 -4 491 20 c 0
 406 67 398 147 398 206 c 2
 398 857 l 1
 349 857 235 851 140 829 c 1
 111 971 l 1
 223 997 333 1013 437 1013 c 2
EndSplineSet
Validated: 1
EndChar

StartChar: asterisk
Encoding: 42 42 191
Width: 1100
VWidth: 0
Flags: W
VStem: 454 163<774 1199>
LayerCount: 2
Fore
SplineSet
454 774 m 1
 450 1199 l 1
 619 1200 l 1
 617 773 l 1
 943 919 l 1
 1017 781 l 1
 654 628 l 1
 926 307 l 1
 800 196 l 1
 542 563 l 1
 297 197 l 1
 165 302 l 1
 421 628 l 1
 68 770 l 1
 134 914 l 1
 454 774 l 1
EndSplineSet
Validated: 1
EndChar

StartChar: ordfeminine
Encoding: 170 170 192
Width: 1100
VWidth: 6
Flags: W
HStem: 467 116<235 688> 668 96<308.323 499.323> 931 95<327.318 548.633> 1022 21G<253.5 306.5> 1125 95<325.799 531.895>
VStem: 212 90<771.273 902.562> 552 91<814.732 921.265>
LayerCount: 2
Fore
SplineSet
688 583 m 1xce
 689 469 l 1
 672 469 l 1
 614 467 544 467 470 467 c 0
 443 467 416 467 389 467 c 0
 336 467 284 467 235 470 c 1
 234 585 l 1
 253 585 l 1
 318 583 415 583 507 583 c 0
 567 583 628 583 688 583 c 1xce
641 658 m 1
 614 680 580 698 564 739 c 1
 523 703 464 668 388 668 c 0
 294 668 212 744 212 839 c 0
 212 882 228 925 263 959 c 0
 319 1012 378 1026 441 1026 c 0xee
 481 1026 521 1019 550 1010 c 1
 541 1099 510 1125 434 1125 c 0
 363 1125 327 1098 286 1022 c 1xde
 208 1070 l 1
 218 1088 l 1
 272 1179 343 1218 432 1220 c 1
 552 1220 632 1143 640 1018 c 0
 643 986 644 938 644 918 c 0
 644 877 643 863 643 841 c 0
 643 821 645 780 651 770 c 0
 653 768 687 743 700 735 c 1
 641 658 l 1
384 764 m 0
 455 764 533 830 552 853 c 1
 552 905 l 1
 525 920 486 928 440 931 c 0
 438 931 436 931 434 931 c 0
 372 931 302 887 302 837 c 0
 302 796 331 764 384 764 c 0
EndSplineSet
Validated: 1
EndChar

StartChar: logicalnot
Encoding: 172 172 193
Width: 1100
VWidth: 6
Flags: W
HStem: 448 152<173 774>
VStem: 774 154<174 444>
LayerCount: 2
Fore
SplineSet
167 592 m 1
 303 599 414 600 516 600 c 0
 557 600 596 600 635 600 c 0
 717 600 802 599 909 598 c 1
 928 598 l 1
 928 457 928 315 928 174 c 1
 774 174 l 1
 774 444 l 1
 639 447 639 448 514 448 c 0
 447 448 325 447 173 439 c 1
 173 523 l 1
 167 592 l 1
EndSplineSet
Validated: 1
EndChar

StartChar: uni00AD
Encoding: 173 173 194
Width: 1100
VWidth: 6
Flags: W
HStem: 448 152<173 927>
LayerCount: 2
Fore
SplineSet
167 592 m 1
 303 599 414 600 516 600 c 0
 557 600 596 600 635 600 c 0
 717 600 802 599 909 598 c 1
 927 598 l 1
 927 445 l 1
 909 445 l 1
 774 448 639 448 514 448 c 0
 447 448 325 447 173 439 c 1
 173 523 l 1
 167 592 l 1
EndSplineSet
Validated: 1
EndChar

StartChar: cedilla
Encoding: 184 184 197
Width: 1100
VWidth: 12
Flags: W
HStem: -358 125<455.445 660.66> -136 188<500 575.783> -119 175<501.294 644.524>
VStem: 500 145<-25.4613 52> 664 136<-226.217 -127.936>
LayerCount: 2
Fore
SplineSet
646 56 m 1xb8
 645 48 645 -16 645 -19 c 1
 742 -24 800 -86 800 -190 c 0
 800 -291 700 -358 616 -358 c 0
 550 -358 478 -333 422 -297 c 1
 460 -191 l 1
 493 -209 533 -233 584 -233 c 0
 620 -233 661 -213 664 -175 c 1
 664 -173 l 2
 664 -144 626 -119 578 -119 c 0xb8
 530 -119 528 -126 500 -136 c 1
 500 52 l 1xd8
 646 56 l 1xb8
EndSplineSet
Validated: 1
EndChar

StartChar: ordmasculine
Encoding: 186 186 199
Width: 1100
VWidth: 6
Flags: W
HStem: 467 116<235 688> 671 117<343.203 571.109> 1101 117<355.708 576.964>
VStem: 185 126<815.284 1055.19> 615 125<831.251 1063.17>
LayerCount: 2
Fore
SplineSet
688 583 m 1
 689 469 l 1
 672 469 l 1
 614 467 544 467 470 467 c 0
 443 467 416 467 389 467 c 0
 336 467 284 467 235 470 c 1
 234 585 l 1
 253 585 l 1
 318 583 415 583 507 583 c 0
 567 583 628 583 688 583 c 1
185 918 m 0
 185 1082 285 1218 459 1218 c 0
 582 1218 645 1173 694 1103 c 0
 723 1061 740 1011 740 958 c 0
 740 937 736 909 731 889 c 0
 704 772 631 672 461 671 c 1
 458 671 l 2
 287 671 185 766 185 918 c 0
462 788 m 0
 558 788 615 857 615 954 c 0
 615 1028 568 1101 470 1101 c 2
 468 1101 l 2
 362 1101 311 1027 311 921 c 0
 311 838 356 788 459 788 c 0
 460 788 461 788 462 788 c 0
EndSplineSet
Validated: 1
EndChar

StartChar: onequarter
Encoding: 188 188 200
Width: 1100
VWidth: 0
Flags: W
HStem: -3 18G<246.851 346 783 867> 221 85<611 783 867 936> 1372 2G<325 404.391 722 817.818>
VStem: 330 86<672 1234> 783 84<-3 221 306 533 620.037 703>
LayerCount: 2
Fore
SplineSet
194 41 m 1
 200 54 227 111 244 153 c 1
 341 378 668 1106 776 1392 c 1
 868 1348 l 1
 730 996 406 276 286 -6 c 1
 194 41 l 1
498 291 m 1
 516 316 767 615 779 703 c 1
 867 703 l 1
 867 306 l 1
 936 306 l 1
 936 223 l 1
 867 223 l 1
 867 -3 l 1
 783 -3 l 1
 783 221 l 1
 531 221 l 1
 498 291 l 1
783 306 m 1
 783 533 l 1
 744 463 661 358 611 306 c 1
 783 306 l 1
327 1374 m 1
 416 1351 l 1
 416 672 l 1
 330 672 l 1
 329 1234 l 1
 293 1189 220 1135 151 1096 c 1
 107 1169 l 1
 269 1250 323 1366 327 1374 c 1
EndSplineSet
Validated: 1
EndChar

StartChar: onehalf
Encoding: 189 189 201
Width: 1100
VWidth: 0
Flags: W
HStem: -2 21G<211.851 311> 5 84<638 958> 633 85<656.72 838.149> 1376 7G<286 365.391 687 782.818>
VStem: 291 86<681 1243> 542 96<89 173.018> 548 86<470.373 608.734> 861 87<413.131 612.603>
LayerCount: 2
Fore
SplineSet
159 45 m 1xb9
 165 58 193 115 210 157 c 1
 307 382 633 1110 741 1396 c 1
 833 1352 l 1
 695 1000 371 280 251 -2 c 1
 159 45 l 1xb9
642 472 m 1
 560 453 l 1
 555 469 550 494 549 514 c 0
 549 519 548 524 548 528 c 0x7b
 548 649 638 718 746 718 c 0
 877 718 948 653 948 511 c 0
 948 442 905 380 861 334 c 1
 815 288 749 240 693 185 c 0
 654 147 639 109 638 89 c 1
 958 90 l 1
 958 5 l 1
 543 5 l 1
 543 21 542 39 542 57 c 0x7d
 542 71 542 86 545 101 c 0
 555 154 580 201 639 256 c 0
 697 310 752 345 795 387 c 0
 837 427 861 477 861 510 c 0
 861 573 830 633 751 633 c 0
 680 633 634 594 634 507 c 0x7b
 634 496 640 478 642 472 c 1
288 1383 m 1
 377 1360 l 1
 377 681 l 1
 291 681 l 1
 290 1243 l 1
 254 1198 181 1144 112 1105 c 1
 68 1178 l 1
 230 1259 284 1375 288 1383 c 1
EndSplineSet
Validated: 1
EndChar

StartChar: threequarters
Encoding: 190 190 202
Width: 1100
VWidth: 0
Flags: W
HStem: 227 85<623 795 879 948> 655 84<178.08 383.455> 1028 86<209 350.753> 1298 85<188.607 362.786> 1384 20G<766 861.818>
VStem: 67 86<763.212 849> 373 85<1141.44 1283.78> 415 86<770.732 979.301> 795 84<3 227 312 539 626.037 709>
LayerCount: 2
Fore
SplineSet
238 53 m 1xfc80
 244 66 272 123 289 165 c 1
 386 390 712 1118 820 1404 c 1
 912 1360 l 1
 774 1008 450 288 330 6 c 1
 238 53 l 1xfc80
510 297 m 1
 528 322 779 621 791 709 c 1
 879 709 l 1
 879 312 l 1
 948 312 l 1
 948 229 l 1
 879 229 l 1
 879 3 l 1
 795 3 l 1
 795 227 l 1
 543 227 l 1
 510 297 l 1
795 312 m 1
 795 539 l 1
 756 469 673 364 623 312 c 1
 795 312 l 1
67 849 m 1
 153 849 l 1
 154 786 197 739 277 739 c 0
 363 739 415 790 415 870 c 0xfd80
 415 930 396 971 344 1000 c 0
 295 1028 252 1028 209 1028 c 1
 209 1114 l 1
 212 1114 215 1114 218 1114 c 0
 239 1114 265 1115 304 1128 c 0
 349 1144 373 1169 373 1224 c 0
 373 1266 327 1298 272 1298 c 0
 203 1298 172 1235 162 1215 c 1
 86 1257 l 1
 89 1265 136 1383 267 1383 c 0
 269 1383 271 1383 273 1383 c 0
 370 1383 458 1331 458 1227 c 0xfe80
 458 1158 431 1099 382 1077 c 1
 469 1035 501 963 501 871 c 0xfd80
 501 825 485 765 449 722 c 0
 413 680 363 655 277 655 c 0
 147 655 67 738 67 849 c 1
EndSplineSet
Validated: 1
EndChar

StartChar: Aogonek
Encoding: 260 260 206
Width: 1100
VWidth: 32
Flags: W
HStem: -388 111<841.429 1044.17> 355 178<364.946 712> 1395 20G<478.498 609.344>
VStem: 698 136<-264.728 -110.394>
LayerCount: 2
Fore
SplineSet
485 1415 m 1
 603 1415 l 1
 1048 12 l 1
 947 -48 834 -119 834 -203 c 2
 834 -205 l 2
 834 -248 880 -277 924 -277 c 0
 982 -277 1030 -263 1063 -245 c 1
 1097 -312 l 1
 1041 -348 973 -388 882 -388 c 0
 798 -388 698 -321 698 -220 c 0
 698 -92 787 -1 851 68 c 1
 772 355 l 1
 624 352 419 353 302 324 c 1
 195 -26 l 1
 25 0 l 1
 485 1415 l 1
712 534 m 1
 544 1070 l 1
 362 512 l 1
 425 526 478 529 565 533 c 1
 712 534 l 1
EndSplineSet
Validated: 1
EndChar

StartChar: aogonek
Encoding: 261 261 207
Width: 1100
VWidth: 32
Flags: W
HStem: -335 111<799.429 1002.17> -6 152<295.367 561.736> 504 153<344.522 679.622> 877 151<336.149 639.625>
VStem: 98 156<186.95 423.616> 656 136<-211.728 -61.5471> 716 157<285.558 463.324 597 791.012>
LayerCount: 2
Fore
SplineSet
873 318 m 2xfa
 873 283 873 190 886 173 c 0
 899 155 936 132 965 109 c 1
 882 -10 l 1
 860 -27 792 -102 792 -150 c 2
 792 -152 l 2
 792 -195 838 -224 882 -224 c 0
 940 -224 988 -210 1021 -192 c 1
 1055 -259 l 1
 999 -295 931 -335 840 -335 c 0
 756 -335 656 -268 656 -167 c 0xfc
 656 -48 754 49 754 135 c 0
 754 141 754 146 753 152 c 0
 753 153 752 155 752 156 c 1
 674 81 585 -6 403 -6 c 0
 232 -6 98 135 98 301 c 0
 98 377 128 466 187 527 c 0
 282 624 392 657 510 657 c 0
 595 657 661 630 715 597 c 1
 715 792 648 877 496 877 c 0
 358 877 303 828 223 685 c 1
 93 767 l 1
 189 949 316 1025 494 1028 c 1
 719 1028 869 878 869 657 c 1
 873 318 l 2xfa
254 311 m 0
 254 206 310 146 403 146 c 0
 583 146 690 304 716 345 c 1
 716 440 l 1xfa
 659 475 579 504 509 504 c 0
 373 504 254 429 254 311 c 0
EndSplineSet
Validated: 1
EndChar

StartChar: dcaron
Encoding: 271 271 208
Width: 1100
VWidth: 32
Flags: W
HStem: -7 154<270.142 569.56> 858 155<311.251 585.98> 1391 20<647 811.5> 1395 20G<896.5 987.833>
VStem: 26 158<241.806 717.436> 663 157<241.719 785.775 949 1399.8> 840 152<1025.79 1147.75>
LayerCount: 2
Fore
SplineSet
1101 1367 m 1xde
 1063 1255 1037 1146 992 995 c 1
 840 1029 l 1
 858 1171 886 1312 907 1415 c 1
 1101 1367 l 1xde
EndSplineSet
Refer: 3 100 N 1 0 0 1 -78 0 2
Validated: 1
EndChar

StartChar: Dcroat
Encoding: 272 272 209
Width: 1100
VWidth: 0
Flags: W
HStem: -10 154<250 677.626> 773 148<24 96 254 620> 1176 155<254 559.421>
VStem: 96 158<147 773 921 1173.17> 830 159<312.146 850.696>
LayerCount: 2
Fore
SplineSet
329 1176 m 2
 299 1176 l 2
 283 1176 271 1176 254 1173 c 1
 255 1147 255 1117 255 1086 c 0
 255 1034 254 978 254 921 c 1
 376 921 498 921 620 921 c 1
 621 773 l 1
 254 773 l 1
 253 501 251 233 250 147 c 1
 338 144 383 144 443 144 c 0
 612 144 738 170 803 353 c 0
 819 399 830 489 830 544 c 0
 830 706 794 876 729 973 c 0
 640 1104 550 1176 329 1176 c 2
96 921 m 1
 96 977 l 2
 96 1106 92 1229 83 1317 c 1
 164 1325 209 1331 308 1331 c 0
 579 1331 735 1249 858 1066 c 1
 942 939 989 761 989 580 c 0
 989 511 981 442 968 376 c 0
 920 135 759 14 579 -3 c 0
 524 -8 473 -10 418 -10 c 0
 334 -10 201 -3 87 -3 c 1
 87 31 87 30 90 128 c 1
 90 176 95 483 96 773 c 1
 24 773 l 1
 24 921 l 1
 96 921 l 1
EndSplineSet
Validated: 1
EndChar

StartChar: dcroat
Encoding: 273 273 210
Width: 1100
VWidth: -2
Flags: W
HStem: -7 154<347.869 647.56> 858 155<383.119 663.98> 1118 152<420 736 898 990> 1391 20G<725 886.5>
VStem: 104 156<249.683 713.724> 741 156<241.719 785.775 949 1118 1270 1401.17>
LayerCount: 2
Fore
SplineSet
260 478 m 0
 260 274 315 147 485 147 c 0
 622 147 670 193 741 307 c 1
 741 744 l 1
 689 795 631 858 540 858 c 0
 377 858 260 761 260 478 c 0
897 267 m 1
 897 241 l 2
 897 158 905 72 915 7 c 1
 752 -12 l 1
 747 20 742 42 741 84 c 1
 678 28 597 -7 485 -7 c 0
 210 -7 104 191 104 459 c 0
 104 795 231 1013 554 1013 c 0
 654 1013 692 980 740 949 c 1
 740 1118 l 1
 420 1118 l 1
 420 1270 l 1
 736 1270 l 1
 733 1319 729 1364 725 1403 c 1
 884 1411 l 1
 889 1369 893 1321 895 1270 c 1
 990 1270 l 1
 990 1118 l 1
 898 1118 l 1
 897 267 l 1
EndSplineSet
Validated: 1
EndChar

StartChar: Eogonek
Encoding: 280 280 215
Width: 1100
VWidth: 32
Flags: W
HStem: -397 111<770.429 973.172> -3 163<271 732> 726 164<274 734> 1247 167<274 934>
VStem: 108 166<160 726 890 1247> 627 136<-273.728 -115.159>
LayerCount: 2
Fore
SplineSet
108 1409 m 1
 167 1413 240 1414 322 1414 c 0
 355 1414 389 1414 425 1414 c 2
 541 1414 l 2
 697 1414 840 1410 918 1410 c 2
 934 1410 l 1
 934 1247 l 1
 274 1247 l 1
 274 890 l 1
 734 890 l 1
 734 726 l 1
 274 726 l 1
 274 693 l 2
 274 472 271 244 271 160 c 1
 822 162 l 2
 881 162 945 191 945 191 c 1
 991 29 l 1
 962 21 938 12 908 5 c 1
 850 -81 763 -132 763 -212 c 2
 763 -214 l 2
 763 -257 809 -286 853 -286 c 0
 911 -286 959 -272 992 -254 c 1
 1026 -321 l 1
 970 -357 902 -397 811 -397 c 0
 727 -397 627 -330 627 -229 c 0
 627 -113 676 -62 732 -3 c 1
 108 -3 l 1
 108 1409 l 1
EndSplineSet
Validated: 1
EndChar

StartChar: eogonek
Encoding: 281 281 216
Width: 1100
VWidth: 32
Flags: W
HStem: -413 111<457.429 660.172> 460 150<460.379 784> 869 152<381.998 671.11>
VStem: 98 158<258.9 429.895 580 738.031> 314 136<-289.728 -130.285> 784 159<611 749.303>
LayerCount: 2
Fore
SplineSet
529 1021 m 0
 906 1021 943 641 943 503 c 0
 943 483 943 468 942 460 c 1
 657 456 421 439 256 427 c 1
 256 274 339 143 525 143 c 0
 682 143 770 230 805 286 c 1
 926 183 l 1
 914 163 822 22 598 -5 c 1
 540 -94 450 -147 450 -228 c 2
 450 -230 l 2
 450 -273 496 -302 540 -302 c 0
 598 -302 646 -288 679 -270 c 1
 713 -337 l 1
 657 -373 589 -413 498 -413 c 0
 414 -413 314 -346 314 -245 c 0
 314 -118 371 -70 434 -3 c 1
 207 36 98 236 98 516 c 0
 98 802 246 1021 529 1021 c 0
256 580 m 1
 364 591 606 606 749 610 c 2
 784 611 l 1
 778 767 666 869 530 869 c 0
 360 869 257 734 256 580 c 1
EndSplineSet
Validated: 1
EndChar

StartChar: Iogonek
Encoding: 302 302 235
Width: 1100
VWidth: 32
Flags: W
HStem: -400 111<744.429 947.172> 5 160<142 444 612 717 851.262 892> 1247 168<146 444 612 897>
VStem: 444 168<165 1255> 601 136<-276.728 -115.977>
LayerCount: 2
Fore
SplineSet
140 1415 m 1xf0
 304 1419 409 1419 510 1419 c 0
 620 1419 726 1418 897 1416 c 1
 897 1250 l 1
 768 1250 713 1256 612 1256 c 1
 612 165 l 1xf0
 660 165 687 167 741 167 c 0
 788 167 837 165 892 162 c 1
 892 -1 l 1
 888 -1 884 0 880 0 c 1
 822 -85 737 -136 737 -215 c 2
 737 -217 l 2
 737 -260 783 -289 827 -289 c 0
 885 -289 933 -275 966 -257 c 1
 1000 -324 l 1
 944 -360 876 -400 785 -400 c 0
 701 -400 601 -333 601 -232 c 0xe8
 601 -108 656 -60 717 5 c 1
 702 5 687 5 672 5 c 0
 623 5 571 4 509 4 c 0
 431 4 305 -3 142 -3 c 1
 142 159 l 1
 231 163 305 165 365 165 c 2
 444 165 l 1
 444 1255 l 1
 375 1254 257 1254 146 1247 c 1
 140 1415 l 1xf0
EndSplineSet
Validated: 1
EndChar

StartChar: iogonek
Encoding: 303 303 236
Width: 1100
VWidth: 32
Flags: W
HStem: -388 111<831.429 1034.17> -18 142<607.434 768.477> 857 156<184.467 438> 1178 225<374 609>
VStem: 374 235<1178 1400> 438 160<133.613 857> 688 136<-264.728 -105.778>
LayerCount: 2
Fore
SplineSet
374 1403 m 1xfa
 609 1400 l 1
 609 1175 l 1
 374 1178 l 1
 374 1403 l 1xfa
477 1013 m 2
 597 1013 l 1
 597 740 598 210 598 210 c 1
 603 128 643 124 735 124 c 0
 828 124 952 145 1021 197 c 1
 1089 83 l 1
 1057 56 1016 36 972 20 c 1
 914 -69 824 -122 824 -203 c 2
 824 -205 l 2
 824 -248 870 -277 914 -277 c 0
 972 -277 1020 -263 1053 -245 c 1
 1087 -312 l 1
 1031 -348 963 -388 872 -388 c 0
 788 -388 688 -321 688 -220 c 0
 688 -119 724 -68 771 -17 c 1
 759 -18 748 -18 736 -18 c 0
 651 -18 575 -4 531 20 c 0
 446 67 438 147 438 206 c 2
 438 857 l 1xf6
 389 857 275 851 180 829 c 1
 151 971 l 1
 263 997 373 1013 477 1013 c 2
EndSplineSet
Validated: 1
EndChar

StartChar: Lcaron
Encoding: 317 317 247
Width: 1100
VWidth: 32
Flags: W
HStem: -3 168<318 989.863> 1389 20G<808.5 899.833> 1395 20<149 318>
VStem: 149 169<165 1415> 752 152<1019.79 1141.75>
LayerCount: 2
Fore
SplineSet
1013 1361 m 1xd8
 975 1249 949 1140 904 989 c 1
 752 1023 l 1
 770 1165 798 1306 819 1409 c 1
 1013 1361 l 1xd8
EndSplineSet
Refer: 35 76 N 1 0 0 1 0 0 2
Validated: 1
EndChar

StartChar: lcaron
Encoding: 318 318 248
Width: 1100
VWidth: 32
Flags: W
HStem: -16 142<548.434 911.467> 1020 21G<806.588 918.5> 1273 155<123.466 376> 1420 20G<801.5 892.833>
VStem: 379 160<135.613 1273> 744 152<1050.79 1172.75>
LayerCount: 2
Fore
SplineSet
1006 1392 m 1xdc
 968 1280 941 1171 896 1020 c 1
 744 1054 l 1
 762 1196 791 1337 812 1440 c 1
 1006 1392 l 1xdc
EndSplineSet
Refer: 12 108 N 1 0 0 1 0 0 2
Validated: 1
EndChar

StartChar: Eng
Encoding: 330 330 257
Width: 1100
VWidth: 0
Flags: W
HStem: -391 169<413 650.051> -3 21G<80 247> 1246 167<410.406 687.534> 1414 20G<149.419 212>
VStem: 80 167<-3 1078.07> 795 164<-93.0946 1122.33>
LayerCount: 2
Fore
SplineSet
568 1413 m 0
 872 1413 954 1200 954 937 c 0
 954 685 959 436 959 180 c 2
 959 143 l 2
 959 -136 906 -391 448 -391 c 2
 413 -391 l 1
 413 -222 l 1
 776 -215 795 -63 795 116 c 2
 795 929 l 2
 795 1130 695 1246 570 1246 c 0
 366 1246 285 1072 247 998 c 1
 247 -3 l 1
 80 -3 l 1
 80 1154 l 2
 80 1279 39 1372 39 1372 c 1
 202 1434 l 1
 222 1391 238 1357 245 1273 c 1
 308 1384 425 1413 568 1413 c 0
EndSplineSet
Validated: 1
EndChar

StartChar: eng
Encoding: 331 331 258
Width: 1100
VWidth: 6
Flags: W
HStem: -368 156<452 636.766> 872 150<429.07 690.196>
VStem: 133 158<0 778.144> 717 159<-124.65 841.083>
LayerCount: 2
Fore
SplineSet
291 927 m 1
 417 993 477 1022 587 1022 c 0
 708 1022 876 945 876 796 c 2
 876 211 l 2
 876 -88 874 -368 456 -368 c 2
 452 -368 l 1
 449 -212 l 2
 450 -212 451 -212 452 -212 c 0
 683 -212 717 -114 717 149 c 0
 717 354 717 560 717 765 c 0
 717 839 632 872 565 872 c 0
 502 872 437 830 292 760 c 1
 291 0 l 1
 133 -1 l 1
 133 705 l 2
 133 883 125 909 101 1003 c 1
 261 1040 l 1
 271 1016 284 976 291 927 c 1
EndSplineSet
Validated: 1
EndChar

StartChar: Scedilla
Encoding: 350 350 275
Width: 1100
VWidth: 32
Flags: W
HStem: -410 125<420.445 625.66> -6 161<342.772 465 611 727.433> 1251 168<316.832 703.64>
VStem: 46 166<276.975 450> 77 167<968.253 1182.26> 465 145<-77.4613 -2.61438> 629 136<-278.217 -179.936> 790 167<1104.34 1165.79> 829 168<254.498 561.312>
LayerCount: 2
Fore
SplineSet
260 773 m 1xf680
 164 820 77 919 77 1078 c 0
 77 1313 272 1419 494 1419 c 0
 497 1419 501 1419 504 1419 c 0
 738 1416 917 1333 957 1107 c 1
 790 1076 l 1
 750 1214 662 1251 500 1251 c 0
 393 1251 328 1228 280 1179 c 1
 255 1152 244 1120 244 1083 c 0xef
 244 994 292 951 351 923 c 1
 474 862 638 863 777 798 c 1
 890 741 997 613 997 423 c 0
 997 155 832 15 611 -7 c 1
 610 -28 610 -69 610 -71 c 1
 707 -76 765 -138 765 -242 c 0
 765 -343 665 -410 581 -410 c 0
 515 -410 443 -385 387 -349 c 1
 425 -243 l 1
 458 -261 498 -285 549 -285 c 0
 585 -285 626 -265 629 -227 c 1
 629 -225 l 2
 629 -196 591 -171 543 -171 c 0
 495 -171 493 -178 465 -188 c 1
 465 -6 l 1
 145 25 46 221 46 450 c 1
 212 450 l 1
 212 277 299 155 534 155 c 0
 749 155 829 258 829 414 c 0
 829 531 768 605 685 642 c 0
 563 696 400 708 260 773 c 1xf680
EndSplineSet
Validated: 1
EndChar

StartChar: scedilla
Encoding: 351 351 276
Width: 1100
VWidth: 32
Flags: W
HStem: -420 125<378.445 583.66> -16 139<333.688 423 569 664.31> 881 148<333.448 669.835>
VStem: 112 157<190.518 329> 146 160<706.04 850.139> 423 145<-87.4613 -11.9371> 587 136<-288.217 -189.936> 735 155<188.544 389.011>
LayerCount: 2
Fore
SplineSet
263 571 m 0xf7
 198 606 146 672 146 783 c 0
 147 956 309 1029 484 1029 c 0
 606 1029 782 989 864 888 c 1
 751 777 l 1
 698 839 584 881 498 881 c 0
 392 881 306 847 306 787 c 0xef
 306 739 323 716 363 698 c 1
 628 586 890 565 890 281 c 0
 890 119 776 28 669 0 c 0
 636 -8 603 -13 569 -16 c 1
 568 -36 568 -79 568 -81 c 1
 665 -86 723 -148 723 -252 c 0
 723 -353 623 -420 539 -420 c 0
 473 -420 401 -395 345 -359 c 1
 383 -253 l 1
 416 -271 456 -295 507 -295 c 0
 543 -295 584 -275 587 -237 c 1
 587 -235 l 2
 587 -206 549 -181 501 -181 c 0
 453 -181 451 -188 423 -198 c 1
 423 -16 l 1
 216 8 112 137 112 330 c 1
 269 329 l 1
 269 195 338 123 493 123 c 0
 616 123 735 176 735 286 c 0
 735 359 704 385 649 426 c 1
 572 481 368 516 263 571 c 0xf7
EndSplineSet
Validated: 1
EndChar

StartChar: Tcommaaccent
Encoding: 354 354 279
Width: 1100
VWidth: 32
Flags: W
HStem: -410 125<390.445 595.66> 1247 169<42 424 592 955.953>
VStem: 424 168<-80.9766 1247> 599 136<-278.217 -179.936>
LayerCount: 2
Fore
SplineSet
424 -10 m 1
 424 1247 l 1
 216 1247 122 1246 42 1246 c 1
 42 1415 l 1
 170 1415 647 1416 844 1416 c 0
 921 1416 972 1403 991 1400 c 1
 956 1234 l 1
 956 1234 891 1247 839 1247 c 2
 592 1247 l 1
 592 -10 l 1
 581 -10 l 1
 581 -31 580 -69 580 -71 c 1
 677 -76 735 -138 735 -242 c 0
 735 -343 635 -410 551 -410 c 0
 485 -410 413 -385 357 -349 c 1
 395 -243 l 1
 428 -261 468 -285 519 -285 c 0
 555 -285 596 -265 599 -227 c 1
 599 -225 l 2
 599 -196 561 -171 513 -171 c 0
 465 -171 463 -178 435 -188 c 1
 435 -10 l 1
 424 -10 l 1
EndSplineSet
Validated: 1
EndChar

StartChar: tcommaaccent
Encoding: 355 355 280
Width: 1100
VWidth: 32
Flags: W
HStem: -406 125<452.445 657.66> -5 154<642 780.142> 872 145<152 180>
VStem: 182 159<209.621 865 1017 1245> 497 145<-73.4613 -5> 661 136<-274.217 -175.936>
LayerCount: 2
Fore
SplineSet
341 437 m 1
 341 397 l 2
 341 264 377 163 488 152 c 0
 506 150 583 149 596 149 c 0
 661 149 725 159 750 173 c 0
 807 203 825 258 832 277 c 1
 958 221 l 1
 948 193 925 102 813 37 c 0
 765 9 708 -2 642 -5 c 1
 642 -26 642 -65 642 -67 c 1
 739 -72 797 -134 797 -238 c 0
 797 -339 697 -406 613 -406 c 0
 547 -406 475 -381 419 -345 c 1
 457 -239 l 1
 490 -257 530 -281 581 -281 c 0
 617 -281 658 -261 661 -223 c 1
 661 -221 l 2
 661 -192 623 -167 575 -167 c 0
 527 -167 525 -174 497 -184 c 1
 497 -3 l 1
 368 6 278 42 221 161 c 0
 186 233 182 308 182 394 c 2
 182 437 l 1
 186 541 188 672 194 865 c 1
 180 865 l 2
 152 865 124 861 98 854 c 1
 78 1000 l 1
 102 1009 147 1012 180 1012 c 2
 195 1012 l 1
 195 1082 196 1176 196 1246 c 1
 354 1245 l 1
 354 1179 353 1085 352 1017 c 1
 474 1017 l 1
 619 1018 773 1019 773 1019 c 1
 791 1019 l 1
 791 872 l 1
 474 872 l 2
 428 872 401 869 355 869 c 1
 346 665 345 537 341 437 c 1
EndSplineSet
Validated: 1
EndChar

StartChar: tcaron
Encoding: 357 357 282
Width: 1100
VWidth: 32
Flags: W
HStem: -6 155<403.71 778.905> 872 145<152 180>
VStem: 182 159<209.621 865 1017 1255> 603 152<1106.79 1228.75>
LayerCount: 2
Fore
SplineSet
864 1448 m 1
 826 1336 800 1227 755 1076 c 1
 603 1110 l 1
 621 1252 649 1393 670 1496 c 1
 864 1448 l 1
EndSplineSet
Refer: 19 116 N 1 0 0 1 0 0 2
Validated: 1
EndChar

StartChar: Uogonek
Encoding: 370 370 293
Width: 1100
VWidth: 32
Flags: W
HStem: -414 111<454.429 657.172> 1411 8G<71 240 812 982>
VStem: 65 167<304.484 1419> 311 136<-290.728 -132.533> 803 169<307.281 1417.39>
LayerCount: 2
Fore
SplineSet
817 1431 m 1
 982 1417 l 1
 973 1352 972 1305 972 1246 c 0
 972 1088 974 949 974 828 c 2
 974 765 l 2
 974 512 971 271 853 130 c 0
 784 47 697 10 596 -4 c 1
 538 -95 447 -147 447 -229 c 2
 447 -231 l 2
 447 -274 493 -303 537 -303 c 0
 595 -303 643 -289 676 -271 c 1
 710 -338 l 1
 654 -374 586 -414 495 -414 c 0
 411 -414 311 -347 311 -246 c 0
 311 -121 367 -72 429 -6 c 1
 175 25 89 201 72 487 c 0
 67 569 65 702 65 849 c 0
 65 1036 68 1247 74 1419 c 1
 240 1419 l 1
 236 1239 232 996 232 794 c 0
 232 660 234 544 239 479 c 0
 258 250 344 154 504 154 c 1
 615 159 670 184 727 245 c 1
 797 326 808 550 808 765 c 0
 808 899 803 1059 803 1244 c 0
 803 1321 807 1363 817 1431 c 1
EndSplineSet
Validated: 1
EndChar

StartChar: uogonek
Encoding: 371 371 294
Width: 1100
VWidth: 32
Flags: W
HStem: -405 111<825.429 1028.17> 2 154<340.683 605.04> 1001 20G<152.481 282>
VStem: 134 156<180.892 701.424> 682 136<-281.728 -101.938> 759 158<276.783 1001>
LayerCount: 2
Fore
SplineSet
793 158 m 1xf8
 709 72 612 5 462 2 c 1
 453 2 l 2
 391 2 306 3 246 44 c 0
 201 75 134 132 134 214 c 0
 131 482 138 911 111 994 c 1
 271 1021 l 1
 293 929 288 616 290 250 c 1
 296 216 318 190 340 174 c 0
 354 164 405 156 446 156 c 1
 513 159 554 167 605 198 c 0
 652 226 721 256 759 344 c 1
 760 1001 l 1
 918 1001 l 1
 917 239 l 1xf4
 919 187 968 139 1008 107 c 1
 926 -10 l 1
 868 -105 818 -136 818 -220 c 2
 818 -222 l 2
 818 -265 864 -294 908 -294 c 0
 966 -294 1014 -280 1047 -262 c 1
 1081 -329 l 1
 1025 -365 957 -405 866 -405 c 0
 782 -405 682 -338 682 -237 c 0
 682 -110 793 9 793 152 c 0
 793 154 793 156 793 158 c 1xf8
EndSplineSet
Validated: 1
EndChar

StartChar: longs
Encoding: 383 383 306
Width: 1100
VWidth: -2
Flags: W
HStem: 859 153<132 275> 1266 152<468.036 844.583>
VStem: 132 300<859 1012> 275 157<0 859 1012 1231.57>
LayerCount: 2
Fore
SplineSet
432 1013 m 1xd0
 433 859 435 4 435 0 c 1
 278 0 l 1
 278 25 277 712 275 859 c 1xd0
 132 859 l 1
 132 1012 l 1xe0
 276 1012 l 1
 276 1028 275 1045 275 1064 c 0
 275 1207 303 1418 580 1418 c 0
 799 1418 947 1392 1031 1225 c 1
 905 1148 l 1
 855 1246 793 1266 588 1266 c 0
 441 1266 432 1168 432 1060 c 2
 432 1013 l 1xd0
EndSplineSet
Validated: 1
EndChar

StartChar: Euro
Encoding: 8364 8364 307
Width: 1100
VWidth: 0
Flags: W
HStem: -31 155<475.909 738.308> 431 152<84 180 346 667> 676 151<81 181 351 752> 1180 163<501.603 742.464>
VStem: 180 152<315.292 431 584 676> 197 154<829 979.375>
LayerCount: 2
Fore
SplineSet
803 833 m 1xf4
 752 682 l 1
 740 682 l 1
 683 680 652 676 576 676 c 0
 519 676 434 676 334 676 c 1
 333 653 332 631 332 609 c 0
 332 601 332 593 332 584 c 1
 362 583 380 583 418 583 c 0
 504 583 604 584 693 585 c 1
 719 585 l 1
 667 435 l 1
 346 431 l 1
 373 253 471 124 587 124 c 2
 606 124 l 2
 705 124 785 181 833 287 c 1
 964 200 l 1
 890 26 740 -31 601 -31 c 0
 522 -31 402 3 318 113 c 0
 252 198 208 309 189 432 c 1
 160 433 136 433 111 433 c 0
 92 433 73 433 48 432 c 2
 24 431 l 1
 30 456 l 2
 38 493 61 525 80 572 c 1
 84 583 l 1
 95 583 l 1
 137 584 161 584 180 584 c 1
 180 601 180 617 180 632 c 0xf8
 180 647 180 662 181 676 c 1
 118 677 75 677 46 679 c 2
 21 681 l 1
 31 707 l 2
 48 753 68 790 81 821 c 2
 86 833 l 1
 98 832 l 2
 115 831 151 830 197 829 c 1
 216 942 245 1026 279 1102 c 0
 361 1281 519 1343 618 1343 c 0
 726 1343 831 1287 923 1184 c 1
 858 999 l 1
 804 1102 716 1180 615 1180 c 0
 483 1180 388 1023 351 827 c 1
 394 827 419 827 460 827 c 0
 542 827 614 827 648 827 c 1
 700 829 735 831 777 832 c 2
 803 833 l 1xf4
EndSplineSet
Validated: 1
EndChar

StartChar: uniE000
Encoding: 57344 57344 308
Width: 1100
VWidth: 6
Flags: W
HStem: 390 154<438.981 593.371> 486 158<228.671 389.117>
VStem: 87 635
LayerCount: 2
Fore
SplineSet
96 491 m 1x60
 155 603 218 644 282 644 c 0x60
 386 644 481 544 539 544 c 0
 562 544 586 560 609 624 c 2
 618 650 l 1
 722 546 l 1
 715 532 l 1
 660 430 600 390 539 390 c 0xa0
 435 390 347 486 289 486 c 0
 262 486 239 475 214 409 c 2
 206 387 l 1
 87 475 l 1
 96 491 l 1x60
EndSplineSet
Validated: 1
EndChar

StartChar: uniE001
Encoding: 57345 57345 309
Width: 1100
VWidth: 6
Flags: W
HStem: -312 150<367.529 595.23> -11 152<390.059 510.911> 513 151<423.205 570.976> 894 150<415.333 552.135> 1191 152<365.927 586.731>
VStem: 43 123<166.673 870.319> 239 129<151.289 456.948> 585 117<224.252 496.71> 794 114<148.623 863.075>
LayerCount: 2
Fore
SplineSet
425 141 m 0
 451 141 479 155 496 170 c 0
 561 229 574 299 585 334 c 1
 585 367 584 433 584 452 c 1
 553 495 523 513 492 513 c 0
 491 513 490 513 489 513 c 0
 434 511 368 415 368 310 c 0
 368 308 368 307 368 305 c 0
 371 201 402 141 425 141 c 0
426 -11 m 1
 295 -5 239 154 239 299 c 0
 239 300 239 302 239 303 c 0
 239 380 256 461 291 524 c 0
 349 628 423 661 492 664 c 0
 495 664 497 664 500 664 c 0
 536 664 565 652 584 641 c 1
 575 806 566 894 482 894 c 0
 423 894 416 860 360 727 c 1
 352 709 l 1
 248 770 l 1
 254 787 l 1
 309 963 384 1041 482 1044 c 1
 523 1044 581 1025 622 967 c 0
 664 907 702 805 702 663 c 2
 702 229 l 1
 705 155 710 157 729 133 c 0
 730 131 734 128 737 126 c 1
 747 132 753 149 759 169 c 0
 791 267 794 386 794 515 c 0
 794 900 655 1191 476 1191 c 0
 298 1191 166 901 166 515 c 0
 166 129 306 -162 476 -162 c 0
 536 -162 594 -129 644 -72 c 1
 656 -57 l 1
 733 -153 l 1
 722 -166 l 2
 659 -239 562 -312 476 -312 c 0
 229 -312 43 68 43 515 c 0
 43 962 229 1343 476 1343 c 0
 723 1343 908 962 908 515 c 0
 908 364 886 222 850 98 c 1
 841 71 809 -26 742 -26 c 0
 741 -26 740 -26 739 -26 c 2
 737 -26 l 1
 736 -25 l 1
 717 -20 688 -9 668 16 c 1
 667 16 l 1
 655 34 629 59 616 110 c 1
 593 80 573 65 544 38 c 1
 512 11 471 -11 426 -11 c 1
EndSplineSet
Validated: 1
EndChar

StartChar: uniE002
Encoding: 57346 57346 310
Width: 1100
VWidth: 6
Flags: W
HStem: -310 150<434.529 662.23> -9 153<511.048 629.012> 702 152<520.409 669.08> 1198 153<429.668 628.797>
VStem: 110 123<169.451 874.351> 335 129<193.676 639.402> 703 117<227.653 665.965>
LayerCount: 2
Fore
SplineSet
544 144 m 0
 570 144 597 158 614 173 c 0
 679 232 692 301 703 336 c 1
 703 621 l 1
 671 665 616 702 587 702 c 0
 487 702 464 498 464 375 c 0
 464 370 464 365 464 360 c 0
 467 256 523 144 544 144 c 0
820 703 m 2
 820 703 820 678 820 666 c 2
 820 231 l 1
 823 159 842 126 874 98 c 2
 891 83 l 1
 796 4 l 1
 785 20 l 2
 772 39 747 63 734 113 c 1
 711 83 691 68 662 41 c 1
 630 14 590 -9 544 -9 c 1
 409 -2 335 233 335 378 c 0
 335 379 335 380 335 381 c 0
 335 393 335 407 335 422 c 0
 335 496 339 600 388 711 c 0
 438 823 523 851 591 854 c 0
 593 854 595 854 597 854 c 0
 640 854 678 835 700 821 c 1
 698 854 697 882 695 903 c 0
 686 1031 675 1198 529 1198 c 0
 372 1198 233 905 233 518 c 0
 233 132 373 -160 543 -160 c 0
 603 -160 661 -126 711 -69 c 1
 723 -54 l 1
 799 -150 l 1
 789 -163 l 1
 726 -236 629 -310 543 -310 c 0
 296 -310 110 71 110 518 c 0
 110 964 282 1351 529 1351 c 0
 794 1351 820 996 820 703 c 2
EndSplineSet
Validated: 1
EndChar

StartChar: gravecomb
Encoding: 768 768 311
Width: 1100
VWidth: -43
Flags: W
HStem: 1280 416
VStem: 228 544
LayerCount: 2
Fore
SplineSet
772 1428 m 1
 704 1280 l 1
 561 1327 339 1438 228 1550 c 1
 340 1696 l 1
 455 1588 629 1476 772 1428 c 1
EndSplineSet
Validated: 1
EndChar

StartChar: acutecomb
Encoding: 769 769 312
Width: 1100
VWidth: -43
Flags: W
HStem: 1280 416
VStem: 244 544
LayerCount: 2
Fore
SplineSet
244 1428 m 1
 387 1476 563 1588 678 1696 c 1
 788 1550 l 1
 677 1438 455 1327 312 1280 c 1
 244 1428 l 1
EndSplineSet
Validated: 1
EndChar

StartChar: uni0302
Encoding: 770 770 313
Width: 1100
VWidth: -10
Flags: W
HStem: 1265 405
LayerCount: 2
Fore
SplineSet
541 1670 m 1
 895 1388 l 1
 807 1265 l 1
 541 1468 l 1
 275 1265 l 1
 189 1388 l 1
 541 1670 l 1
EndSplineSet
Validated: 1
EndChar

StartChar: tildecomb
Encoding: 771 771 314
Width: 1100
VWidth: -12
Flags: W
HStem: 1401 153<555.243 737.863> 1431 21G<224.628 263.5> 1522 153<281.244 482.376>
LayerCount: 2
Fore
SplineSet
361 1675 m 0x60
 509 1675 567 1554 657 1554 c 0
 721 1554 744 1598 769 1661 c 1
 905 1585 l 1
 859 1497 803 1401 671 1401 c 0x80
 531 1401 474 1522 373 1522 c 0
 314 1522 274 1485 253 1431 c 1
 131 1517 l 1
 189 1620 251 1675 361 1675 c 0x60
EndSplineSet
Validated: 1
EndChar

StartChar: uni0304
Encoding: 772 772 315
Width: 1100
VWidth: -34
Flags: W
HStem: 1473 152<276 730>
VStem: 276 454<1474 1625>
LayerCount: 2
Fore
SplineSet
730 1625 m 1
 730 1473 l 1
 713 1473 l 1
 655 1471 585 1471 511 1471 c 0
 437 1471 362 1471 294 1473 c 1
 276 1474 l 1
 276 1629 l 1
 295 1627 l 1
 360 1625 457 1625 549 1625 c 0
 610 1625 668 1625 713 1625 c 2
 730 1625 l 1
EndSplineSet
Validated: 1
EndChar

StartChar: uni0305
Encoding: 773 773 316
Width: 1100
VWidth: -34
Flags: W
HStem: 1473 155<107 881>
LayerCount: 2
Fore
SplineSet
881 1625 m 1
 881 1473 l 1
 107 1473 l 1
 107 1628 l 1
 881 1625 l 1
EndSplineSet
Validated: 1
EndChar

StartChar: uni0306
Encoding: 774 774 317
Width: 1100
VWidth: -12
Flags: W
HStem: 1357 153<388.698 668.547>
VStem: 174 156<1571.28 1632.76> 726 166<1566.15 1623.59>
LayerCount: 2
Fore
SplineSet
530 1510 m 0
 638 1510 720 1573 726 1651 c 1
 892 1621 l 1
 868 1444 695 1357 530 1357 c 0
 404 1357 222 1405 174 1630 c 1
 330 1660 l 1
 357 1543 437 1510 530 1510 c 0
EndSplineSet
Validated: 1
EndChar

StartChar: uni0308
Encoding: 776 776 318
Width: 1100
VWidth: -28
Flags: W
HStem: 1416 225<197 432 603 838>
VStem: 197 235<1416 1638> 603 235<1413 1635>
LayerCount: 2
Fore
SplineSet
197 1641 m 1
 432 1638 l 1
 432 1413 l 1
 197 1416 l 1
 197 1641 l 1
603 1638 m 1
 838 1635 l 1
 838 1410 l 1
 603 1413 l 1
 603 1638 l 1
EndSplineSet
Validated: 1
EndChar

StartChar: uni0307
Encoding: 775 775 319
Width: 1100
VWidth: -28
Flags: W
HStem: 1426 225<354 590>
VStem: 354 236<1426 1648>
LayerCount: 2
Fore
SplineSet
354 1651 m 1
 590 1648 l 1
 590 1423 l 1
 354 1426 l 1
 354 1651 l 1
EndSplineSet
Validated: 1
EndChar

StartChar: uni030A
Encoding: 778 778 320
Width: 1100
VWidth: -8
Flags: W
HStem: 1286 116<457.049 622.948> 1543 125<457.396 624.026>
VStem: 312 138<1413.79 1533.01> 631 139<1413.61 1532.57>
LayerCount: 2
Fore
SplineSet
312 1473 m 0
 312 1584 418 1668 541 1668 c 0
 664 1668 770 1584 770 1473 c 0
 770 1363 674 1286 541 1286 c 0
 414 1286 312 1364 312 1473 c 0
540 1543 m 0
 485 1543 450 1508 450 1473 c 0
 450 1438 486 1402 540 1402 c 0
 594 1402 631 1438 631 1473 c 0
 631 1508 595 1543 540 1543 c 0
EndSplineSet
Validated: 1
EndChar

StartChar: uni0237
Encoding: 567 567 321
Width: 1100
VWidth: 0
Flags: W
HStem: -387 156<346.311 611.621> 864 155<394.191 646>
VStem: 647 156<-196.669 864>
LayerCount: 2
Fore
SplineSet
647 -114 m 1
 646 864 l 1
 640 864 636 864 630 864 c 0
 532 864 480 856 390 835 c 1
 362 977 l 1
 474 1003 582 1019 686 1019 c 2
 803 1019 l 1
 803 -118 l 2
 803 -263 742 -387 504 -387 c 0
 381 -387 237 -365 111 -160 c 1
 237 -62 l 1
 336 -224 420 -231 483 -231 c 0
 489 -231 495 -231 500 -231 c 0
 612 -231 645 -149 647 -114 c 1
EndSplineSet
Validated: 1
EndChar

StartChar: uni030B
Encoding: 779 779 322
Width: 1100
VWidth: -43
Flags: W
HStem: 1165 517
LayerCount: 2
Fore
SplineSet
129 1280 m 1
 246 1375 372 1541 442 1682 c 1
 596 1583 l 1
 531 1439 361 1259 243 1165 c 1
 129 1280 l 1
465 1273 m 1
 582 1368 708 1534 778 1675 c 1
 932 1575 l 1
 867 1431 698 1252 580 1158 c 1
 465 1273 l 1
EndSplineSet
Validated: 1
EndChar

StartChar: uni030C
Encoding: 780 780 323
Width: 1100
VWidth: -10
Flags: W
HStem: 1218 405
LayerCount: 2
Fore
SplineSet
541 1218 m 1
 189 1500 l 1
 275 1623 l 1
 541 1420 l 1
 807 1623 l 1
 895 1500 l 1
 541 1218 l 1
EndSplineSet
Validated: 1
EndChar

StartChar: uni030F
Encoding: 783 783 324
Width: 1100
VWidth: -43
Flags: W
HStem: 1162 563
LayerCount: 2
Fore
SplineSet
597 1266 m 1
 472 1162 l 1
 364 1267 213 1464 162 1613 c 1
 326 1696 l 1
 382 1549 490 1372 597 1266 c 1
923 1295 m 1
 798 1191 l 1
 690 1296 539 1493 488 1642 c 1
 652 1725 l 1
 708 1578 816 1401 923 1295 c 1
EndSplineSet
Validated: 1
EndChar

StartChar: hookabovecomb
Encoding: 777 777 325
Width: 1100
VWidth: 12
Flags: W
HStem: 953 175<501.294 644.524> 957 188<500 575.783> 1242 125<455.445 660.66>
VStem: 500 146<957 1034.46> 664 136<1136.94 1235.22>
LayerCount: 2
Fore
SplineSet
646 953 m 1xb8
 500 957 l 1
 500 1145 l 1x78
 528 1135 530 1128 578 1128 c 0
 626 1128 664 1153 664 1182 c 2
 664 1184 l 1
 661 1222 620 1242 584 1242 c 0
 533 1242 493 1218 460 1200 c 1
 422 1306 l 1
 478 1342 550 1367 616 1367 c 0
 700 1367 800 1300 800 1199 c 0
 800 1095 742 1033 645 1028 c 1
 645 1025 645 961 646 953 c 1xb8
EndSplineSet
Validated: 1
EndChar

StartChar: uni030D
Encoding: 781 781 326
Width: 1100
VWidth: -34
Flags: W
HStem: 1280 348<443 602>
VStem: 443 159<1280 1628>
LayerCount: 2
Fore
SplineSet
443 1628 m 1
 602 1628 l 1
 602 1280 l 1
 443 1280 l 1
 443 1628 l 1
EndSplineSet
Validated: 1
EndChar

StartChar: uni0191
Encoding: 401 401 328
Width: 1100
VWidth: 0
Flags: W
HStem: -267 180<27 139.74> 728 164<374 746.161> 1248 167<374 948.737>
VStem: 210 164<-11.6147 726 889 1247>
LayerCount: 2
Fore
SplineSet
19 -87 m 1
 123 -87 211 -1 211 107 c 2
 210 1416 l 1
 842 1415 l 1
 923 1412 973 1396 1009 1377 c 1
 950 1218 l 1
 923 1233 900 1247 797 1248 c 1
 723 1248 l 2
 614 1248 566 1248 374 1247 c 1
 374 889 l 1
 500 889 483 892 611 892 c 0
 703 892 765 876 766 876 c 2
 785 871 l 1
 748 713 l 1
 709 723 655 728 608 728 c 0
 564 728 535 728 510 728 c 0
 472 728 442 728 374 726 c 1
 374 594 379 200 379 99 c 0
 379 -110 221 -258 27 -267 c 1
 19 -87 l 1
EndSplineSet
Validated: 1
EndChar

StartChar: florin
Encoding: 402 402 329
Width: 1100
VWidth: -2
Flags: W
HStem: -313 147<119 254.166> 859 153<204 346 503 834.016> 1266 152<539.822 847.743>
VStem: 346 157<-67.5453 859 1013 1224.24>
LayerCount: 2
Fore
SplineSet
350 152 m 0
 350 177 348 712 346 859 c 1
 204 859 l 1
 204 1012 l 1
 348 1012 l 1
 348 1028 346 1045 346 1064 c 0
 346 1207 375 1418 652 1418 c 0
 813 1418 947 1392 1031 1225 c 1
 905 1148 l 1
 855 1246 792 1266 660 1266 c 0
 513 1266 503 1168 503 1060 c 2
 503 1013 l 1
 571 1013 630 1012 703 1012 c 1
 807 1009 834 1001 864 992 c 1
 835 846 l 1
 814 853 793 859 737 859 c 2
 503 859 l 1
 504 705 506 156 506 152 c 0
 506 -105 438 -313 108 -313 c 1
 119 -166 l 1
 292 -166 350 -24 350 152 c 0
EndSplineSet
Validated: 1
EndChar

StartChar: alpha
Encoding: 945 945 330
Width: 1100
VWidth: 4
Flags: W
HStem: -7 157<316.047 503.007> 865 153<308.334 504.274>
VStem: 51 159<280 745.984>
LayerCount: 2
Fore
SplineSet
803 493 m 1
 827 416 853 329 885 232 c 0
 904 174 928 134 994 108 c 1
 926 -32 l 1
 798 0 754 120 736 180 c 0
 729 203 722 226 715 248 c 1
 650 100 565 -7 434 -7 c 0
 146 -7 51 259 51 527 c 0
 51 894 240 1018 415 1018 c 0
 580 1018 649 940 721 743 c 1
 752 842 784 941 820 1034 c 1
 966 964 l 1
 901 838 855 661 803 493 c 1
210 527 m 0
 210 157 399 150 417 150 c 2
 430 150 l 2
 515 150 579 298 643 494 c 1
 569 745 521 865 404 865 c 0
 326 865 210 766 210 527 c 0
EndSplineSet
Validated: 1
EndChar

StartChar: beta
Encoding: 946 946 331
Width: 1100
VWidth: 0
Flags: W
HStem: 0 153<365.659 695.182> 669 153<273 526.391> 1176 152<268.318 527.771>
VStem: 60 153<-284.195 112 307.561 1117.88> 581 153<877.064 1123.57> 770 154<232.652 553.369>
LayerCount: 2
Fore
SplineSet
218 112 m 1
 218 83 218 59 218 39 c 0
 218 -85 215 -203 207 -300 c 1
 56 -283 l 1
 66 -183 69 -74 69 37 c 0
 69 224 60 829 60 1003 c 0
 60 1159 171 1328 370 1328 c 0
 573 1328 734 1233 734 1011 c 0
 734 909 706 832 650 779 c 1
 827 730 924 598 924 381 c 0
 924 171 831 2 579 0 c 0
 577 0 574 0 572 0 c 0
 418 0 308 39 218 112 c 1
579 153 m 0
 701 153 770 261 770 395 c 0
 770 656 561 669 273 669 c 1
 273 822 l 1
 438 822 581 822 581 1005 c 0
 581 1118 507 1176 370 1176 c 1
 274 1175 213 1083 213 993 c 0
 213 893 216 609 217 367 c 1
 314 192 410 153 579 153 c 0
EndSplineSet
Validated: 1
EndChar

StartChar: gamma
Encoding: 947 947 332
Width: 1100
VWidth: 14
Flags: W
HStem: 889 152<0 75.2925>
VStem: 471 159<-376 115.021>
LayerCount: 2
Fore
SplineSet
471 -376 m 1
 471 -269 468 -10 450 68 c 0
 393 315 254 627 160 784 c 0
 125 843 88 873 76 880 c 0
 61 889 40 889 15 889 c 0
 10 889 5 888 0 888 c 1
 0 1041 l 1
 33 1041 72 1040 100 1036 c 0
 163 1026 213 976 273 883 c 0
 370 731 472 488 542 287 c 1
 616 504 790 1060 790 1060 c 1
 944 1004 l 1
 944 1004 719 388 623 16 c 1
 629 -66 630 -174 630 -290 c 0
 630 -319 630 -349 630 -378 c 1
 471 -376 l 1
EndSplineSet
Validated: 1
EndChar

StartChar: delta
Encoding: 948 948 333
Width: 1100
VWidth: 6
Flags: W
HStem: 1 155<323.159 610.662> 1227 152<292.954 730.382>
VStem: 52 158<272.944 645.668> 99 159<1053.25 1188.2> 725 157<273.541 630.398>
LayerCount: 2
Fore
SplineSet
486 786 m 1xe8
 321 754 210 664 210 469 c 0
 210 274 297 156 464 156 c 1
 540 157 584 173 634 215 c 1
 703 279 725 365 725 506 c 0
 725 631 612 717 486 786 c 1xe8
882 504 m 0
 882 244 786 1 464 1 c 2
 462 1 l 1
 190 2 52 184 52 464 c 0xe8
 52 655 113 804 297 879 c 1
 252 901 212 921 185 942 c 0
 139 979 99 1034 99 1110 c 0
 99 1129 102 1149 107 1171 c 0
 147 1330 287 1379 452 1379 c 0
 576 1379 715 1351 836 1322 c 1
 798 1164 l 1
 665 1201 542 1227 446 1227 c 0
 357 1227 292 1204 265 1147 c 0
 260 1136 258 1126 258 1117 c 0xd8
 258 1089 279 1069 306 1050 c 1
 548 894 882 838 882 504 c 0
EndSplineSet
Validated: 1
EndChar

StartChar: epsilon
Encoding: 949 949 334
Width: 1100
VWidth: 0
Flags: W
HStem: -4 154<261.879 719.193> 510 151<309.985 616> 871 153<286.665 747.822>
VStem: 44 157<206.569 417.619> 103 157<710.3 840.612>
LayerCount: 2
Fore
SplineSet
909 131 m 1xf0
 838 78 695 -4 472 -4 c 0
 290 -4 209 31 134 90 c 0
 57 151 44 236 44 301 c 0xf0
 44 431 109 548 261 584 c 1
 151 608 103 691 103 789 c 0
 103 935 276 1024 481 1024 c 2
 494 1024 l 2
 727 1024 799 972 817 960 c 1
 749 830 l 1
 725 845 628 871 483 871 c 0
 368 871 260 846 260 783 c 0xe8
 260 662 482 661 593 661 c 2
 598 661 l 1
 616 661 l 1
 616 509 l 1
 590 509 564 510 538 510 c 0
 475 510 413 506 339 478 c 0
 228 437 201 366 201 299 c 0
 201 206 292 150 473 150 c 0
 641 150 772 206 823 252 c 1
 909 131 l 1xf0
EndSplineSet
Validated: 1
EndChar

StartChar: zeta
Encoding: 950 950 335
Width: 1100
VWidth: 0
Flags: W
HStem: -306 138<578.507 705.68> 0 150<323.921 726.161> 1191 161<153.899 656.852> 1408 20G<100.906 137 784.5 858.228>
VStem: 62 159<264.24 659.875> 735 156<-130.969 -9.887>
LayerCount: 2
Fore
SplineSet
117 1428 m 1
 157 1386 203 1352 284 1352 c 0
 449 1352 719 1358 850 1376 c 1
 915 1218 l 1
 774 1020 221 871 221 480 c 0
 221 255 311 150 461 150 c 0
 464 150 581 151 584 151 c 0
 759 151 891 91 891 -66 c 0
 891 -274 671 -296 581 -306 c 1
 557 -168 l 1
 641 -155 735 -139 735 -77 c 0
 735 -3 684 0 596 0 c 0
 589 0 583 0 576 0 c 0
 572 0 417 0 413 0 c 0
 212 0 62 177 62 504 c 0
 62 861 421 1027 665 1200 c 1
 535 1193 431 1191 304 1191 c 0
 189 1191 91 1218 14 1300 c 1
 117 1428 l 1
EndSplineSet
Validated: 1
EndChar

StartChar: eta
Encoding: 951 951 336
Width: 1100
VWidth: 6
Flags: W
HStem: 872 150<417.027 687.196>
VStem: 93 158<0 758.239> 714 159<-327.685 841.083>
LayerCount: 2
Fore
SplineSet
251 900 m 1
 359 979 474 1022 584 1022 c 0
 705 1022 873 945 873 796 c 2
 873 -79 l 2
 873 -145 886 -282 904 -330 c 1
 746 -362 l 1
 728 -283 714 -215 714 -86 c 2
 714 765 l 2
 714 839 629 872 562 872 c 0
 499 872 383 820 252 733 c 1
 251 0 l 1
 93 -1 l 1
 93 705 l 2
 93 883 85 909 61 1003 c 1
 221 1040 l 1
 231 1016 244 949 251 900 c 1
EndSplineSet
Validated: 1
EndChar

StartChar: theta
Encoding: 952 952 337
Width: 1100
VWidth: 0
Flags: W
HStem: -16 153<335.938 619.042> 595 158<193.538 789.256> 1170 153<371.707 629.237>
VStem: 21 160<336.789 578.122 732 893.719> 792 160<363.79 590.421 745 957.457>
LayerCount: 2
Fore
SplineSet
790 745 m 1
 782 839 761 939 723 1014 c 0
 665 1128 579 1170 507 1170 c 0
 429 1170 368 1138 310 1062 c 0
 256 992 207 879 188 732 c 1
 407 747 551 753 647 753 c 0
 715 753 760 750 790 745 c 1
502 1323 m 0
 612 1323 952 1233 952 632 c 2
 952 621 l 2
 952 457 906 324 858 231 c 0
 783 87 655 -16 490 -16 c 0
 368 -16 243 32 162 132 c 0
 72 242 21 410 21 590 c 0
 21 867 110 1059 180 1154 c 0
 246 1244 360 1323 502 1323 c 0
268 247 m 0
 317 182 382 137 490 137 c 0
 606 137 677 224 722 307 c 1
 757 363 785 484 792 585 c 1
 748 592 692 595 626 595 c 0
 504 595 349 585 181 576 c 1
 186 470 217 314 268 247 c 0
EndSplineSet
Validated: 1
EndChar

StartChar: iota
Encoding: 953 953 338
Width: 1100
VWidth: 0
Flags: W
HStem: -18 142<535.188 786.718> 857 156<104.467 358>
VStem: 358 160<141.544 857>
LayerCount: 2
Fore
SplineSet
397 1013 m 2
 517 1013 l 1
 517 740 518 259 518 259 c 2
 518 141 563 124 655 124 c 0
 748 124 840 185 890 299 c 1
 1004 221 l 1
 934 71 840 -18 656 -18 c 0
 571 -18 495 -4 451 20 c 0
 366 67 358 196 358 255 c 2
 358 857 l 1
 309 857 195 851 100 829 c 1
 71 971 l 1
 183 997 293 1013 397 1013 c 2
EndSplineSet
Validated: 1
EndChar

StartChar: kappa
Encoding: 954 954 339
Width: 1100
VWidth: 0
Flags: W
HStem: 1000 20G<96 252>
VStem: 96 156<0 375.744 550 1020>
LayerCount: 2
Fore
SplineSet
538 605 m 1
 648 478 913 185 964 50 c 1
 830 -26 l 1
 784 83 545 364 426 501 c 1
 426 501 307 399 252 324 c 1
 252 0 l 1
 96 0 l 1
 96 1020 l 1
 252 1020 l 1
 252 550 l 1
 345 642 450 725 557 819 c 1
 764 997 842 1030 865 1049 c 1
 962 920 l 1
 769 804 604 673 538 605 c 1
EndSplineSet
Validated: 1
EndChar

StartChar: lambda
Encoding: 955 955 340
Width: 1100
VWidth: 14
Flags: W
HStem: -17 21G<122.667 245> 0 156<840.931 947.39> 1234 155<221.02 352.064>
VStem: 46 156<1122 1219.41>
LayerCount: 2
Fore
SplineSet
156 -17 m 1xb0
 16 67 l 1
 113 171 326 724 445 975 c 1
 407 1081 364 1234 290 1234 c 0
 238 1234 202 1186 202 1122 c 1
 46 1122 l 1
 46 1124 l 2
 46 1252 127 1389 286 1389 c 0
 435 1389 507 1280 548 1184 c 0
 656 931 748 596 788 408 c 0
 802 342 837 156 871 156 c 0
 897 156 917 197 917 197 c 1
 1018 87 l 1
 959 22 942 0 856 0 c 0x70
 690 0 660 268 642 348 c 0
 606 507 581 626 537 756 c 1
 388 480 334 273 156 -17 c 1xb0
EndSplineSet
Validated: 1
EndChar

StartChar: mu
Encoding: 956 956 341
Width: 1100
VWidth: 6
Flags: W
HStem: -10 21G<857.5 900.017> -10 21G<857.5 900.017> 2 154<300.683 565.04> 1001 20G<112.481 242>
VStem: 89 157<-400 22 181.338 701.424> 719 158<276.783 1001>
LayerCount: 2
Fore
SplineSet
886 -10 m 1x9c
 829 31 775 72 753 158 c 1
 669 72 572 5 422 2 c 1
 413 2 l 2
 365 2 303 2 249 22 c 1
 246 -400 l 1
 89 -400 l 1
 94 214 l 1
 91 482 98 911 71 994 c 1
 231 1021 l 1
 253 929 248 616 250 250 c 1
 256 216 278 190 300 174 c 0
 314 164 365 156 406 156 c 1x3c
 473 159 514 167 565 198 c 0
 612 226 681 256 719 344 c 1
 720 1001 l 1
 878 1001 l 1
 877 239 l 1
 879 187 928 139 968 107 c 1
 886 -10 l 1x9c
EndSplineSet
Validated: 1
EndChar

StartChar: nu
Encoding: 957 957 342
Width: 1100
VWidth: 6
Flags: W
HStem: -3 21G<347 444>
VStem: 770 156<442.885 950.014>
LayerCount: 2
Fore
SplineSet
133 1048 m 1
 203 973 230 935 256 860 c 0
 301 734 470 256 481 152 c 1
 749 322 770 554 770 733 c 2
 770 738 l 2
 770 830 741 918 709 988 c 1
 851 1044 l 1
 901 928 926 803 926 688 c 0
 926 556 903 394 745 192 c 0
 689 120 541 0 347 -3 c 1
 347 137 146 685 84 839 c 0
 76 860 30 927 4 952 c 1
 133 1048 l 1
EndSplineSet
Validated: 1
EndChar

StartChar: xi
Encoding: 958 958 343
Width: 1100
VWidth: 0
Flags: W
HStem: -320 153<575.126 709.334> 0 150<265.13 726.161> 695 154<566.4 722> 1191 161<154.294 509.462> 1408 20G<102.906 139 666.5 740.354>
VStem: 60 159<195.393 456.211> 243 174<894.745 1043.63> 735 156<-131.01 -9.887>
LayerCount: 2
Fore
SplineSet
119 1428 m 1
 159 1386 205 1352 286 1352 c 0
 451 1352 601 1358 732 1376 c 1
 798 1218 l 1
 717 1144 417 1096 417 964 c 0
 417 871 572 849 722 849 c 1
 722 695 l 1
 459 629 219 547 219 301 c 0
 219 181 311 150 461 150 c 0
 464 150 581 151 584 151 c 0
 759 151 891 91 891 -66 c 0
 891 -274 667 -310 577 -320 c 1
 557 -167 l 1
 641 -154 735 -139 735 -77 c 0
 735 -3 684 0 596 0 c 0
 589 0 583 0 576 0 c 0
 572 0 417 0 413 0 c 0
 212 0 60 58 60 325 c 0
 60 577 280 721 396 757 c 1
 354 768 243 793 243 967 c 0
 243 1122 382 1162 514 1212 c 1
 454 1203 402 1191 306 1191 c 0
 191 1191 93 1218 16 1300 c 1
 119 1428 l 1
EndSplineSet
Validated: 1
EndChar

StartChar: omicron
Encoding: 959 959 344
Width: 1100
VWidth: 6
Flags: W
HStem: 1 155<323.159 610.662> 878 154<332.497 619.881>
VStem: 52 158<272.944 736.885> 723 159<279.587 758.636>
LayerCount: 2
Fore
SplineSet
634 215 m 1
 699 276 723 382 723 530 c 0
 723 536 723 542 723 548 c 0
 721 732 657 878 480 878 c 0
 272 878 210 713 210 469 c 0
 210 274 297 156 464 156 c 1
 540 157 584 173 634 215 c 1
462 1 m 1
 190 2 52 184 52 464 c 0
 52 756 154 1032 446 1032 c 0
 643 1032 753 963 823 831 c 0
 864 752 882 639 882 543 c 0
 882 258 786 1 464 1 c 2
 462 1 l 1
EndSplineSet
Validated: 1
EndChar

StartChar: pi
Encoding: 960 960 345
Width: 1100
VWidth: 6
Flags: W
HStem: -12 21G<146 315> 0 148<791.767 918.911> 861 159<336 610.819 765 847.216>
VStem: 176 160<11.189 853> 632 158<150.732 858.861>
LayerCount: 2
Fore
SplineSet
784 1020 m 0xb8
 825 1020 840 1038 864 1088 c 1
 1014 1014 l 1
 982 940 928 861 796 861 c 2
 765 861 l 1
 783 816 790 758 790 626 c 2
 790 217 l 2
 790 166 808 148 830 148 c 0
 855 148 884 169 902 188 c 1
 972 70 l 1
 935 42 879 0 822 0 c 0x78
 745 0 632 49 632 204 c 2
 632 622 l 2
 632 794 613 815 590 861 c 1
 505 861 421 860 336 860 c 1
 336 215 l 2
 336 142 322 45 308 -12 c 1
 146 8 l 1
 164 76 176 146 176 219 c 2
 176 853 l 1
 130 844 89 827 56 800 c 1
 -8 956 l 1
 42 988 140 1019 240 1019 c 2
 240 1019 572 1020 784 1020 c 0xb8
EndSplineSet
Validated: 1
EndChar

StartChar: rho
Encoding: 961 961 346
Width: 1100
VWidth: -2
Flags: W
HStem: 0 156<440.865 687.372> 878 154<395.643 686.881>
VStem: 118 158<-358.499 168 351.625 747.702> 790 159<279.335 758.636>
LayerCount: 2
Fore
SplineSet
790 530 m 0
 790 536 790 542 790 548 c 0
 788 732 724 878 547 878 c 0
 404 878 277 793 277 549 c 0
 277 328 421 156 566 156 c 1
 743 158 790 329 790 530 c 0
119 562 m 2
 119 854 275 1032 513 1032 c 0
 710 1032 820 963 890 831 c 0
 931 752 949 639 949 543 c 0
 949 258 876 0 554 0 c 2
 552 0 l 2
 415 0 325 80 276 168 c 1
 276 -75 l 2
 276 -206 308 -335 333 -396 c 1
 178 -438 l 1
 150 -376 118 -209 118 -70 c 2
 119 562 l 2
EndSplineSet
Validated: 1
EndChar

StartChar: sigma1
Encoding: 962 962 347
Width: 1100
VWidth: 4
Flags: W
HStem: -351 152<582 709.011> 865 153<333.88 679.499>
VStem: 51 159<291.76 736.59> 740 156<-166.09 -48.8317>
LayerCount: 2
Fore
SplineSet
210 527 m 0
 210 150 422 155 488 150 c 0
 750 129 896 79 896 -95 c 0
 896 -191 846 -343 582 -351 c 1
 560 -199 l 1
 674 -185 740 -168 740 -99 c 0
 740 -33 577 -16 492 -7 c 0
 184 24 51 187 51 527 c 0
 51 894 229 1018 544 1018 c 0
 639 1018 713 994 773 948 c 0
 834 901 865 841 887 789 c 1
 733 729 l 1
 722 770 693 865 533 865 c 0
 312 865 210 766 210 527 c 0
EndSplineSet
Validated: 1
EndChar

StartChar: sigma
Encoding: 963 963 348
Width: 1100
VWidth: 6
Flags: W
HStem: 1 155<323.159 581.698> 874 149<352.001 638.295 776 983.863>
VStem: 52 158<272.944 715.201> 690 159<291.004 816.704>
LayerCount: 2
Fore
SplineSet
776 872 m 1
 784 864 792 853 799 840 c 0
 840 761 849 639 849 543 c 0
 849 258 741 1 464 1 c 2
 462 1 l 1
 190 2 52 184 52 464 c 0
 52 756 160 1019 513 1022 c 0
 530 1022 589 1023 661 1023 c 0
 788 1023 955 1021 1006 1012 c 1
 986 859 l 1
 941 866 858 870 776 872 c 1
605 874 m 1
 597 874 590 874 583 874 c 0
 561 874 546 874 542 874 c 0
 286 874 210 713 210 469 c 0
 210 274 297 156 464 156 c 0
 635 156 690 342 690 530 c 0
 690 536 690 542 690 548 c 0
 688 674 674 807 605 874 c 1
EndSplineSet
Validated: 1
EndChar

StartChar: tau
Encoding: 964 964 349
Width: 1100
VWidth: 0
Flags: W
HStem: -3 155<558.618 777.23> 875 145<107.204 380 541 966>
VStem: 370 159<185.361 875>
LayerCount: 2
Fore
SplineSet
540 1020 m 1
 662 1020 l 2
 710 1020 759 1020 801 1020 c 2
 948 1020 l 1
 966 1020 l 1
 966 873 l 1
 662 875 l 1
 541 875 l 1
 532 671 533 540 529 440 c 1
 529 400 l 2
 529 204 541 152 685 152 c 0
 755 152 802 210 830 286 c 1
 962 228 l 1
 942 172 884 -3 687 -3 c 0
 424 -3 370 109 370 397 c 2
 370 440 l 1
 374 544 374 683 380 876 c 1
 360 875 246 874 246 874 c 2
 176 873 118 839 68 807 c 1
 0 933 l 1
 50 977 145 1019 241 1019 c 2
 540 1020 l 1
EndSplineSet
Validated: 1
EndChar

StartChar: upsilon
Encoding: 965 965 350
Width: 1100
VWidth: 6
Flags: W
HStem: -4 156<314.513 584.023> 1012 20G<112.481 239.5>
VStem: 94 156<217.662 1001.91> 770 156<372.78 977.938>
LayerCount: 2
Fore
SplineSet
94 366 m 0
 94 426 94 489 94 549 c 0
 94 753 92 941 71 1005 c 1
 231 1032 l 1
 248 960 250 778 250 573 c 0
 250 517 250 459 250 402 c 0
 250 223 314 152 447 152 c 0
 505 152 616 193 672 273 c 0
 759 398 770 500 770 738 c 0
 770 830 748 932 716 1002 c 1
 876 1046 l 1
 912 962 926 820 926 754 c 0
 926 750 926 746 926 742 c 0
 926 730 926 717 926 705 c 0
 926 514 921 303 748 123 c 0
 685 57 565 -4 402 -4 c 0
 209 -4 94 167 94 366 c 0
EndSplineSet
Validated: 1
EndChar

StartChar: phi
Encoding: 966 966 351
Width: 1100
VWidth: 0
Flags: W
HStem: -11 156<559 647.183> 894 146<590.215 753.587>
VStem: 21 157<320.826 846.774> 400 158<-396 -2.52826 148 863.528> 796 156<339.325 855.219>
LayerCount: 2
Fore
SplineSet
559 -11 m 1
 561 -215 563 -377 564 -398 c 1
 402 -396 l 1
 400 -375 400 -211 400 -8 c 1
 308 9 220 52 159 127 c 0
 69 237 21 389 21 569 c 0
 21 797 75 963 168 1044 c 1
 294 954 l 1
 213 870 178 765 178 573 c 0
 178 469 208 315 264 242 c 0
 298 197 341 164 400 148 c 1
 400 640 l 2
 400 955 511 1040 655 1040 c 0
 794 1040 952 1010 952 632 c 2
 952 621 l 2
 952 457 908 304 860 211 c 0
 796 88 691 9 559 -11 c 1
558 145 m 1
 637 165 692 218 728 284 c 1
 768 348 795 517 796 624 c 1
 796 643 l 2
 796 812 768 894 657 894 c 2
 656 894 l 2
 629 894 556 893 556 644 c 0
 556 502 557 318 558 145 c 1
EndSplineSet
Validated: 1
EndChar

StartChar: chi
Encoding: 967 967 352
Width: 1100
VWidth: 14
Flags: W
HStem: -398 156<838.01 959.917> 888 153<0 142.48>
LayerCount: 2
Fore
SplineSet
404 289 m 1
 351 465 303 631 191 792 c 0
 133 876 78 888 0 888 c 1
 0 1041 l 1
 147 1041 215 1032 311 913 c 0
 415 784 521 466 521 466 c 1
 614 667 790 1060 790 1060 c 1
 944 1004 l 1
 944 1004 776 606 615 273 c 1
 658 100 819 -242 894 -242 c 0
 925 -242 923 -223 931 -211 c 1
 1023 -270 l 1
 1017 -308 993 -398 891 -398 c 0
 673 -398 539 -6 497 114 c 1
 266 -410 l 1
 89 -338 l 1
 404 289 l 1
EndSplineSet
Validated: 1
EndChar

StartChar: psi
Encoding: 968 968 353
Width: 1100
VWidth: 6
Flags: W
HStem: -4 158<288.006 407> 1012 8G<70.4815 197.5 413 573>
VStem: 52 156<233.567 1001.91> 408 162<-392.108 -4 168 1020> 822 156<372.78 977.938>
LayerCount: 2
Fore
SplineSet
52 366 m 0
 52 426 52 489 52 549 c 0
 52 753 50 941 29 1005 c 1
 189 1032 l 1
 206 960 208 778 208 573 c 0
 208 517 208 459 208 402 c 0
 208 240 284 166 408 154 c 1
 409 438 413 693 413 927 c 2
 413 1020 l 1
 573 1020 l 1
 573 875 l 2
 573 639 571 431 570 168 c 1
 636 187 688 222 724 273 c 0
 811 398 822 500 822 738 c 0
 822 830 800 932 768 1002 c 1
 928 1046 l 1
 964 962 978 820 978 754 c 0
 978 750 978 746 978 742 c 0
 978 730 978 717 978 705 c 0
 978 514 973 303 800 123 c 0
 754 75 695 29 570 8 c 1
 570 -124 l 2
 570 -239 569 -295 564 -396 c 1
 403 -395 l 1
 407 -333 408 -290 408 -235 c 0
 408 -188 407 -132 407 -46 c 0
 407 -32 407 -18 407 -4 c 1
 405 -4 404 -4 402 -4 c 0
 182 -4 52 167 52 366 c 0
EndSplineSet
Validated: 1
EndChar

StartChar: omega
Encoding: 969 969 354
Width: 1100
VWidth: 6
Flags: W
HStem: -10 155<227.366 376.525 620.099 776.103> 1013 20G<814.939 915>
VStem: 15 162<200.065 835.613> 416 155<195.231 684> 822 157<189.339 805.891>
LayerCount: 2
Fore
SplineSet
414 684 m 1
 573 703 l 1
 571 618 572 524 571 431 c 1
 572 423 572 414 572 405 c 0
 574 224 624 144 705 144 c 0
 794 144 822 270 822 420 c 0
 822 633 794 835 709 967 c 1
 861 1033 l 1
 969 852 979 582 979 441 c 0
 979 218 926 -12 681 -12 c 0
 606 -12 539 33 492 104 c 1
 442 34 373 -10 297 -10 c 0
 71 -10 15 220 15 444 c 0
 15 612 21 858 131 1041 c 1
 283 975 l 1
 202 848 177 675 177 468 c 0
 177 299 210 145 290 145 c 0
 360 145 405 196 418 321 c 1
 417 337 416 352 416 368 c 0
 415 474 416 584 414 684 c 1
EndSplineSet
Validated: 1
EndChar

StartChar: Alpha
Encoding: 913 913 357
Width: 1100
VWidth: 0
Flags: W
HStem: 326 163<346.805 677>
LayerCount: 2
Fore
SplineSet
677 490 m 1
 517 982 l 1
 344 470 l 1
 404 483 454 485 537 489 c 1
 677 490 l 1
461 1298 m 1
 573 1298 l 1
 997 11 l 1
 833 -19 l 1
 734 326 l 1
 593 323 398 324 287 297 c 1
 185 -24 l 1
 23 0 l 1
 461 1298 l 1
EndSplineSet
Validated: 1
EndChar

StartChar: Beta
Encoding: 914 914 358
Width: 1100
VWidth: 0
Flags: W
HStem: -5 151<251 672.386> 647 156<257 529.155> 1150 149<255 530.519>
VStem: 97 158<153 647 803 1143.26> 591 157<858.454 1093.57> 783 159<255.577 547.611>
LayerCount: 2
Fore
SplineSet
97 823 m 0
 97 996 94 1158 85 1285 c 1
 166 1291 215 1299 328 1299 c 0
 334 1299 340 1299 346 1299 c 0
 552 1299 748 1218 748 1002 c 0
 748 906 723 823 662 767 c 1
 817 715 942 583 942 393 c 0
 942 168 793 23 626 3 c 0
 587 -2 546 -5 507 -5 c 0
 422 -5 332 3 224 3 c 2
 88 3 l 1
 88 197 97 407 97 823 c 0
591 992 m 2
 591 1105 494 1150 357 1150 c 2
 340 1150 l 2
 301 1150 285 1148 255 1145 c 1
 258 1108 259 1064 259 1017 c 0
 259 950 257 877 257 803 c 1
 403 806 453 799 543 854 c 0
 570 870 591 925 591 984 c 2
 591 992 l 2
708 578 m 0
 635 639 574 649 479 649 c 0
 430 649 372 647 299 647 c 2
 255 647 l 1
 253 410 252 229 251 153 c 1
 359 153 399 146 474 146 c 0
 514 146 549 148 584 153 c 0
 690 166 783 265 783 409 c 0
 783 488 760 535 708 578 c 0
EndSplineSet
Validated: 1
EndChar

StartChar: Gamma
Encoding: 915 915 359
Width: 1100
VWidth: 0
Flags: W
HStem: 1147 154<272 911.956>
VStem: 111 161<0 1147>
LayerCount: 2
Fore
SplineSet
111 1301 m 1
 795 1301 l 2
 870 1301 908 1287 955 1271 c 1
 914 1125 l 1
 870 1140 852 1144 793 1147 c 1
 272 1147 l 1
 272 0 l 1
 111 0 l 1
 111 1301 l 1
EndSplineSet
Validated: 1
EndChar

StartChar: Epsilon
Encoding: 917 917 360
Width: 1100
VWidth: 0
Flags: W
HStem: -3 150<257 898.956> 666 150<260 698> 1144 153<260 889>
VStem: 102 158<147 666 816 1144>
LayerCount: 2
Fore
SplineSet
102 1293 m 1
 158 1297 228 1297 306 1297 c 0
 337 1297 370 1297 404 1297 c 2
 514 1297 l 2
 663 1297 799 1294 873 1294 c 2
 889 1294 l 1
 889 1144 l 1
 260 1144 l 1
 260 816 l 1
 698 816 l 1
 698 666 l 1
 260 666 l 1
 260 636 l 2
 260 433 257 224 257 147 c 1
 782 149 l 2
 838 149 899 175 899 175 c 1
 943 27 l 1
 895 14 860 -3 784 -3 c 2
 102 -3 l 1
 102 1293 l 1
EndSplineSet
Validated: 1
EndChar

StartChar: Zeta
Encoding: 918 918 361
Width: 1100
VWidth: 0
Flags: W
HStem: -3 153<263 923.981> 1150 152<89 755>
LayerCount: 2
Fore
SplineSet
123 -5 m 1
 28 83 l 1
 755 1150 l 1
 541 1150 203 1145 89 1145 c 1
 88 1298 l 1
 208 1298 630 1302 818 1302 c 0
 893 1302 939 1289 958 1286 c 1
 955 1253 944 1172 940 1149 c 1
 263 151 l 1
 750 150 l 2
 835 150 862 154 927 175 c 1
 967 27 l 1
 922 11 884 -3 809 -3 c 2
 566 -3 l 2
 354 -3 178 -5 130 -5 c 2
 123 -5 l 1
EndSplineSet
Validated: 1
EndChar

StartChar: Eta
Encoding: 919 919 362
Width: 1100
VWidth: 0
Flags: W
HStem: 625 152<224.549 754>
VStem: 60 159<0 604.438 749 1294> 754 158<0 625 777 1291>
LayerCount: 2
Fore
SplineSet
220 1296 m 1
 219 749 l 1
 311 770 406 777 526 777 c 2
 754 777 l 1
 754 1051 753 1129 753 1291 c 1
 912 1291 l 1
 912 0 l 1
 754 0 l 1
 754 625 l 1
 711 625 668 625 625 625 c 0
 479 625 337 622 219 597 c 1
 219 254 221 181 221 0 c 1
 60 0 l 1
 60 1294 l 1
 220 1296 l 1
EndSplineSet
Validated: 1
EndChar

StartChar: Theta
Encoding: 920 920 363
Width: 1100
VWidth: 0
Flags: W
HStem: -16 153<349.716 653.474> 572 153<296 710> 1170 153<376.35 654.552>
VStem: 41 159<320.826 920.593> 814 158<350.765 944.703>
LayerCount: 2
Fore
SplineSet
296 725 m 1
 710 725 l 1
 710 572 l 1
 296 572 l 1
 296 725 l 1
522 1323 m 1
 646 1323 967 1249 972 632 c 1
 972 621 l 2
 972 457 928 304 880 211 c 0
 805 67 675 -16 510 -16 c 0
 388 -16 260 27 179 127 c 0
 89 237 41 389 41 569 c 0
 41 914 118 1063 188 1158 c 0
 254 1248 366 1320 522 1323 c 1
284 242 m 0
 333 177 402 137 510 137 c 0
 626 137 698 204 743 287 c 1
 783 351 813 517 814 624 c 1
 814 643 l 2
 814 758 796 911 743 1014 c 0
 685 1128 615 1170 527 1170 c 0
 432 1170 376 1142 318 1066 c 0
 249 977 200 835 200 573 c 0
 200 469 228 315 284 242 c 0
EndSplineSet
Validated: 1
EndChar

StartChar: Iota
Encoding: 921 921 364
Width: 1100
VWidth: 0
Flags: W
HStem: 4 147<134 422 582 849> 1144 154<138 422 582 853>
VStem: 422 160<152 1151>
LayerCount: 2
Fore
SplineSet
132 1298 m 1
 288 1302 389 1302 485 1302 c 0
 590 1302 690 1301 853 1299 c 1
 853 1147 l 1
 730 1147 678 1152 582 1152 c 1
 582 152 l 1
 628 152 654 153 705 153 c 0
 750 153 797 152 849 149 c 1
 849 -1 l 1
 764 4 702 5 639 5 c 0
 592 5 543 4 484 4 c 0
 410 4 289 -3 134 -3 c 1
 134 146 l 1
 219 150 290 151 347 151 c 2
 422 151 l 1
 422 1151 l 1
 356 1150 244 1150 138 1144 c 1
 132 1298 l 1
EndSplineSet
Validated: 1
EndChar

StartChar: Kappa
Encoding: 922 922 365
Width: 1100
VWidth: 0
Flags: W
HStem: -5 9G<116 274 845 903.263> 1288 20G<116 274 851.5 882.943>
VStem: 116 158<-5 508.713 703 1308>
LayerCount: 2
Fore
SplineSet
484 725 m 1
 604 608 951 194 1002 59 c 1
 868 -17 l 1
 822 92 518 474 388 600 c 1
 388 600 304 502 274 431 c 1
 274 -5 l 1
 116 -5 l 1
 116 1308 l 1
 274 1308 l 1
 274 703 l 1
 354 814 425 893 524 996 c 1
 715 1191 841 1289 862 1310 c 1
 973 1204 l 1
 791 1072 544 798 484 725 c 1
EndSplineSet
Validated: 1
EndChar

StartChar: Mu
Encoding: 924 924 366
Width: 1100
VWidth: 31
Flags: W
HStem: -5 21G<61.9542 220 730.957 888> 1293 20G<59 193.5 730.5 887.015>
VStem: 62 158<-5 900> 731 157<-5 920>
LayerCount: 2
Fore
SplineSet
59 1304 m 1
 160 1313 l 1
 227 1216 301 1060 370 938 c 0
 420 848 446 797 465 759 c 1
 548 914 690 1183 771 1313 c 1
 887 1313 l 1
 888 -5 l 1
 731 -5 l 1
 729 920 l 1
 655 779 538 575 527 539 c 1
 405 542 l 1
 397 558 339 668 251 837 c 1
 230 881 235 872 220 900 c 1
 220 -5 l 1
 62 -5 l 1
 59 1304 l 1
EndSplineSet
Validated: 1
EndChar

StartChar: Nu
Encoding: 925 925 367
Width: 1100
VWidth: 0
Flags: W
HStem: -3 18G<75 234 670.5 911>
VStem: 75 158<-3 1001> 750 158<-5 92.9198 357 1297>
LayerCount: 2
Fore
SplineSet
752 -6 m 1
 589 351 435 648 233 1001 c 1
 233 797 l 2
 233 504 234 149 234 -3 c 1
 75 -3 l 1
 75 1298 l 1
 234 1294 l 1
 360 1110 636 605 753 357 c 1
 751 487 750 623 750 757 c 0
 750 943 753 1126 762 1297 c 1
 916 1297 l 1
 910 1184 908 1035 908 872 c 0
 908 646 912 392 912 162 c 0
 912 105 911 48 911 -5 c 1
 752 -6 l 1
EndSplineSet
Validated: 1
EndChar

StartChar: Omicron
Encoding: 927 927 368
Width: 1100
VWidth: 0
Flags: W
HStem: -16 153<349.716 653.474> 1170 153<376.35 654.552>
VStem: 41 159<320.826 920.593> 814 158<350.765 944.703>
LayerCount: 2
Fore
SplineSet
522 1323 m 1
 646 1323 967 1249 972 632 c 1
 972 621 l 2
 972 457 928 304 880 211 c 0
 805 67 675 -16 510 -16 c 0
 388 -16 260 27 179 127 c 0
 89 237 41 389 41 569 c 0
 41 914 118 1063 188 1158 c 0
 254 1248 366 1320 522 1323 c 1
284 242 m 0
 333 177 402 137 510 137 c 0
 626 137 698 204 743 287 c 1
 783 351 813 517 814 624 c 1
 814 643 l 2
 814 758 796 911 743 1014 c 0
 685 1128 615 1170 527 1170 c 0
 432 1170 376 1142 318 1066 c 0
 249 977 200 835 200 573 c 0
 200 469 228 315 284 242 c 0
EndSplineSet
Validated: 1
EndChar

StartChar: Rho
Encoding: 929 929 369
Width: 1100
VWidth: 0
Flags: W
HStem: -10 21G<104 262> -10 21G<104 262> 460 152<263 667.396> 1151 151<264 693.907>
VStem: 104 160<-9 463 613 1146> 815 162<736.562 1049.37>
LayerCount: 2
Fore
SplineSet
815 900 m 0x3c
 815 1108 661 1145 415 1151 c 1
 354 1151 309 1147 264 1146 c 1
 264 1020 l 2
 264 837 263 613 263 613 c 1
 299 612 333 612 366 612 c 0
 652 612 815 672 815 900 c 0x3c
262 -10 m 1xbc
 104 -9 l 1
 104 1294 l 1
 222 1294 260 1302 393 1302 c 0
 618 1302 789 1289 904 1151 c 0
 958 1086 977 996 977 906 c 0
 977 815 970 715 910 628 c 0
 812 488 655 460 416 460 c 0
 368 460 317 461 263 463 c 1
 263 200 262 146 262 -10 c 1xbc
EndSplineSet
Validated: 1
EndChar

StartChar: Tau
Encoding: 932 932 370
Width: 1100
VWidth: 0
Flags: W
HStem: -9 21G<403 563> -9 21G<403 563> 1144 155<39 403 563 909.955>
VStem: 403 160<-9 1144>
LayerCount: 2
Fore
SplineSet
403 -9 m 1xb0
 403 1144 l 1
 205 1144 115 1143 39 1143 c 1
 39 1298 l 1
 161 1298 615 1299 803 1299 c 0
 876 1299 925 1287 943 1284 c 1
 910 1132 l 1
 910 1132 848 1144 798 1144 c 2
 563 1144 l 1
 563 -9 l 1
 403 -9 l 1xb0
EndSplineSet
Validated: 1
EndChar

StartChar: Upsilon
Encoding: 933 933 371
Width: 1100
VWidth: 0
Flags: W
HStem: -6 21G<399 559> 1308 20G<133.563 193 809 863.19>
VStem: 399 160<-6 640.323>
LayerCount: 2
Fore
SplineSet
399 -6 m 1
 399 135 l 2
 399 225 406 482 406 601 c 1
 327 712 84 1151 33 1257 c 1
 173 1328 l 1
 213 1251 405 896 492 759 c 1
 590 898 790 1254 828 1341 c 1
 967 1262 l 1
 920 1168 847 1026 742 858 c 1
 655 727 585 616 566 590 c 1
 566 543 564 495 564 441 c 1
 561 309 559 167 559 125 c 2
 559 -6 l 1
 399 -6 l 1
EndSplineSet
Validated: 1
EndChar

StartChar: Chi
Encoding: 935 935 372
Width: 1100
VWidth: 0
Flags: W
HStem: 1320 11G<121.118 213 782.207 825.529>
LayerCount: 2
Fore
SplineSet
794 1340 m 1
 928 1255 l 1
 568 657 l 1
 739 390 836 214 978 77 c 1
 874 -36 l 1
 722 111 630 266 478 508 c 1
 160 -31 l 1
 28 54 l 1
 380 654 l 1
 260 858 163 1082 23 1238 c 1
 148 1331 l 1
 278 1185 372 971 475 799 c 1
 794 1340 l 1
EndSplineSet
Validated: 1
EndChar

StartChar: Delta
Encoding: 916 916 373
Width: 1100
VWidth: 0
Flags: W
HStem: -5 156<236 791>
LayerCount: 2
Fore
SplineSet
517 982 m 1
 423 698 326 438 236 151 c 1
 791 151 l 1
 710 444 608 699 517 982 c 1
834 0 m 1
 186 -5 l 1
 24 19 l 1
 461 1298 l 1
 573 1298 l 1
 998 30 l 1
 834 0 l 1
EndSplineSet
Validated: 1
EndChar

StartChar: Lambda
Encoding: 923 923 374
Width: 1100
VWidth: 0
Flags: W
LayerCount: 2
Fore
SplineSet
833 -19 m 1
 723 318 625 651 517 982 c 1
 403 650 309 306 185 -24 c 1
 23 0 l 1
 461 1298 l 1
 573 1298 l 1
 997 11 l 1
 833 -19 l 1
EndSplineSet
Validated: 1
EndChar

StartChar: Xi
Encoding: 926 926 375
Width: 1100
VWidth: 0
Flags: W
HStem: -3 150<102 898.956> 666 150<260 698> 1144 153<104 889>
LayerCount: 2
Fore
SplineSet
100 147 m 1
 782 149 l 2
 838 149 899 175 899 175 c 1
 943 27 l 1
 895 14 860 -3 784 -3 c 2
 102 -3 l 1
 100 147 l 1
102 1293 m 1
 158 1297 228 1297 306 1297 c 0
 337 1297 370 1297 404 1297 c 2
 514 1297 l 2
 663 1297 799 1294 873 1294 c 2
 889 1294 l 1
 889 1144 l 1
 104 1144 l 1
 102 1293 l 1
260 816 m 1
 698 816 l 1
 698 666 l 1
 260 666 l 1
 260 816 l 1
EndSplineSet
Validated: 1
EndChar

StartChar: Pi
Encoding: 928 928 376
Width: 1100
VWidth: 0
Flags: W
HStem: -4 21G<772.5 936> 1144 152<301.493 753 912 1000>
VStem: 139 161<0 1131> 753 159<14.4902 1144>
LayerCount: 2
Fore
SplineSet
300 0 m 1
 139 0 l 1
 139 1131 l 1
 110 1127 82 1122 52 1116 c 1
 33 1268 l 1
 125 1289 220 1296 340 1296 c 2
 1000 1296 l 1
 1000 1144 l 1
 912 1144 l 1
 912 378 l 2
 912 251 922 126 936 9 c 1
 782 -4 l 1
 763 117 753 255 753 384 c 2
 753 1144 l 1
 421 1144 l 2
 377 1144 337 1144 299 1143 c 1
 300 0 l 1
EndSplineSet
Validated: 1
EndChar

StartChar: Sigma
Encoding: 931 931 377
Width: 1100
VWidth: 0
Flags: W
HStem: -3 150<265 898.956> 1144 153<321 889>
LayerCount: 2
Fore
SplineSet
321 1144 m 1
 745 752 l 1
 738 620 l 1
 265 147 l 1
 782 149 l 2
 838 149 899 175 899 175 c 1
 943 27 l 1
 895 14 860 -3 784 -3 c 2
 102 -3 l 1
 77 172 l 1
 594 687 l 1
 72 1170 l 1
 102 1293 l 1
 158 1297 228 1297 306 1297 c 0
 337 1297 370 1297 404 1297 c 2
 514 1297 l 2
 663 1297 799 1294 873 1294 c 2
 889 1294 l 1
 889 1144 l 1
 321 1144 l 1
EndSplineSet
Validated: 1
EndChar

StartChar: Phi
Encoding: 934 934 378
Width: 1100
VWidth: 0
Flags: W
HStem: 170 165<305.498 415> 984 154<576 689.136> 1287 20G<416 576>
VStem: 41 159<442.682 827.234> 416 160<1 173.904 335 975 1131.33 1307> 814 158<464.347 841.499>
LayerCount: 2
Fore
SplineSet
415 335 m 1
 415 585 416 781 416 975 c 1
 380 965 349 947 318 921 c 0
 249 864 200 773 200 605 c 0
 200 538 228 441 284 394 c 0
 317 366 359 345 415 335 c 1
578 332 m 1
 655 345 708 380 743 422 c 1
 783 463 813 570 814 638 c 1
 814 650 l 2
 814 724 796 822 743 888 c 0
 696 947 641 975 576 984 c 1
 577 798 578 639 578 382 c 2
 578 332 l 1
416 170 m 1
 326 182 239 214 179 268 c 0
 89 348 41 460 41 591 c 0
 41 843 118 952 188 1021 c 0
 238 1071 314 1113 416 1131 c 1
 416 1158 416 1186 416 1214 c 2
 416 1307 l 1
 576 1307 l 1
 576 1162 l 1
 576 1138 l 1
 720 1122 968 1031 972 637 c 1
 972 629 l 2
 972 509 928 397 880 329 c 0
 816 239 711 182 578 168 c 1
 578 142 579 122 579 102 c 0
 579 74 578 46 576 0 c 1
 414 1 l 1
 416 32 416 49 416 64 c 0
 416 79 416 93 416 121 c 0
 416 136 416 152 416 170 c 1
EndSplineSet
Validated: 1
EndChar

StartChar: Psi
Encoding: 936 936 379
Width: 1100
VWidth: 6
Flags: W
HStem: 403 159<348.496 458 623 750.397> 1302 8G<104.481 231.5 465 625 842 1003>
VStem: 86 156<661.793 1291.96> 458 163<1 407.126 562 1310> 856 156<677.08 1298.04>
LayerCount: 2
Fore
SplineSet
86 770 m 0
 86 830 86 886 86 937 c 0
 86 1110 84 1231 63 1295 c 1
 223 1322 l 1
 240 1250 242 1138 242 963 c 0
 242 915 242 863 242 806 c 0
 242 656 341 582 460 562 c 1
 462 782 465 1021 465 1217 c 2
 465 1310 l 1
 625 1310 l 1
 625 1165 l 2
 625 984 625 773 623 561 c 1
 825 586 856 708 856 1028 c 1
 855 1120 851 1220 842 1298 c 1
 998 1315 l 1
 1008 1233 1012 1132 1012 1066 c 0
 1012 1053 1012 1042 1012 1032 c 0
 1012 681 980 439 621 404 c 1
 619 264 617 127 614 0 c 1
 453 1 l 1
 457 63 458 220 458 275 c 0
 458 316 458 359 458 403 c 1
 203 426 86 586 86 770 c 0
EndSplineSet
Validated: 1
EndChar

StartChar: Omega
Encoding: 937 937 380
Width: 1100
VWidth: 0
Flags: W
HStem: 1 150<36 201 363.544 394 795 990.956> 1170 153<355.293 696.908>
VStem: 18 159<417.563 946.374> 848 158<446.006 998.677>
LayerCount: 2
Fore
SplineSet
394 1 m 1
 36 1 l 1
 34 151 l 1
 201 151 l 1
 107 268 18 443 18 620 c 0
 18 965 90 1062 160 1157 c 0
 226 1247 350 1323 522 1323 c 0
 758 1323 1006 1233 1006 683 c 2
 1006 672 l 2
 1006 423 885 250 795 151 c 1
 874 152 l 2
 930 152 991 178 991 178 c 1
 1035 30 l 1
 988 17 954 0 882 0 c 0
 880 0 878 0 876 0 c 2
 608 0 l 1
 579 148 l 1
 652 209 848 383 848 675 c 2
 848 694 l 2
 848 706 848 717 848 729 c 0
 848 831 846 927 798 1020 c 0
 740 1134 615 1170 527 1170 c 0
 432 1170 348 1141 290 1065 c 0
 221 976 177 886 177 624 c 0
 177 413 340 185 421 152 c 1
 394 1 l 1
EndSplineSet
Validated: 1
EndChar

StartChar: tonos
Encoding: 900 900 381
Width: 1100
VWidth: -43
Flags: W
HStem: 1222 464
VStem: 519 171<1544.67 1627.37>
LayerCount: 2
Fore
SplineSet
342 1311 m 1
 437 1428 480 1533 519 1686 c 1
 690 1622 l 1
 657 1468 574 1338 479 1222 c 1
 342 1311 l 1
EndSplineSet
Validated: 1
EndChar

StartChar: uni03D0
Encoding: 976 976 402
Width: 1100
VWidth: 0
Flags: W
HStem: 0 153<382.08 683.535> 1176 152<326.166 546.727>
VStem: 69 158<355.459 652.156 799 1033.21> 601 153<885.75 1123.57> 790 154<256.862 551.414>
LayerCount: 2
Fore
SplineSet
69 736 m 0
 69 1156 228 1328 414 1328 c 0
 597 1328 754 1233 754 1011 c 0
 754 909 726 832 670 779 c 1
 847 730 944 598 944 381 c 0
 944 171 811 0 543 0 c 0
 125 0 69 332 69 736 c 0
228 799 m 1
 409 811 601 822 601 1005 c 0
 601 1118 525 1176 414 1176 c 0
 349 1176 242 1110 228 799 c 1
227 644 m 1
 234 382 282 153 543 153 c 0
 683 153 790 261 790 395 c 0
 790 591 652 668 449 668 c 0
 381 668 307 660 227 644 c 1
EndSplineSet
Validated: 1
EndChar

StartChar: theta1
Encoding: 977 977 403
Width: 1100
VWidth: 0
Flags: W
HStem: -16 153<355.938 639.042> 591 151<323.054 809.976> 1170 153<376.726 649.237>
VStem: 41 159<335.307 590> 104 158<803.102 1057.71> 812 160<363.616 588.282 742 957.254>
LayerCount: 2
Fore
SplineSet
810 742 m 1xec
 802 837 782 939 743 1014 c 0
 685 1128 599 1170 527 1170 c 0
 449 1170 374 1143 314 1068 c 0
 266 1008 262 957 262 927 c 0
 266 769 376 748 488 748 c 0
 668 748 759 747 810 742 c 1xec
200 603 m 1xf4
 200 499 232 320 288 247 c 0
 337 182 402 137 510 137 c 0
 626 137 697 224 742 307 c 1
 777 363 805 483 812 584 c 1
 769 590 714 591 650 591 c 0
 599 591 542 590 480 590 c 0
 320 590 104 672 104 918 c 0xec
 104 990 117 1069 184 1160 c 0
 250 1250 380 1323 522 1323 c 0
 632 1323 972 1233 972 632 c 2
 972 621 l 2
 972 457 926 324 878 231 c 0
 803 87 675 -16 510 -16 c 0
 388 -16 263 32 182 132 c 0
 92 242 41 410 41 590 c 1
 200 603 l 1xf4
EndSplineSet
Validated: 1
EndChar

StartChar: Upsilon1
Encoding: 978 978 404
Width: 1100
VWidth: 4
Flags: W
HStem: 1070 298<840 951.443>
VStem: 412 156<1 851.827> 840 157<1070 1211.41>
LayerCount: 2
Fore
SplineSet
482 1020 m 1
 545 1165 690 1368 823 1368 c 0
 990 1368 997 1258 997 1076 c 0
 997 1074 997 1072 997 1070 c 1
 840 1070 l 1
 836 1151 828 1200 821 1212 c 1
 803 1199 568 945 568 684 c 2
 568 0 l 1
 412 1 l 1
 412 683 l 2
 412 864 207 1166 8 1215 c 1
 70 1376 l 1
 244 1328 428 1162 482 1020 c 1
EndSplineSet
Validated: 1
EndChar

StartChar: phi1
Encoding: 981 981 407
Width: 1100
VWidth: 6
Flags: W
HStem: 5 159<346.152 435> 865 163<352.978 427 589 672.718> 1330 20G<426 586>
VStem: 92 158<269.449 734.922> 426 160<-336.108 13.8553 170 865 1019.26 1350> 763 159<277.081 760.228>
LayerCount: 2
Fore
SplineSet
598 9 m 1
 598 -68 l 2
 598 -183 597 -239 592 -340 c 1
 431 -339 l 1
 435 -277 436 -234 436 -179 c 0
 436 -133 435 -78 435 5 c 1
 207 34 92 208 92 464 c 0
 92 735 180 993 427 1028 c 1
 426 1115 426 1194 426 1257 c 2
 426 1350 l 1
 586 1350 l 1
 586 1205 l 2
 586 1152 586 1092 587 1025 c 1
 722 1004 806 938 863 831 c 0
 904 752 922 639 922 543 c 0
 922 288 845 55 598 9 c 1
435 164 m 1
 434 380 431 638 429 865 c 1
 294 821 250 673 250 469 c 0
 250 303 313 193 435 164 c 1
674 215 m 1
 739 276 763 382 763 530 c 0
 763 536 763 542 763 548 c 0
 761 706 714 835 589 869 c 1
 592 642 597 382 598 170 c 1
 625 179 649 194 674 215 c 1
EndSplineSet
Validated: 1
EndChar

StartChar: omega1
Encoding: 982 982 408
Width: 1100
VWidth: 6
Flags: W
HStem: -10 155<227.366 376.525 620.099 776.103> 868 154<20 107 265.238 730.012 889 963>
VStem: 15 162<200.065 730.861> 416 155<195.231 684> 822 157<189.339 716.729>
LayerCount: 2
Fore
SplineSet
18 1018 m 1
 74 1022 144 1022 222 1022 c 0
 253 1022 286 1022 320 1022 c 2
 430 1022 l 2
 579 1022 873 1018 947 1018 c 2
 963 1018 l 1
 963 868 l 1
 889 868 l 1
 954 715 979 554 979 441 c 0
 979 218 926 -12 681 -12 c 0
 606 -12 539 33 492 104 c 1
 442 34 373 -10 297 -10 c 0
 71 -10 15 220 15 444 c 0
 15 577 42 722 107 868 c 1
 20 868 l 1
 18 1018 l 1
414 684 m 1
 573 703 l 1
 571 618 572 524 571 431 c 1
 572 423 572 414 572 405 c 0
 574 224 624 144 705 144 c 0
 794 144 822 270 822 420 c 0
 822 610 778 747 708 868 c 1
 289 868 l 1
 223 759 177 649 177 468 c 0
 177 299 210 145 290 145 c 0
 360 145 405 196 418 321 c 1
 417 337 416 352 416 368 c 0
 415 474 416 584 414 684 c 1
EndSplineSet
Validated: 1
EndChar

StartChar: uni03D7
Encoding: 983 983 409
Width: 1100
VWidth: 0
Flags: W
HStem: -345 150<613 801.834> 0 156<684.258 837.742> 863 157<169.125 312.035>
VStem: 329 158<572.649 852.815> 511 158<166.255 447.636> 870 130<-121.514 65 183.895 191>
LayerCount: 2
Fore
SplineSet
-2 828 m 1
 -2 828 102 1020 249 1020 c 0
 369 1020 487 920 487 740 c 0
 487 715 472 616 450 570 c 1
 497 604 560 658 623 709 c 1
 640 724 l 1
 702 878 749 1018 896 1018 c 0
 960 1018 984 969 984 902 c 0
 984 792 853 668 751 588 c 1
 722 511 669 377 669 287 c 0
 669 194 701 156 753 156 c 0
 805 156 835 180 859 240 c 1
 1000 191 l 1
 1000 169 l 2
 1000 -122 995 -345 613 -345 c 1
 613 -195 l 1
 816 -195 870 -127 870 55 c 0
 870 58 870 62 870 65 c 1
 822 30 764 0 707 0 c 0
 611 0 511 99 511 279 c 0
 511 304 526 404 548 450 c 1
 501 416 436 360 373 309 c 1
 358 296 l 1
 296 142 249 1 102 1 c 0
 38 1 15 51 15 118 c 0
 15 249 149 354 251 434 c 1
 280 511 329 642 329 732 c 0
 329 825 297 863 245 863 c 0
 193 863 142 789 86 734 c 1
 -2 828 l 1
EndSplineSet
Validated: 1
EndChar

StartChar: uni03CF
Encoding: 975 975 410
Width: 1100
VWidth: 0
Flags: W
HStem: -345 134<633 787.024> -5 21G<116 274> 1288 20G<116 274 851.5 882.943>
VStem: 116 158<-5 508.713 703 1308>
LayerCount: 2
Fore
SplineSet
868 -17 m 1
 822 92 518 474 388 600 c 1
 388 600 304 502 274 431 c 1
 274 -5 l 1
 116 -5 l 1
 116 1308 l 1
 274 1308 l 1
 274 703 l 1
 354 814 425 893 524 996 c 1
 715 1191 841 1289 862 1310 c 1
 973 1204 l 1
 791 1072 544 798 484 725 c 1
 604 608 951 194 1002 59 c 1
 998 -166 957 -345 633 -345 c 1
 633 -211 l 1
 795 -211 855 -133 868 -17 c 1
EndSplineSet
Validated: 1
EndChar

StartChar: uni03D8
Encoding: 984 984 411
Width: 1100
VWidth: 0
Flags: W
HStem: -315 452<427.707 593.443> 1170 153<376.35 654.552>
VStem: 41 159<320.826 920.593> 426 171<-315 0.137573> 814 158<350.765 944.703>
LayerCount: 2
Fore
SplineSet
522 1323 m 1
 646 1323 967 1249 972 632 c 1
 972 621 l 2
 972 457 928 304 880 211 c 0
 819 93 721 16 597 -8 c 1
 597 -315 l 1
 426 -315 l 1
 426 -9 l 1
 332 7 241 50 179 127 c 0
 89 237 41 389 41 569 c 0
 41 914 118 1063 188 1158 c 0
 254 1248 366 1320 522 1323 c 1
284 242 m 0
 333 177 402 137 510 137 c 0
 626 137 698 204 743 287 c 1
 783 351 813 517 814 624 c 1
 814 643 l 2
 814 758 796 911 743 1014 c 0
 685 1128 615 1170 527 1170 c 0
 432 1170 376 1142 318 1066 c 0
 249 977 200 835 200 573 c 0
 200 469 228 315 284 242 c 0
EndSplineSet
Validated: 1
EndChar

StartChar: uni03D9
Encoding: 985 985 412
Width: 1100
VWidth: 6
Flags: W
HStem: 8 148<316.609 374 545 612.694> 878 154<332.497 619.881>
VStem: 52 158<273.254 736.885> 374 171<-315 13.8993> 723 159<279.969 758.636>
LayerCount: 2
Fore
SplineSet
374 8 m 1
 160 45 52 216 52 464 c 0
 52 756 154 1032 446 1032 c 0
 643 1032 753 963 823 831 c 0
 864 752 882 639 882 543 c 0
 882 283 802 47 545 7 c 1
 545 -315 l 1
 374 -315 l 1
 374 8 l 1
634 215 m 1
 699 276 723 382 723 530 c 0
 723 536 723 542 723 548 c 0
 721 732 657 878 480 878 c 0
 272 878 210 713 210 469 c 0
 210 274 297 156 464 156 c 1
 540 157 584 173 634 215 c 1
EndSplineSet
Validated: 1
EndChar

StartChar: uni03DB
Encoding: 987 987 413
Width: 1100
VWidth: 4
Flags: W
HStem: -351 152<518 645.011> 865 153<334.078 974>
VStem: 51 159<258.222 736.59> 676 156<-166.09 -48.8317>
LayerCount: 2
Fore
SplineSet
210 527 m 0
 210 150 358 155 424 150 c 0
 686 129 832 79 832 -95 c 0
 832 -191 782 -343 518 -351 c 1
 496 -199 l 1
 610 -185 676 -168 676 -99 c 0
 676 -33 513 -16 428 -7 c 0
 120 24 51 187 51 527 c 0
 51 894 229 1018 544 1018 c 0
 650 1018 731 1017 807 1017 c 0
 864 1017 917 1017 974 1020 c 1
 977 855 l 1
 935 859 693 865 533 865 c 0
 312 865 210 766 210 527 c 0
EndSplineSet
Validated: 1
EndChar

StartChar: uni03DA
Encoding: 986 986 414
Width: 1100
VWidth: 4
Flags: W
HStem: -351 152<538 665.011> 1168 153<385.971 985>
VStem: 71 159<313.558 991.449> 696 156<-166.09 -49.6481>
LayerCount: 2
Fore
SplineSet
230 700 m 0
 230 323 294 181 444 150 c 0
 701 97 852 79 852 -95 c 0
 852 -191 802 -343 538 -351 c 1
 516 -199 l 1
 630 -185 696 -168 696 -99 c 0
 696 -33 532 -20 448 -7 c 0
 84 49 71 360 71 700 c 0
 71 1067 186 1321 554 1321 c 0
 660 1321 742 1320 818 1320 c 0
 875 1320 928 1320 985 1323 c 1
 988 1157 l 1
 946 1161 703 1168 543 1168 c 0
 282 1168 230 939 230 700 c 0
EndSplineSet
Validated: 1
EndChar

StartChar: uni03DC
Encoding: 988 988 415
Width: 1100
VWidth: 0
Flags: W
HStem: 668 150<272 709.255> 1145 153<272 902.784>
VStem: 116 156<3 665 815 1143>
LayerCount: 2
Fore
SplineSet
277 -1 m 1
 116 3 l 1
 116 1298 l 1
 801 1298 l 1
 878 1295 926 1280 960 1263 c 1
 904 1117 l 1
 878 1131 856 1144 758 1145 c 1
 688 1145 l 2
 584 1145 455 1144 272 1143 c 1
 272 815 l 1
 392 815 459 818 581 818 c 0
 669 818 728 804 729 804 c 2
 747 799 l 1
 711 654 l 1
 674 663 623 668 578 668 c 0
 472 668 380 668 272 665 c 1
 272 544 277 92 277 -1 c 1
EndSplineSet
Validated: 1
EndChar

StartChar: uni03DD
Encoding: 989 989 416
Width: 1100
VWidth: -2
Flags: W
HStem: -308 146<29.4088 260.364> 859 154<518 848.016> 1266 152<554.521 867.522>
VStem: 364 157<-49.4677 859 1013 1231.57>
LayerCount: 2
Fore
SplineSet
364 152 m 0
 364 275 360 857 360 1064 c 0
 360 1207 389 1418 666 1418 c 0
 683 1418 698 1418 712 1418 c 0
 830 1418 847 1413 987 1321 c 1
 916 1191 l 1
 824 1251 806 1266 674 1266 c 0
 527 1266 518 1168 518 1060 c 2
 518 1013 l 1
 586 1013 644 1012 717 1012 c 1
 821 1009 848 1001 878 992 c 1
 849 846 l 1
 828 853 807 859 751 859 c 2
 518 859 l 1
 519 705 521 156 521 152 c 0
 521 -84 455 -308 116 -308 c 0
 86 -308 54 -307 20 -303 c 1
 30 -156 l 1
 58 -160 84 -162 108 -162 c 0
 316 -162 364 -6 364 152 c 0
EndSplineSet
Validated: 1
EndChar

StartChar: uni0190
Encoding: 400 400 417
Width: 1100
VWidth: 0
Flags: W
HStem: 0 168<360.967 780.391> 715 165<393.202 669> 1247 167<392.406 832.372>
VStem: 68 165<282.484 591.465> 130 165<963.971 1167.87>
LayerCount: 2
Fore
SplineSet
1034 175 m 1xf0
 959 117 827 0 556 0 c 0
 365 0 266 38 181 116 c 0
 84 206 68 315 68 425 c 0xf0
 68 619 136 757 296 796 c 1
 178 835 130 956 130 1074 c 0
 130 1287 289 1414 593 1414 c 2
 606 1414 l 2
 851 1414 946 1347 1024 1302 c 1
 940 1150 l 1
 864 1196 747 1247 595 1247 c 0
 421 1247 295 1180 295 1074 c 0xe8
 295 894 528 880 645 880 c 2
 650 880 l 1
 669 880 l 1
 669 714 l 1
 642 714 614 715 587 715 c 0
 521 715 456 711 378 680 c 0
 261 635 233 496 233 423 c 0
 233 263 367 168 557 168 c 0
 758 168 874 260 928 310 c 1
 1034 175 l 1xf0
EndSplineSet
Validated: 1
EndChar

StartChar: uni0228
Encoding: 552 552 473
Width: 1100
VWidth: 0
Flags: W
HStem: -403 125<417.445 622.66> -3 164<271 462 608 944.953> 726 164<274 734> 1247 167<274 934>
VStem: 108 166<161 726 890 1247> 462 145<-70.4613 -3> 626 136<-271.217 -172.936>
LayerCount: 2
Fore
SplineSet
108 1409 m 1
 167 1413 240 1414 322 1414 c 0
 355 1414 389 1414 425 1414 c 2
 541 1414 l 2
 697 1414 840 1410 918 1410 c 2
 934 1410 l 1
 934 1247 l 1
 274 1247 l 1
 274 890 l 1
 734 890 l 1
 734 726 l 1
 274 726 l 1
 274 693 l 2
 274 472 271 245 271 161 c 1
 822 162 l 2
 881 162 945 191 945 191 c 1
 991 29 l 1
 941 15 904 -3 824 -3 c 2
 608 -3 l 1
 608 -24 607 -62 607 -64 c 1
 704 -69 762 -131 762 -235 c 0
 762 -336 662 -403 578 -403 c 0
 512 -403 440 -378 384 -342 c 1
 422 -236 l 1
 455 -254 495 -278 546 -278 c 0
 582 -278 623 -258 626 -220 c 1
 626 -218 l 2
 626 -189 588 -164 540 -164 c 0
 492 -164 490 -171 462 -181 c 1
 462 -3 l 1
 108 -3 l 1
 108 1409 l 1
EndSplineSet
Validated: 1
EndChar

StartChar: uni0229
Encoding: 553 553 474
Width: 1100
VWidth: 0
Flags: W
HStem: -410 125<403.445 608.66> -5 148<368.888 448 594 697.409> 460 150<460.379 784> 869 152<381.998 671.11>
VStem: 98 158<258.732 429.895 580 738.031> 448 145<-77.4613 -1.32291> 612 136<-278.217 -179.936> 784 159<611 749.303>
LayerCount: 2
Fore
SplineSet
529 1021 m 0
 906 1021 943 641 943 503 c 0
 943 483 943 468 942 460 c 1
 657 456 421 439 256 427 c 1
 256 274 339 143 525 143 c 0
 682 143 770 230 805 286 c 1
 926 183 l 1
 914 163 821 20 594 -6 c 1
 593 -26 593 -69 593 -71 c 1
 690 -76 748 -138 748 -242 c 0
 748 -343 648 -410 564 -410 c 0
 498 -410 426 -385 370 -349 c 1
 408 -243 l 1
 441 -261 481 -285 532 -285 c 0
 568 -285 609 -265 612 -227 c 1
 612 -225 l 2
 612 -196 574 -171 526 -171 c 0
 478 -171 476 -178 448 -188 c 1
 448 -5 l 1
 212 29 98 231 98 516 c 0
 98 802 246 1021 529 1021 c 0
256 580 m 1
 364 591 606 606 749 610 c 2
 784 611 l 1
 778 767 666 869 530 869 c 0
 360 869 257 734 256 580 c 1
EndSplineSet
Validated: 1
EndChar

StartChar: uni0311
Encoding: 785 785 483
Width: 1100
VWidth: -12
Flags: W
HStem: 1360 21G<226 343.5 723 836.667> 1510 153<388.698 668.547>
VStem: 174 156<1387.24 1448.72> 726 166<1396.41 1453.85>
LayerCount: 2
Fore
SplineSet
530 1510 m 0
 437 1510 357 1477 330 1360 c 1
 174 1390 l 1
 222 1615 404 1663 530 1663 c 0
 695 1663 868 1576 892 1399 c 1
 726 1369 l 1
 720 1447 638 1510 530 1510 c 0
EndSplineSet
Validated: 1
EndChar

StartChar: uni0312
Encoding: 786 786 485
Width: 1100
VWidth: -43
Flags: W
HStem: 1235 420
VStem: 406 152<1502.25 1624.21>
LayerCount: 2
Fore
SplineSet
297 1283 m 1
 335 1395 361 1504 406 1655 c 1
 558 1621 l 1
 540 1479 512 1338 491 1235 c 1
 297 1283 l 1
EndSplineSet
Validated: 1
EndChar

StartChar: uni0313
Encoding: 787 787 486
Width: 1100
VWidth: 26
Flags: W
HStem: 1099 498
VStem: 448 220<1376 1597> 505 163<1250.63 1376>
LayerCount: 2
Fore
SplineSet
448 1597 m 1xc0
 668 1597 l 1
 668 1382 l 2xc0
 668 1231 601 1155 472 1099 c 1
 419 1226 l 1
 479 1254 505 1277 505 1376 c 1xa0
 448 1376 l 1
 448 1597 l 1xc0
EndSplineSet
Validated: 1
EndChar

StartChar: uni0314
Encoding: 788 788 487
Width: 1100
VWidth: 26
Flags: W
HStem: 1099 498
VStem: 431 220<1376 1597> 431 163<1250.63 1376>
LayerCount: 2
Fore
SplineSet
651 1597 m 1xc0
 651 1376 l 1xc0
 594 1376 l 1xa0
 594 1277 620 1254 680 1226 c 1
 627 1099 l 1
 498 1155 431 1231 431 1382 c 2
 431 1597 l 1
 651 1597 l 1xc0
EndSplineSet
Validated: 1
EndChar

StartChar: ogonek
Encoding: 731 731 502
Width: 1100
VWidth: 12
Flags: W
HStem: -358 111<533.429 736.172>
VStem: 390 136<-234.728 -74.4377>
LayerCount: 2
Fore
SplineSet
514 56 m 1
 680 59 l 1
 622 -36 526 -89 526 -173 c 2
 526 -175 l 2
 526 -218 572 -247 616 -247 c 0
 674 -247 722 -233 755 -215 c 1
 789 -282 l 1
 733 -318 665 -358 574 -358 c 0
 490 -358 390 -291 390 -190 c 0
 390 -61 450 -13 514 56 c 1
EndSplineSet
Validated: 1
EndChar

StartChar: uni01EA
Encoding: 490 490 505
Width: 1100
VWidth: 0
Flags: W
HStem: -421 111<473.429 675.318> 1275 167<402.109 686.308>
VStem: 44 167<352.638 994.501> 330 136<-297.728 -137.969> 856 166<389.013 1008.4>
LayerCount: 2
Fore
SplineSet
549 1442 m 1
 679 1442 1017 1362 1022 689 c 1
 1022 677 l 2
 1022 498 975 331 925 230 c 0
 859 98 751 12 615 -11 c 1
 557 -101 466 -154 466 -236 c 2
 466 -238 l 2
 466 -281 512 -310 556 -310 c 0
 614 -310 661 -296 694 -278 c 1
 728 -345 l 1
 672 -381 605 -421 514 -421 c 0
 430 -421 330 -354 330 -253 c 0
 330 -126 387 -77 450 -10 c 1
 351 7 255 53 189 138 c 0
 95 258 44 424 44 620 c 0
 44 996 124 1158 198 1262 c 0
 267 1360 385 1439 549 1442 c 1
299 264 m 1
 350 193 423 149 536 149 c 0
 658 149 734 223 781 313 c 1
 823 383 855 563 856 680 c 1
 856 701 l 2
 856 826 837 993 781 1105 c 0
 720 1229 646 1275 554 1275 c 0
 454 1275 396 1245 335 1162 c 0
 263 1065 211 911 211 625 c 0
 211 512 240 344 299 264 c 1
EndSplineSet
Validated: 1
EndChar

StartChar: uni01EB
Encoding: 491 491 506
Width: 1100
VWidth: 0
Flags: W
HStem: -402 111<439.429 642.172> 878 154<372.497 659.881>
VStem: 92 158<272.95 736.885> 296 136<-278.728 -119.285> 763 159<278.736 758.636>
LayerCount: 2
Fore
SplineSet
581 6 m 1
 523 -84 432 -136 432 -217 c 2
 432 -219 l 2
 432 -262 478 -291 522 -291 c 0
 580 -291 628 -277 661 -259 c 1
 695 -326 l 1
 639 -362 571 -402 480 -402 c 0
 396 -402 296 -335 296 -234 c 0
 296 -107 353 -59 416 8 c 1
 201 44 92 215 92 464 c 0
 92 756 194 1032 486 1032 c 0
 683 1032 793 963 863 831 c 0
 904 752 922 639 922 543 c 0
 922 282 842 44 581 6 c 1
674 215 m 1
 739 276 763 382 763 530 c 0
 763 536 763 542 763 548 c 0
 761 732 697 878 520 878 c 0
 312 878 250 713 250 469 c 0
 250 274 337 156 504 156 c 1
 580 157 624 173 674 215 c 1
EndSplineSet
Validated: 1
EndChar

StartChar: uni0326
Encoding: 806 806 509
Width: 1100
VWidth: 26
Flags: W
HStem: -494 498
VStem: 450 220<-217 4> 506 164<-342.366 -217>
LayerCount: 2
Fore
SplineSet
450 4 m 1xc0
 670 4 l 1
 670 -211 l 2xc0
 670 -362 603 -438 474 -494 c 1
 420 -367 l 1
 480 -339 506 -316 506 -217 c 1xa0
 450 -217 l 1
 450 4 l 1xc0
EndSplineSet
Validated: 1
EndChar

StartChar: Hbar
Encoding: 294 294 512
Width: 1100
VWidth: 0
Flags: W
HStem: 681 166<236.831 793> 1119 162<-20 64 232 792 959 1064> 1393 15G<64 232 792 959>
VStem: 64 168<0 659.026 816 1119 1281 1410> 793 166<0 681 847 1119 1281 1408>
LayerCount: 2
Fore
SplineSet
793 1119 m 1
 232 1119 l 1
 232 1014 231 921 231 816 c 1
 328 839 427 847 553 847 c 2
 793 847 l 1
 793 971 793 1047 793 1119 c 1
64 1281 m 1
 64 1410 l 1
 232 1413 l 1
 232 1281 l 1
 792 1281 l 1
 792 1321 792 1361 792 1408 c 1
 959 1408 l 1
 959 1281 l 1
 1064 1281 l 1
 1064 1119 l 1
 959 1119 l 1
 959 0 l 1
 793 0 l 1
 793 681 l 1
 748 681 702 681 657 681 c 0
 504 681 355 678 231 651 c 1
 231 277 233 197 233 0 c 1
 64 0 l 1
 64 1119 l 1
 -20 1119 l 1
 -20 1281 l 1
 64 1281 l 1
EndSplineSet
Validated: 1
EndChar

StartChar: hbar
Encoding: 295 295 513
Width: 1100
VWidth: -2
Flags: W
HStem: -4 21G<98 258.5 852 907.043> 858 153<351.877 684.129> 1122 158<11 110 269 623> 1382 20G<110 268>
VStem: 110 158<4 785.233 940 1122 1280 1401> 738 157<130.048 802.125>
LayerCount: 2
Fore
SplineSet
738 576 m 2
 738 803 702 858 501 858 c 0
 400 858 299 793 268 731 c 1
 268 198 l 2
 268 119 261 42 256 -4 c 1
 98 4 l 1
 106 76 111 127 111 204 c 0
 111 505 110 874 110 1122 c 1
 11 1122 l 1
 11 1280 l 1
 110 1280 l 1
 110 1401 l 1
 268 1402 l 1
 268 1280 l 1
 623 1280 l 1
 623 1122 l 1
 269 1122 l 1
 269 1061 269 1001 269 940 c 1
 334 981 406 1011 508 1011 c 0
 629 1011 739 1011 818 915 c 1
 890 830 895 752 895 642 c 2
 895 576 l 2
 895 412 894 335 894 223 c 0
 894 168 920 139 980 100 c 1
 892 -17 l 1
 812 28 738 81 738 208 c 2
 738 576 l 2
EndSplineSet
Validated: 1
EndChar

StartChar: Lslash
Encoding: 321 321 514
Width: 1100
VWidth: 0
Flags: W
HStem: -3 168<388 989.863> 1395 20G<219 388>
VStem: 219 169<165 562 850 1415>
LayerCount: 2
Fore
SplineSet
388 850 m 1
 675 1015 l 1
 757 872 l 1
 388 660 l 1
 388 165 l 1
 865 165 l 1
 927 168 946 173 992 189 c 1
 1035 29 l 1
 986 12 946 -3 867 -3 c 2
 219 -3 l 1
 219 562 l 1
 73 479 l 1
 -9 622 l 1
 219 753 l 1
 219 1415 l 1
 388 1415 l 1
 388 850 l 1
EndSplineSet
Validated: 1
EndChar

StartChar: lslash
Encoding: 322 322 515
Width: 1100
VWidth: -2
Flags: W
HStem: -16 142<548.434 911.467> 1273 155<123.466 376>
VStem: 379 160<135.613 587 869 1273>
LayerCount: 2
Fore
SplineSet
416 1428 m 2
 536 1428 l 1
 536 1317 536 1094 537 869 c 1
 792 1015 l 1
 874 872 l 1
 538 679 l 1
 539 426 539 212 539 212 c 0
 544 130 584 126 676 126 c 0
 769 126 893 147 962 199 c 1
 1030 85 l 1
 944 14 801 -16 677 -16 c 0
 592 -16 516 -2 472 22 c 0
 387 69 379 149 379 208 c 2
 378 587 l 1
 190 479 l 1
 108 622 l 1
 377 777 l 1
 376 1273 l 1
 327 1273 214 1266 119 1244 c 1
 91 1387 l 1
 203 1413 312 1428 416 1428 c 2
EndSplineSet
Validated: 1
EndChar

StartChar: uni2016
Encoding: 8214 8214 522
Width: 1100
VWidth: 66
Flags: W
VStem: 253 162<-194.108 1492> 694 162<-194.108 1492>
LayerCount: 2
Fore
SplineSet
252 152 m 0
 252 517 243 1111 243 1399 c 2
 243 1492 l 1
 403 1492 l 1
 403 1347 l 2
 403 1070 415 558 415 224 c 2
 415 74 l 2
 415 -41 414 -97 409 -198 c 1
 248 -197 l 1
 252 -135 253 -92 253 -37 c 0
 253 10 252 66 252 152 c 0
693 152 m 0
 693 517 684 1111 684 1399 c 2
 684 1492 l 1
 844 1492 l 1
 844 1347 l 2
 844 1070 856 558 856 224 c 2
 856 74 l 2
 856 -41 855 -97 850 -198 c 1
 689 -197 l 1
 693 -135 694 -92 694 -37 c 0
 694 10 693 66 693 152 c 0
EndSplineSet
Validated: 1
EndChar

StartChar: underscoredbl
Encoding: 8215 8215 523
Width: 1100
VWidth: 41
Flags: W
HStem: -509 152<66 1012> -236 152<66 1012>
LayerCount: 2
Fore
SplineSet
66 -84 m 1
 1012 -84 l 1
 1012 -236 l 1
 62 -236 l 1
 66 -84 l 1
66 -357 m 1
 1012 -357 l 1
 1012 -509 l 1
 62 -509 l 1
 66 -357 l 1
EndSplineSet
Validated: 1
EndChar

StartChar: quoteleft
Encoding: 8216 8216 524
Width: 1100
VWidth: -25
Flags: W
HStem: 846 651
VStem: 310 253<877.13 1034.19>
LayerCount: 2
Fore
SplineSet
563 846 m 1
 310 879 l 1
 346 1178 528 1388 657 1497 c 1
 793 1357 l 1
 726 1300 587 1074 563 846 c 1
EndSplineSet
Validated: 1
EndChar

StartChar: quoteright
Encoding: 8217 8217 525
Width: 1100
VWidth: -25
Flags: W
HStem: 816 651
VStem: 572 253<1278.81 1435.87>
LayerCount: 2
Fore
SplineSet
572 1467 m 1
 825 1434 l 1
 789 1135 607 925 478 816 c 1
 342 956 l 1
 409 1013 548 1239 572 1467 c 1
EndSplineSet
Validated: 1
EndChar

StartChar: quotesinglbase
Encoding: 8218 8218 526
Width: 1100
VWidth: -25
Flags: W
HStem: -328 651
VStem: 491 253<134.815 291.87>
LayerCount: 2
Fore
SplineSet
491 323 m 1
 744 290 l 1
 708 -9 526 -219 397 -328 c 1
 261 -188 l 1
 328 -131 467 95 491 323 c 1
EndSplineSet
Validated: 1
EndChar

StartChar: quotereversed
Encoding: 8219 8219 527
Width: 1100
VWidth: -25
Flags: W
HStem: 816 651
VStem: 380 253<1278.81 1435.87>
LayerCount: 2
Fore
SplineSet
633 1467 m 1
 657 1239 797 1013 864 956 c 1
 728 816 l 1
 599 925 416 1135 380 1434 c 1
 633 1467 l 1
EndSplineSet
Validated: 1
EndChar

StartChar: quotedblleft
Encoding: 8220 8220 528
Width: 1100
VWidth: -25
Flags: W
HStem: 911 654
VStem: 162 206<947.286 1112.65> 522 206<945.286 1110.65>
LayerCount: 2
Fore
SplineSet
384 1010 m 0
 376 976 372 944 368 911 c 1
 162 950 l 1
 166 991 171 1026 181 1068 c 0
 246 1328 317 1458 433 1565 c 1
 560 1442 l 1
 506 1391 435 1215 384 1010 c 0
744 1008 m 0
 736 974 732 942 728 909 c 1
 522 948 l 1
 526 989 531 1024 541 1066 c 0
 606 1326 677 1456 793 1563 c 1
 920 1440 l 1
 866 1389 795 1213 744 1008 c 0
EndSplineSet
Validated: 1
EndChar

StartChar: quotedblright
Encoding: 8221 8221 529
Width: 1100
VWidth: -25
Flags: W
HStem: 830 654
VStem: 350 206<1293.28 1449.71> 710 206<1291.28 1446.78>
LayerCount: 2
Fore
SplineSet
693 1384 m 0
 701 1418 706 1451 710 1484 c 1
 916 1444 l 1
 912 1403 906 1369 896 1327 c 0
 831 1067 760 937 644 830 c 1
 517 952 l 1
 571 1003 642 1179 693 1384 c 0
333 1387 m 0
 341 1421 346 1453 350 1486 c 1
 556 1447 l 1
 552 1406 546 1371 536 1329 c 0
 471 1069 400 939 284 832 c 1
 157 955 l 1
 211 1006 282 1182 333 1387 c 0
EndSplineSet
Validated: 1
EndChar

StartChar: quotedblbase
Encoding: 8222 8222 530
Width: 1100
VWidth: -25
Flags: W
HStem: -335 654
VStem: 350 206<128.283 284.714> 710 206<126.283 282.714>
LayerCount: 2
Fore
SplineSet
693 220 m 0
 701 254 706 286 710 319 c 1
 916 280 l 1
 912 239 906 204 896 162 c 0
 831 -98 760 -228 644 -335 c 1
 517 -212 l 1
 571 -161 642 15 693 220 c 0
333 222 m 0
 341 256 346 288 350 321 c 1
 556 282 l 1
 552 241 546 206 536 164 c 0
 471 -96 400 -226 284 -333 c 1
 157 -210 l 1
 211 -159 282 17 333 222 c 0
EndSplineSet
Validated: 1
EndChar

StartChar: uni201F
Encoding: 8223 8223 531
Width: 1100
VWidth: -25
Flags: W
HStem: 830 653
VStem: 223 206<1281.35 1446.71> 583 206<1284.35 1449.71>
LayerCount: 2
Fore
SplineSet
445 1384 m 0
 496 1179 568 1003 622 952 c 1
 494 830 l 1
 378 937 307 1067 242 1327 c 0
 232 1369 227 1403 223 1444 c 1
 429 1483 l 1
 433 1450 437 1418 445 1384 c 0
805 1387 m 0
 856 1182 927 1006 981 955 c 1
 854 832 l 1
 738 939 667 1069 602 1329 c 0
 592 1371 587 1406 583 1447 c 1
 789 1486 l 1
 793 1453 797 1421 805 1387 c 0
EndSplineSet
Validated: 1
EndChar

StartChar: daggerdbl
Encoding: 8225 8225 532
Width: 1100
VWidth: 6
Flags: W
HStem: 194 163<70 409 573 915> 1008 162<74.3538 402 564 915>
VStem: 401 160<-194.108 192 357 1008 1172 1492>
LayerCount: 2
Fore
SplineSet
573 192 m 1
 573 74 l 2
 573 -41 572 -97 567 -198 c 1
 406 -197 l 1
 410 -135 411 -92 411 -37 c 0
 411 10 410 66 410 152 c 0
 410 165 410 179 410 193 c 1
 361 193 313 194 262 194 c 0
 202 194 139 193 70 189 c 1
 70 349 l 1
 199 356 304 357 409 357 c 1
 408 562 406 799 404 1008 c 1
 311 1008 205 1014 65 1023 c 1
 65 1076 65 1130 68 1181 c 1
 204 1172 311 1170 402 1170 c 1
 401 1257 401 1336 401 1399 c 2
 401 1492 l 1
 561 1492 l 1
 561 1347 l 2
 561 1296 561 1237 562 1172 c 1
 676 1175 773 1179 915 1179 c 1
 915 1020 l 1
 776 1020 680 1013 564 1010 c 1
 567 799 571 559 572 356 c 1
 689 354 794 349 917 349 c 1
 915 188 l 1
 794 188 688 191 573 192 c 1
EndSplineSet
Validated: 1
EndChar

StartChar: bullet
Encoding: 8226 8226 533
Width: 1100
VWidth: 0
Flags: W
HStem: 237 552<367.429 664.571>
VStem: 240 552<364.429 661.571>
LayerCount: 2
Fore
SplineSet
240 513 m 0
 240 665 364 789 516 789 c 0
 668 789 792 665 792 513 c 0
 792 361 668 237 516 237 c 0
 364 237 240 361 240 513 c 0
EndSplineSet
Validated: 1
EndChar

StartChar: uni2023
Encoding: 8227 8227 534
Width: 1100
VWidth: 0
Flags: W
HStem: 190 667
VStem: 208 608<476 542>
LayerCount: 2
Fore
SplineSet
236 857 m 1
 816 542 l 1
 816 476 l 1
 240 190 l 1
 208 278 l 1
 208 781 l 1
 236 857 l 1
EndSplineSet
Validated: 1
EndChar

StartChar: dagger
Encoding: 8224 8224 539
Width: 1100
VWidth: 6
Flags: W
HStem: 1023 158<68 399.631 564 915>
VStem: 411 162<-194.108 1008 1172 1492>
LayerCount: 2
Fore
SplineSet
562 1172 m 1
 676 1175 773 1179 915 1179 c 1
 915 1020 l 1
 776 1020 680 1013 564 1010 c 1
 568 751 573 448 573 224 c 2
 573 74 l 2
 573 -41 572 -97 567 -198 c 1
 406 -197 l 1
 410 -135 411 -92 411 -37 c 0
 411 10 410 66 410 152 c 0
 410 389 407 724 404 1008 c 1
 311 1008 205 1014 65 1023 c 1
 65 1076 65 1130 68 1181 c 1
 204 1172 311 1170 402 1170 c 1
 401 1257 401 1336 401 1399 c 2
 401 1492 l 1
 561 1492 l 1
 561 1347 l 2
 561 1296 561 1237 562 1172 c 1
EndSplineSet
Validated: 1
EndChar

StartChar: guilsinglleft
Encoding: 8249 8249 540
Width: 1100
VWidth: 6
Flags: W
VStem: 595 152<103.907 161.156> 609 156<871.117 942.4>
LayerCount: 2
Fore
SplineSet
279 574 m 1x80
 423 704 586 836 609 976 c 1
 765 939 l 1x40
 725 750 589 627 464 518 c 1
 592 400 702 281 747 109 c 1
 595 55 l 1
 557 204 437 318 279 459 c 1
 279 574 l 1x80
EndSplineSet
Validated: 1
EndChar

StartChar: guilsinglright
Encoding: 8250 8250 541
Width: 1100
VWidth: 6
Flags: W
VStem: 323 156<96.5998 167.883> 341 152<877.844 935.093>
LayerCount: 2
Fore
SplineSet
809 465 m 1x40
 665 335 502 203 479 63 c 1
 323 100 l 1x80
 363 289 499 412 624 521 c 1
 496 639 386 758 341 930 c 1
 493 984 l 1
 531 835 651 721 809 580 c 1
 809 465 l 1x40
EndSplineSet
Validated: 1
EndChar

StartChar: uni203D
Encoding: 8253 8253 543
Width: 1100
VWidth: 0
Flags: W
HStem: 0 270<410 660> 1172 158<635 723.171> 1356 20G<438 636>
VStem: 158 157<870.844 1110.69> 410 250<0 270> 444 175<431 601.6 784 1165> 792 160<885.793 1106.04>
LayerCount: 2
Fore
SplineSet
410 0 m 1xfa
 410 270 l 1
 660 270 l 1
 660 0 l 1
 410 0 l 1xfa
439 1165 m 1
 366 1139 316 1082 315 989 c 0
 315 942 340 894 366 862 c 1
 232 772 l 1
 191 832 158 899 158 984 c 0
 158 1182 281 1291 438 1325 c 1
 438 1376 l 1
 636 1376 l 1
 635 1330 l 1
 814 1300 952 1177 952 993 c 0
 952 834 806 736 728 670 c 0
 677 627 623 562 620 483 c 1
 619 477 l 1
 619 431 l 1
 444 431 l 1
 444 475 l 1xf6
 439 1165 l 1
625 784 m 1
 711 851 792 899 792 989 c 0
 792 1078 735 1147 632 1172 c 1
 630 1043 627 913 625 784 c 1
EndSplineSet
Validated: 1
EndChar

StartChar: uni2047
Encoding: 8263 8263 544
Width: 1100
VWidth: 0
Flags: W
HStem: 0 270<132 382 585 835> 1182 155<143.651 429.457 621.099 882.299>
VStem: 132 250<0 270> 166 175<431 598.664> 487 160<876.981 1125.27> 585 250<0 270> 619 175<431 598.664> 940 160<876.981 1122.17>
LayerCount: 2
Fore
SplineSet
132 270 m 1xe1
 382 270 l 1
 382 0 l 1
 132 0 l 1
 132 270 l 1xe1
-21 1197 m 1
 50 1292 172 1337 304 1337 c 0
 395 1337 468 1316 523 1278 c 1
 589 1318 671 1337 757 1337 c 0
 988 1337 1100 1205 1100 993 c 0
 1100 834 981 736 903 670 c 0
 851 626 794 559 794 477 c 2
 794 431 l 1
 619 431 l 1
 619 475 l 2
 619 595 671 673 755 747 c 0
 855 836 940 883 940 989 c 0
 940 1101 881 1182 749 1182 c 0
 701 1182 656 1172 619 1153 c 1xc3
 637 1107 647 1053 647 993 c 0
 647 834 528 736 450 670 c 0
 398 626 341 559 341 477 c 2
 341 431 l 1
 166 431 l 1
 166 475 l 2
 166 595 218 673 302 747 c 0
 402 836 487 883 487 989 c 0xd9
 487 1101 428 1182 296 1182 c 0
 203 1182 123 1147 89 1074 c 1
 -21 1197 l 1
585 270 m 1xc5
 835 270 l 1
 835 0 l 1
 585 0 l 1
 585 270 l 1xc5
EndSplineSet
Validated: 1
EndChar

StartChar: uni2048
Encoding: 8264 8264 545
Width: 1120
VWidth: 0
Flags: W
HStem: 0 270<201 451 732 982> 1182 155<212.651 498.299> 1356 20<759 957>
VStem: 201 250<0 270> 235 175<431 598.664> 556 160<876.981 1122.17> 732 250<0 270> 759 198<557.952 1376> 775 166<463 1280.84>
LayerCount: 2
Fore
SplineSet
201 270 m 1xf4
 451 270 l 1
 451 0 l 1
 201 0 l 1
 201 270 l 1xf4
48 1197 m 1
 119 1292 241 1337 373 1337 c 0
 604 1337 716 1205 716 993 c 0
 716 834 597 736 519 670 c 0
 467 626 410 559 410 477 c 2
 410 431 l 1
 235 431 l 1
 235 475 l 2xec
 235 595 287 673 371 747 c 0
 471 836 556 883 556 989 c 0
 556 1101 497 1182 365 1182 c 0
 272 1182 192 1147 158 1074 c 1
 48 1197 l 1
EndSplineSet
Refer: 68 33 N 1 0 0 1 324 0 2
Validated: 1
EndChar

StartChar: uni2049
Encoding: 8265 8265 546
Width: 1120
VWidth: 0
Flags: W
HStem: 0 270<111 361 574 824> 1182 155<585.651 871.299> 1356 20<138 336>
VStem: 111 250<0 270> 138 198<557.952 1376> 154 166<463 1280.84> 574 250<0 270> 608 175<431 598.664> 929 160<876.981 1122.17>
LayerCount: 2
Fore
SplineSet
574 270 m 1xe280
 824 270 l 1
 824 0 l 1
 574 0 l 1
 574 270 l 1xe280
421 1197 m 1
 492 1292 614 1337 746 1337 c 0
 977 1337 1089 1205 1089 993 c 0
 1089 834 970 736 892 670 c 0
 840 626 783 559 783 477 c 2
 783 431 l 1
 608 431 l 1
 608 475 l 2xe180
 608 595 660 673 744 747 c 0
 844 836 929 883 929 989 c 0
 929 1101 870 1182 738 1182 c 0
 645 1182 565 1147 531 1074 c 1
 421 1197 l 1
EndSplineSet
Refer: 68 33 N 1 0 0 1 -297 0 2
Validated: 1
EndChar

StartChar: arrowleft
Encoding: 8592 8592 547
Width: 1100
VWidth: 6
Flags: W
HStem: 448 152<290 1068>
VStem: 331 152<97.9069 152.877> 345 156<862.084 936.4>
LayerCount: 2
Fore
SplineSet
15 568 m 1xc0
 159 698 322 830 345 970 c 1
 501 933 l 1xa0
 471 789 384 684 290 594 c 1
 410 599 538 600 625 600 c 0
 666 600 705 600 744 600 c 0
 826 600 943 599 1050 598 c 1
 1068 598 l 1
 1068 445 l 1
 1050 445 l 1
 915 448 748 448 623 448 c 0
 562 448 416 446 275 440 c 1
 370 344 447 240 483 103 c 1
 331 49 l 1
 293 198 173 312 15 453 c 1
 15 568 l 1xc0
EndSplineSet
Validated: 1
EndChar

StartChar: arrowup
Encoding: 8593 8593 548
Width: 1100
VWidth: 66
Flags: W
HStem: 910 156<858.001 932.4> 928 152<93.9069 151.156> 1376 20G<378.5 629>
VStem: 428 163<-126 1122>
LayerCount: 2
Fore
SplineSet
564 1396 m 1x70
 694 1252 826 1089 966 1066 c 1
 929 910 l 1xb0
 785 941 679 1027 588 1122 c 1
 588 861 591 612 591 296 c 2
 591 146 l 2
 591 31 590 -25 585 -126 c 1
 424 -126 l 1
 428 -64 429 -21 429 34 c 0
 429 81 428 138 428 224 c 2
 428 1128 l 1
 334 1037 232 963 99 928 c 1
 45 1080 l 1
 194 1118 308 1238 449 1396 c 1
 564 1396 l 1x70
EndSplineSet
Validated: 1
EndChar

StartChar: arrowright
Encoding: 8594 8594 549
Width: 1100
VWidth: 6
Flags: W
HStem: 447 152<25 803>
VStem: 592 156<861.084 935.4> 610 152<96.9069 151.877>
LayerCount: 2
Fore
SplineSet
1078 567 m 1xc0
 1078 452 l 1
 920 311 800 197 762 48 c 1
 610 102 l 1xa0
 646 239 723 343 818 439 c 1
 677 445 531 447 470 447 c 0
 345 447 178 447 43 444 c 1
 25 444 l 1
 25 597 l 1
 43 597 l 1
 150 598 267 599 349 599 c 0
 388 599 427 599 468 599 c 0
 555 599 683 598 803 593 c 1
 709 683 622 788 592 932 c 1
 748 969 l 1
 771 829 934 697 1078 567 c 1xc0
EndSplineSet
Validated: 1
EndChar

StartChar: arrowdown
Encoding: 8595 8595 550
Width: 1100
VWidth: 66
Flags: W
HStem: 224 152<93.9069 151.156> 238 156<858.001 932.4> 1410 20G<424 587.5>
VStem: 428 163<181 1425.11>
LayerCount: 2
Fore
SplineSet
564 -92 m 1x70
 449 -92 l 1
 308 66 194 186 45 224 c 1
 99 376 l 1xb0
 232 341 334 266 428 175 c 1
 428 1080 l 2
 428 1166 429 1221 429 1268 c 0
 429 1323 428 1366 424 1428 c 1
 585 1430 l 1
 590 1329 591 1273 591 1158 c 2
 591 1008 l 2
 591 692 588 442 588 181 c 1
 679 276 785 363 929 394 c 1
 966 238 l 1
 826 215 694 52 564 -92 c 1x70
EndSplineSet
Validated: 1
EndChar

StartChar: arrowboth
Encoding: 8596 8596 551
Width: 1100
VWidth: 6
Flags: W
HStem: 447 152<268 803>
VStem: 308 152<102.907 158.209> 322 156<867.084 941.4> 592 156<861.084 935.4> 610 152<96.9069 151.877>
LayerCount: 2
Fore
SplineSet
1078 567 m 1xb0
 1078 452 l 1
 920 311 800 197 762 48 c 1
 610 102 l 1
 646 239 723 343 818 439 c 1
 677 445 531 447 470 447 c 0
 405 447 328 447 251 447 c 1
 347 350 424 246 460 108 c 1
 308 54 l 1xc8
 270 203 150 317 -8 458 c 1
 -8 573 l 1
 136 703 299 835 322 975 c 1
 478 938 l 1
 448 794 362 689 268 599 c 1
 297 599 325 599 349 599 c 0
 388 599 427 599 468 599 c 0
 555 599 683 598 803 593 c 1
 709 683 622 788 592 932 c 1
 748 969 l 1
 771 829 934 697 1078 567 c 1xb0
EndSplineSet
Validated: 1
EndChar

StartChar: arrowupdn
Encoding: 8597 8597 552
Width: 1100
VWidth: 66
Flags: W
HStem: 224 152<93.9069 151.156> 238 156<858.517 932.4> 910 156<858.001 932.4> 928 152<93.9069 151.156> 1376 20G<378.5 629>
VStem: 428 163<184 1122>
LayerCount: 2
Fore
SplineSet
564 -92 m 1x6c
 449 -92 l 1
 308 66 194 186 45 224 c 1
 99 376 l 1
 232 341 334 266 428 175 c 1
 428 177 l 2
 428 192 428 207 428 224 c 2
 428 1128 l 1
 334 1037 232 963 99 928 c 1
 45 1080 l 1x9c
 194 1118 308 1238 449 1396 c 1
 564 1396 l 1
 694 1252 826 1089 966 1066 c 1
 929 910 l 1
 785 941 679 1027 588 1122 c 1
 588 861 591 612 591 296 c 2
 591 184 l 1
 681 278 786 364 929 394 c 1
 966 238 l 1
 826 215 694 52 564 -92 c 1x6c
EndSplineSet
Validated: 1
EndChar

StartChar: uni21C4
Encoding: 8644 8644 553
Width: 1100
VWidth: 6
Flags: W
HStem: 256 152<264 1042> 1087 152<45 823>
VStem: 305 152<-94.0931 -39.166> 319 156<670.006 744.4> 612 156<1502.01 1576.4> 630 152<737.907 792.834>
LayerCount: 2
Fore
SplineSet
1098 1208 m 1xc8
 1098 1093 l 1
 940 952 820 838 782 689 c 1
 630 743 l 1xc4
 666 880 742 983 837 1079 c 1
 696 1085 551 1087 490 1087 c 0
 365 1087 198 1087 63 1084 c 1
 45 1084 l 1
 45 1237 l 1
 63 1237 l 1
 170 1238 287 1239 369 1239 c 0
 408 1239 447 1239 488 1239 c 0
 575 1239 703 1238 823 1233 c 1
 729 1323 642 1429 612 1573 c 1
 768 1610 l 1
 791 1470 954 1338 1098 1208 c 1xc8
-11 376 m 1
 133 506 296 638 319 778 c 1
 475 741 l 1xd0
 445 597 358 491 264 401 c 1
 384 406 512 408 599 408 c 0
 640 408 679 408 718 408 c 0
 800 408 917 407 1024 406 c 1
 1042 406 l 1
 1042 253 l 1
 1024 253 l 1
 889 256 722 256 597 256 c 0
 536 256 390 253 249 247 c 1
 344 151 421 48 457 -89 c 1
 305 -143 l 1xe0
 267 6 147 120 -11 261 c 1
 -11 376 l 1
EndSplineSet
Validated: 1
EndChar

StartChar: uni21C5
Encoding: 8645 8645 554
Width: 1100
VWidth: 66
Flags: W
HStem: 1307 89G<185.5 435.5 716.5 880>
VStem: 235 163<-126 234 237 1122> 713 163<79 964 966 1323.11>
LayerCount: 2
Fore
SplineSet
713 966 m 1
 713 1055 l 2
 713 1170 714 1226 719 1327 c 1
 880 1326 l 1
 876 1264 875 1221 875 1166 c 0
 875 1119 876 1063 876 977 c 2
 876 73 l 1
 958 162 944 212 1024 324 c 1
 1128 231 l 1
 1038 106 996 -37 855 -195 c 1
 740 -195 l 1
 611 -52 513 152 398 234 c 1
 398 146 l 2
 398 31 397 -25 392 -126 c 1
 231 -126 l 1
 235 -64 236 -21 236 34 c 0
 236 81 235 138 235 224 c 2
 235 1128 l 1
 141 1037 176 979 96 867 c 1
 -42 949 l 1
 48 1074 115 1238 256 1396 c 1
 371 1396 l 1
 500 1253 598 1048 713 966 c 1
713 964 m 1
 613 841 l 1
 496 931 486 1027 395 1122 c 1
 395 861 398 612 398 296 c 2
 398 237 l 1
 498 359 l 1
 615 269 625 174 716 79 c 1
 716 340 713 589 713 905 c 2
 713 964 l 1
EndSplineSet
Validated: 1
EndChar

StartChar: uni21C6
Encoding: 8646 8646 555
Width: 1100
VWidth: 6
Flags: W
HStem: 256 152<51 829> 1087 152<270 1048>
VStem: 311 152<737.907 792.834> 325 156<1502.01 1576.4> 618 156<670.006 744.4> 636 152<-94.0931 -39.166>
LayerCount: 2
Fore
SplineSet
1104 376 m 1xc8
 1104 261 l 1
 946 120 826 6 788 -143 c 1
 636 -89 l 1xc4
 672 48 748 151 843 247 c 1
 702 253 557 256 496 256 c 0
 371 256 204 256 69 253 c 1
 51 253 l 1
 51 406 l 1
 69 406 l 1
 176 407 293 408 375 408 c 0
 414 408 453 408 494 408 c 0
 581 408 709 406 829 401 c 1
 735 491 648 597 618 741 c 1
 774 778 l 1
 797 638 960 506 1104 376 c 1xc8
-5 1208 m 1
 139 1338 302 1470 325 1610 c 1
 481 1573 l 1xd0
 451 1429 364 1323 270 1233 c 1
 390 1238 518 1239 605 1239 c 0
 646 1239 685 1239 724 1239 c 0
 806 1239 923 1238 1030 1237 c 1
 1048 1237 l 1
 1048 1084 l 1
 1030 1084 l 1
 895 1087 728 1087 603 1087 c 0
 542 1087 396 1085 255 1079 c 1
 350 983 427 880 463 743 c 1
 311 689 l 1xe0
 273 838 153 952 -5 1093 c 1
 -5 1208 l 1
EndSplineSet
Validated: 1
EndChar

StartChar: uni21C7
Encoding: 8647 8647 556
Width: 1100
VWidth: 6
Flags: W
HStem: 258 152<265 1043> 1088 152<260 1038>
VStem: 306 152<-86.4746 -36.166 1489.77 1573.35>
LayerCount: 2
Fore
SplineSet
-15 1208 m 1
 129 1338 292 1470 315 1610 c 1
 471 1573 l 1
 441 1429 354 1323 260 1233 c 1
 380 1238 508 1240 595 1240 c 0
 636 1240 675 1240 714 1240 c 0
 796 1240 913 1239 1020 1238 c 1
 1038 1238 l 1
 1038 1085 l 1
 1020 1085 l 1
 885 1088 718 1088 593 1088 c 0
 532 1088 386 1086 245 1080 c 1
 340 984 417 880 453 743 c 1
 423 599 359 494 265 404 c 1
 385 409 513 410 600 410 c 0
 641 410 680 410 719 410 c 0
 801 410 918 409 1025 408 c 1
 1043 408 l 1
 1043 255 l 1
 1025 255 l 1
 890 258 723 258 598 258 c 0
 537 258 391 256 250 250 c 1
 345 154 422 51 458 -86 c 1
 306 -140 l 1
 268 9 148 123 -10 264 c 1
 -10 379 l 1
 118 495 242 616 284 740 c 1
 234 865 124 969 -15 1093 c 1
 -15 1208 l 1
EndSplineSet
Validated: 1
EndChar

StartChar: uni21C8
Encoding: 8648 8648 557
Width: 1100
VWidth: 66
Flags: W
HStem: 1376 20G<206.5 437.5 712.5 935>
VStem: 256 163<-126 1122> 734 163<-126 1122>
LayerCount: 2
Fore
SplineSet
870 1396 m 1
 1000 1252 1032 1122 1100 963 c 1
 996 891 l 1
 957 978 942 1053 894 1122 c 1
 894 861 897 612 897 296 c 2
 897 146 l 2
 897 31 896 -25 891 -126 c 1
 730 -126 l 1
 734 -64 735 -21 735 34 c 0
 735 81 734 138 734 224 c 2
 734 1128 l 1
 696 1061 667 972 618 861 c 1
 516 861 l 1
 480 995 451 1080 416 1122 c 1
 416 861 419 612 419 296 c 2
 419 146 l 2
 419 31 418 -25 413 -126 c 1
 252 -126 l 1
 256 -64 257 -21 257 34 c 0
 257 81 256 138 256 224 c 2
 256 1128 l 1
 162 1037 170 988 90 876 c 1
 -20 951 l 1
 70 1076 136 1238 277 1396 c 1
 392 1396 l 1
 483 1311 541 1235 577 1168 c 1
 614 1237 670 1315 755 1396 c 1
 870 1396 l 1
EndSplineSet
Validated: 1
EndChar

StartChar: uni21C9
Encoding: 8649 8649 558
Width: 1100
VWidth: 6
Flags: W
HStem: 262 152<15 793> 1088 152<19 797>
VStem: 600 152<-82.1194 -32.166 1489.77 1573.09>
LayerCount: 2
Fore
SplineSet
1072 1208 m 1
 1072 1093 l 1
 925 961 800 865 753 732 c 1
 802 612 942 496 1068 383 c 1
 1068 268 l 1
 910 127 790 13 752 -136 c 1
 600 -82 l 1
 636 55 713 158 808 254 c 1
 667 260 521 262 460 262 c 0
 335 262 168 262 33 259 c 1
 15 259 l 1
 15 412 l 1
 33 412 l 1
 140 413 257 414 339 414 c 0
 378 414 417 414 458 414 c 0
 545 414 673 413 793 408 c 1
 699 498 612 604 582 748 c 1
 618 885 717 984 812 1080 c 1
 671 1086 525 1088 464 1088 c 0
 339 1088 172 1088 37 1085 c 1
 19 1085 l 1
 19 1238 l 1
 37 1238 l 1
 144 1239 261 1240 343 1240 c 0
 382 1240 421 1240 462 1240 c 0
 549 1240 677 1238 797 1233 c 1
 703 1323 616 1429 586 1573 c 1
 742 1610 l 1
 765 1470 928 1338 1072 1208 c 1
EndSplineSet
Validated: 1
EndChar

StartChar: uni21CA
Encoding: 8650 8650 559
Width: 1100
VWidth: 66
Flags: W
HStem: 1309 20G<213.5 377 691.5 855>
VStem: 210 163<80 1325.11> 688 163<80 1325.11>
LayerCount: 2
Fore
SplineSet
237 -193 m 1
 107 -49 32 101 -36 260 c 1
 68 332 l 1
 107 245 165 149 213 80 c 1
 213 341 210 591 210 907 c 2
 210 1057 l 2
 210 1172 211 1228 216 1329 c 1
 377 1328 l 1
 373 1266 372 1223 372 1168 c 0
 372 1121 373 1065 373 979 c 2
 373 74 l 1
 411 141 440 230 489 341 c 1
 591 341 l 1
 627 207 656 122 691 80 c 1
 691 341 688 591 688 907 c 2
 688 1057 l 2
 688 1172 689 1228 694 1329 c 1
 855 1328 l 1
 851 1266 850 1223 850 1168 c 0
 850 1121 851 1065 851 979 c 2
 851 74 l 1
 918 145 919 214 999 326 c 1
 1110 251 l 1
 1020 126 971 -35 830 -193 c 1
 715 -193 l 1
 624 -108 566 -33 530 34 c 1
 493 -35 437 -112 352 -193 c 1
 237 -193 l 1
EndSplineSet
Validated: 1
EndChar
